<svg width="348" height="435" viewBox="0 0 348 435" fill="none" xmlns="http://www.w3.org/2000/svg">
<path fill-rule="evenodd" clip-rule="evenodd" d="M238.414 70.3209C231.096 70.3209 145.582 58.7672 134.678 174.306C123.774 289.844 246.951 361.798 314.638 288.624C382.325 215.45 342.079 78.2472 238.416 70.3209H238.414Z" fill="#E4ECE0"/>
<path fill-rule="evenodd" clip-rule="evenodd" d="M56.3597 434.119C56.2552 434.531 55.8359 434.78 55.4235 434.676C55.011 434.571 54.7622 434.152 54.8666 433.739C54.8962 433.621 65.1093 392.633 90.6673 364.889C108.765 345.242 107.747 332.865 106.776 321.054C106.392 316.378 106.014 311.789 106.788 306.835C107.458 302.547 109.35 298.16 111.965 294.052C115.628 288.295 120.725 283.066 125.864 279.425C131.081 275.729 136.384 273.655 140.36 274.276C140.837 274.351 141.294 274.462 141.731 274.615C140.633 270.752 139.302 266.79 137.694 262.782C133.239 251.682 131.287 245.558 131.2 241.303C131.109 236.871 132.948 234.529 136.062 230.991C137.431 229.433 140.282 226.896 143.934 223.64C156.429 212.51 178.449 192.895 181.564 176.701C183.438 166.959 183.196 156.572 181.552 146.404C179.646 134.621 175.856 123.131 171.288 113.269C170.408 111.369 169.546 109.509 168.702 107.682C167.489 107.495 166.249 107.236 164.987 106.893C157.461 104.852 160.205 98.577 161.957 95.6796C158.928 96.2608 152.294 98.0567 145.892 103.279C141.362 106.972 137.602 109.032 134.558 109.477C131.299 109.954 128.863 108.667 127.195 105.637C125.438 102.44 123.698 98.2603 123.468 94.1987C123.292 91.0942 123.992 88.0663 126.21 85.5848C126.854 84.8661 127.69 84.1213 128.69 83.4131C129.548 82.8057 130.53 82.2245 131.616 81.7094C131.351 81.4815 131.092 81.2518 130.838 81.0203C126.407 76.9814 123.553 72.5143 122.382 69.0792C122.074 68.1778 121.991 67.1981 122.107 66.187C122.372 63.8569 123.699 61.3163 125.756 59.0993C127.784 56.9136 130.533 55.0238 133.681 53.9518C135.996 53.1635 138.526 52.8137 141.141 53.113C143.139 53.341 144.912 53.6751 146.494 54.1415C146.327 52.1873 146.388 50.3636 146.654 48.6686C147.496 43.2793 150.383 39.2125 154.568 36.4473C156.288 35.311 158.426 34.4548 160.744 33.9102C164.36 33.0592 168.438 32.96 172.043 33.7257C175.726 34.507 178.938 36.195 180.734 38.9132C181.305 39.778 181.731 40.7421 181.982 41.8088C182.194 42.7103 182.335 43.5873 182.41 44.4487C183.99 44.2503 185.566 44.3077 187.099 44.6297C188.33 44.8872 189.546 45.23 190.717 45.6581C193.978 46.8484 196.9 48.7017 198.816 51.2284C200.767 53.8004 201.673 57.0441 200.852 60.9595C200.692 61.72 200.467 62.5065 200.172 63.3175C198.597 67.6366 195.163 71.6825 191.093 75.2238C190.233 75.9721 189.344 76.6977 188.438 77.399C189.856 78.6641 191.027 80.2494 191.887 81.9183C193.037 84.1509 193.643 86.5593 193.556 88.5797C193.42 91.7172 192.511 94.9261 191.184 97.7174C189.758 100.712 187.832 103.253 185.836 104.73C183.751 106.274 180.443 107.502 176.42 107.91C174.584 108.096 172.595 108.111 170.502 107.91L172.685 112.629C177.306 122.602 181.139 134.23 183.069 146.166C184.74 156.501 184.983 167.067 183.076 176.991C179.864 193.701 157.595 213.535 144.959 224.792C141.348 228.01 138.531 230.518 137.219 232.011C134.351 235.27 132.656 237.416 132.734 241.275C132.818 245.313 134.739 251.29 139.121 262.213C140.945 266.757 142.417 271.245 143.598 275.597C148.732 279.18 152.472 287.517 155.461 294.186C157.609 298.974 159.349 302.852 160.563 303.069C161.472 303.231 162.759 303.132 164.578 302.991C169.875 302.58 179.5 301.834 198.257 306.069C223.412 311.749 246.198 309.052 246.264 309.045C246.687 308.996 247.068 309.301 247.116 309.722C247.153 310.044 246.986 310.341 246.718 310.486C245.909 310.982 229.398 320.911 205.159 320.911C195.082 320.911 187.211 319.552 180.762 318.438C171.61 316.858 165.398 315.786 159.944 319.935C154.922 323.755 151.386 325.504 149.108 324.91C146.654 324.272 145.763 321.261 146.205 315.595C146.677 309.541 146.691 300.053 144.888 288.868C144.256 284.947 143.402 280.817 142.264 276.552C141.63 276.166 140.912 275.917 140.123 275.794C136.556 275.237 131.654 277.201 126.746 280.678C121.761 284.211 116.815 289.285 113.257 294.876C110.749 298.816 108.939 303.003 108.304 307.07C107.561 311.827 107.932 316.338 108.309 320.934C109.308 333.07 110.354 345.787 91.7984 365.931C66.5101 393.383 56.3892 434.002 56.3597 434.12V434.119ZM154.057 294.807C151.464 289.022 148.29 281.949 144.253 278.113C145.156 281.738 145.861 285.257 146.404 288.624C148.231 299.961 148.217 309.574 147.738 315.708C147.364 320.511 147.9 323.006 149.492 323.421C151.259 323.88 154.384 322.232 159.015 318.71C165.004 314.154 171.481 315.271 181.019 316.917C187.404 318.019 195.198 319.366 205.157 319.366C223.177 319.366 236.809 313.806 242.721 310.888C235.203 311.396 217.253 311.928 197.92 307.562C179.396 303.379 169.912 304.115 164.691 304.52C162.759 304.67 161.39 304.776 160.297 304.581C158.279 304.221 156.389 300.008 154.057 294.807ZM167.917 105.985C166.369 102.63 164.874 99.3862 163.422 96.2278C161.978 98.537 159.471 103.801 165.387 105.405C166.242 105.637 167.086 105.83 167.916 105.985H167.917ZM160.891 90.6975L159.679 88.0472C156.116 80.2303 152.879 73.0468 149.799 66.0826C148.149 62.3534 147.14 58.9305 146.685 55.8138C145.041 55.2691 143.151 54.8915 140.971 54.6427C138.59 54.3712 136.284 54.6897 134.172 55.4101C131.278 56.3968 128.746 58.137 126.88 60.1486C125.043 62.1289 123.863 64.3546 123.635 66.3558C123.545 67.1493 123.605 67.9046 123.839 68.5867C124.938 71.8113 127.644 76.0312 131.873 79.884C132.299 80.2738 132.741 80.6584 133.199 81.0377C135.411 80.2024 137.962 79.663 140.732 79.6821C145.657 79.7169 151.267 81.5076 156.878 86.5263C158.218 87.7252 159.559 89.1104 160.891 90.701V90.6975ZM161.077 87.4085L161.712 88.8007C160.819 84.1631 159.448 77.4669 157.847 71.0578C156.453 65.4823 154.812 61.6504 152.24 59.0958C151.142 58.0047 149.863 57.1381 148.347 56.4559C148.835 59.2019 149.767 62.2037 151.21 65.4631C154.382 72.6361 157.607 79.797 161.078 87.4103L161.077 87.4085ZM164.439 94.7556C166.118 98.4134 167.883 102.242 169.745 106.272C172.068 106.568 174.266 106.578 176.267 106.377C180.003 105.999 183.038 104.885 184.919 103.493C186.711 102.165 188.467 99.8317 189.79 97.0526C191.039 94.4284 191.892 91.4266 192.017 88.5101C192.094 86.7525 191.549 84.6225 190.517 82.6196C189.689 81.0116 188.554 79.5011 187.185 78.3404C182.464 81.8243 177.429 84.6347 173.679 86.448C170.578 87.9463 168.398 89.4689 166.913 90.8106C166.482 91.2004 166.109 91.5641 165.793 91.9C165.566 92.3837 165.366 92.8257 165.191 93.2138C164.895 93.8646 164.658 94.3849 164.44 94.7521L164.439 94.7556ZM148.17 48.9018C147.893 50.6698 147.857 52.5962 148.09 54.681C150.164 55.4814 151.875 56.5673 153.324 58.0064C156.122 60.7872 157.88 64.8401 159.34 70.6854C160.478 75.2394 161.5 79.9362 162.318 83.9456C162.344 78.1734 162.796 70.8733 164.44 64.0988C166.097 57.2703 169.283 52.1316 173.105 48.8131C175.515 46.7196 178.177 45.3466 180.878 44.7219C180.816 43.8831 180.685 43.0304 180.48 42.1586C180.271 41.2729 179.919 40.4759 179.448 39.7624C177.896 37.4131 175.033 35.9357 171.721 35.2327C168.335 34.514 164.5 34.6097 161.091 35.4119C158.945 35.9166 156.977 36.6997 155.414 37.7316C151.581 40.2636 148.937 43.9823 148.168 48.9053L148.17 48.9018ZM182.472 45.9905C182.451 52.4553 178.748 58.1996 173.634 66.1314C172.694 67.5879 171.708 69.1192 170.733 70.668C165.612 78.8068 164.489 86.9961 164.291 91.3553C164.336 91.2978 164.383 91.2404 164.432 91.1812C166.48 86.7942 170.5 79.0748 176.801 75.8276C178.614 74.8932 180.36 74.5312 181.997 74.6025C183.911 74.6861 185.66 75.363 187.19 76.4141C188.178 75.6571 189.148 74.8723 190.082 74.0596C193.98 70.6697 197.253 66.8292 198.727 62.7919C198.997 62.0506 199.202 61.3354 199.347 60.6446C200.067 57.2112 199.284 54.3834 197.593 52.1525C195.868 49.878 193.195 48.1953 190.192 47.099C189.09 46.697 187.943 46.3733 186.784 46.1314C185.38 45.8374 183.929 45.7921 182.472 45.9888V45.9905ZM172.339 65.3013C177.21 57.7454 180.756 52.2465 180.915 46.295C178.56 46.8954 176.232 48.1292 174.111 49.9738C170.516 53.0956 167.512 57.9612 165.934 64.459C164.376 70.8768 163.91 77.7871 163.858 83.3643C164.792 79.308 166.463 74.5677 169.431 69.8501C170.469 68.2022 171.427 66.716 172.339 65.3013ZM173.011 85.0662C176.59 83.3365 181.36 80.681 185.876 77.3938C184.684 76.6629 183.355 76.2018 181.928 76.1409C180.548 76.0817 179.063 76.3949 177.502 77.1989C173.079 79.4768 169.804 84.2466 167.615 88.2664C169.022 87.2276 170.797 86.1365 173.009 85.068L173.011 85.0662ZM160.266 94.4806C157.128 93.52 151.695 91.7799 144.333 89.133C139.894 87.5373 136.084 85.2977 132.929 82.7988C131.662 83.3435 130.535 83.9873 129.574 84.6678C128.675 85.3047 127.926 85.9711 127.354 86.6098C125.447 88.7415 124.848 91.3866 125.003 94.1152C125.217 97.9001 126.872 101.856 128.544 104.897C129.868 107.304 131.783 108.329 134.335 107.955C137.102 107.551 140.616 105.6 144.923 102.087C150.707 97.3693 156.704 95.3333 160.266 94.4789V94.4806ZM144.85 87.6887C152.271 90.3581 157.713 92.0966 160.809 93.0415C159.168 90.9272 157.509 89.1504 155.854 87.6713C150.564 82.9397 145.314 81.25 140.725 81.217C138.515 81.2013 136.458 81.5685 134.622 82.1636C137.509 84.3389 140.925 86.2774 144.85 87.6887Z" fill="#899F87"/>
<path fill-rule="evenodd" clip-rule="evenodd" d="M148.114 55.0064C148.242 55.4102 148.019 55.8417 147.615 55.9705C147.211 56.0975 146.78 55.8748 146.651 55.4711C146.646 55.4537 144.648 49.4048 145.509 40.8274C145.241 39.9017 143.562 34.2757 140.35 26.9269C140.303 26.819 140.27 26.7424 140.249 26.6902C138.503 22.5155 138.686 17.965 140.922 13.7555C143.122 9.6121 147.319 5.80806 153.629 3.04987C153.855 2.95068 154.052 2.86714 154.221 2.79579C155.884 2.10146 157.539 1.54462 159.165 1.11653C164.491 -0.286052 169.491 -0.298241 173.439 0.695402C177.508 1.72037 180.499 3.82773 181.667 6.61724C181.789 6.90959 181.893 7.21412 181.975 7.52561C182.457 9.35628 182.923 10.9416 183.317 12.2833C184.427 16.0647 185.034 18.1303 183.682 18.8072C182.862 19.2179 182.043 18.5497 180.779 17.5177C178.952 16.0264 175.945 13.5693 171.367 12.7374C171.273 12.8836 171.182 13.035 171.095 13.1916C168.875 17.1697 166.945 18.2051 163.713 19.9366C162.043 20.831 160.005 21.9239 157.337 23.7824C150.227 28.7349 147.262 40.0565 147.053 40.8901C146.2 49.1995 148.113 54.989 148.118 55.0064H148.114ZM145.518 35.8766C145.436 34.7159 145.318 33.5152 145.198 32.2971C144.474 24.957 143.689 16.9992 150.177 12.071C154.607 8.70371 158.583 6.03776 162.28 4.4803C166.082 2.87759 169.588 2.43907 172.978 3.59281C176.699 4.85966 178.829 5.94727 179.977 6.65552C178.844 4.59863 176.37 3.02028 173.065 2.18847C169.348 1.25225 164.618 1.2714 159.554 2.60438C157.999 3.01332 156.412 3.54756 154.809 4.21753C154.586 4.30976 154.397 4.39155 154.242 4.45941C148.276 7.0662 144.328 10.6231 142.283 14.4776C140.271 18.266 140.104 22.3537 141.671 26.1003L141.761 26.3126C143.404 30.0714 144.651 33.3899 145.52 35.8784L145.518 35.8766ZM146.728 32.1474C146.855 33.4369 146.98 34.7055 147.063 35.9375C148.684 31.782 151.682 25.8428 156.453 22.519C159.161 20.6327 161.265 19.5068 162.986 18.5827C165.969 16.9835 167.747 16.0299 169.748 12.4451C169.935 12.111 170.133 11.7995 170.34 11.5054C170.363 11.4671 170.387 11.4323 170.417 11.3993C172.583 8.4044 175.724 7.50646 177.969 7.28024C176.81 6.69032 175.066 5.92987 172.486 5.05108C169.486 4.02959 166.331 4.44027 162.876 5.89681C159.316 7.39684 155.441 10.0002 151.104 13.2943C145.304 17.7005 146.045 25.2163 146.729 32.1474H146.728ZM180.727 8.82378C180.642 8.83596 180.553 8.83424 180.468 8.81683C179.993 8.75245 175.5 8.23909 172.433 11.3836C176.944 12.4051 179.906 14.8239 181.745 16.3257C182.544 16.9783 182.925 17.469 182.993 17.4342C183.195 17.3333 182.716 15.701 181.839 12.7166C181.509 11.5889 181.127 10.2925 180.727 8.82204V8.82378Z" fill="#899F87"/>
<path fill-rule="evenodd" clip-rule="evenodd" d="M147.643 54.6984C147.866 55.0586 147.754 55.532 147.392 55.7547C147.032 55.9774 146.559 55.8661 146.336 55.5041C146.324 55.4832 143.115 50.3114 139.819 47.2765C139.76 47.2452 139.704 47.2052 139.654 47.1582C139.654 47.1582 139.513 47.0294 139.273 46.7928C138.775 46.3734 138.279 46.0132 137.797 45.7347C137.317 45.4841 136.748 45.2562 136.093 45.1152C135.385 44.9621 133.624 45.4285 131.372 46.0271C127.046 47.1756 121.013 48.7783 115.798 47.555C113.236 46.9546 111.781 46.0045 111.207 44.9969C110.861 44.3913 110.807 43.7683 111.003 43.1697C111.183 42.625 111.572 42.1221 112.138 41.7027C113.523 40.6743 116.128 40.0583 119.281 40.5386C122.814 41.0763 126.094 41.6418 129.052 42.1848C131.725 42.6755 134.139 43.1523 136.227 43.5752C134.924 42.0978 133.401 40.2375 131.939 38.1371C131.416 38.2729 130.932 37.9805 129.903 37.3592C129.174 36.919 128.074 36.2542 126.31 35.3998C125.511 35.0135 124.577 34.6045 123.55 34.1573C118.724 32.0534 111.915 29.0812 107.608 23.3404C105.694 20.7875 102.285 19.1865 98.8516 18.1842C97.6613 19.1691 93.203 22.6982 88.8682 24.0225C84.1175 25.4738 79.9759 24.9152 79.4643 24.8369C79.4051 24.8317 79.346 24.8195 79.2868 24.7986C78.8848 24.6612 78.6708 24.2226 78.8082 23.8206C78.81 23.8137 79.6 21.4453 80.9243 19.9C81.8275 18.8472 82.9359 18.1546 84.73 17.0339C85.5531 16.5206 86.5259 15.9115 87.6692 15.1528C87.8624 14.9509 88.4262 14.4063 89.4564 13.778C89.9854 13.2891 90.3473 12.8523 90.7162 12.4051C91.5306 11.4219 92.3747 10.4021 94.7483 8.84464C96.967 7.38811 99.5704 5.74016 102.793 4.77435C106.035 3.80333 109.867 3.5371 114.485 4.87704C118.933 6.16651 123.849 9.57379 127.805 13.4509C132.033 17.5943 135.195 22.3258 135.566 25.6513C135.844 28.1502 135.618 30.4107 135.19 32.2762C134.665 34.5628 133.793 36.3047 133.145 37.1922C135.923 41.1963 138.963 44.3321 140.171 45.5224C140.562 45.8635 140.771 46.1089 140.773 46.1106C140.788 46.128 140.802 46.1472 140.814 46.1663C144.382 49.4361 147.634 54.6793 147.646 54.7001L147.643 54.6984ZM131.929 44.2904C130.932 44.099 129.881 43.8988 128.772 43.697C125.901 43.1697 122.656 42.6129 119.05 42.063C116.323 41.647 114.151 42.1204 113.05 42.9383C112.742 43.1662 112.54 43.4098 112.462 43.6465C112.401 43.8327 112.423 44.0346 112.54 44.2382C112.917 44.8994 114.045 45.5642 116.144 46.0567C120.99 47.1948 126.808 45.6495 130.977 44.541C131.304 44.454 131.621 44.3704 131.927 44.2904H131.929ZM130.471 35.9044C128.995 33.5134 127.699 30.9067 126.922 28.2581C125.576 23.6588 123.618 20.2515 120.39 17.8048C117.129 15.332 112.538 13.8007 105.946 12.9671C97.4786 11.8987 92.7628 13.5901 90.4918 14.9144C90.4257 14.9753 90.356 15.038 90.2847 15.1023C92.2894 15.2746 95.4809 15.6731 98.7472 16.5798C98.8238 16.5885 98.8986 16.6111 98.97 16.6424C102.772 17.7231 106.644 19.4998 108.833 22.418C112.895 27.8335 119.488 30.71 124.161 32.7478C125.21 33.2054 126.164 33.6213 126.975 34.0146C128.647 34.8255 129.728 35.459 130.471 35.9044ZM128.398 27.83C129.213 30.6126 130.638 33.3568 132.235 35.8366C132.698 35.0605 133.278 33.7118 133.687 31.9316C134.082 30.2123 134.289 28.1276 134.033 25.8184C133.702 22.8444 130.721 18.4626 126.724 14.5455C122.929 10.8267 118.246 7.56736 114.056 6.35097C109.77 5.10848 106.225 5.35211 103.23 6.2483C100.216 7.15146 97.7205 8.73327 95.5888 10.1324C94.3097 10.9711 93.5162 11.6376 92.9298 12.2258C95.855 11.2931 100.134 10.6858 106.14 11.4445C113.006 12.3111 117.832 13.9399 121.317 16.5832C124.836 19.2509 126.957 22.914 128.398 27.8317V27.83ZM96.9983 17.6952C93.0081 16.7555 89.345 16.5537 88.3879 16.5154C87.2603 17.2636 86.331 17.8431 85.5392 18.3373C83.8669 19.3814 82.8333 20.027 82.0885 20.8954C81.4377 21.6558 80.9278 22.6826 80.6145 23.4134C82.0832 23.5266 85.0781 23.5718 88.4193 22.5503C91.7726 21.5253 95.2494 19.0543 96.9983 17.6952Z" fill="#899F87"/>
<path fill-rule="evenodd" clip-rule="evenodd" d="M183.938 152.93C184.049 153.339 183.807 153.761 183.398 153.873C182.989 153.984 182.566 153.742 182.455 153.333C182.448 153.305 180.515 146.148 175.693 140.642C174.462 140.315 167.528 138.772 160.831 143.453C160.633 143.592 160.038 144.011 159.472 144.411C152.827 149.101 152.581 149.275 142.826 145.094C133.594 141.138 128.104 147.065 127.806 147.398C127.77 147.441 127.73 147.479 127.684 147.512L127.681 147.516L127.674 147.521L127.664 147.528L127.636 147.547L127.629 147.551C127.552 147.599 127.469 147.634 127.378 147.652L127.342 147.659H127.335C127.267 147.669 127.197 147.671 127.128 147.662H127.122L127.075 147.653C127.053 147.648 127.028 147.643 127.008 147.638L126.997 147.634L126.981 147.629C126.955 147.62 126.929 147.61 126.905 147.599L126.877 147.586C126.771 147.532 126.682 147.455 126.612 147.365L126.609 147.361L126.604 147.354L126.597 147.344L126.579 147.316L126.576 147.309C126.529 147.232 126.492 147.149 126.475 147.058L126.468 147.022V147.013C126.463 146.973 126.459 146.931 126.459 146.889C126.456 146.467 126.397 134.642 130.968 128.752C134.454 124.262 138.103 123.601 143.471 122.63C145.297 122.299 147.331 121.93 149.675 121.34C157.807 119.292 161.065 121.015 165.624 123.427C166.219 123.742 166.837 124.069 167.475 124.391C172.9 127.137 176.363 138.122 176.803 139.579C181.914 145.398 183.938 152.897 183.944 152.926L183.938 152.93ZM173.831 138.744C172.404 137.458 170.777 136.353 168.932 135.578C162.942 133.062 160.857 133.483 157.69 134.12C155.52 134.557 152.872 135.091 148.34 134.955C142.774 134.788 138.71 135.364 135.806 136.516C133.009 137.625 131.306 139.274 130.366 141.307C129.76 142.619 129.303 143.663 128.956 144.485C131.668 142.723 136.669 140.778 143.428 143.675C152.395 147.519 152.616 147.363 158.588 143.148C158.872 142.948 159.183 142.729 159.954 142.189C165.274 138.47 170.754 138.382 173.832 138.742L173.831 138.744ZM169.529 134.157C171.326 134.912 172.931 135.954 174.353 137.164C172.981 133.492 170.298 127.547 166.776 125.764C166.108 125.426 165.492 125.101 164.902 124.787C160.647 122.537 157.607 120.928 150.044 122.833C147.707 123.421 145.615 123.801 143.739 124.14C138.721 125.048 135.31 125.666 132.181 129.696C129.618 132.998 128.621 138.417 128.234 142.29C128.454 141.796 128.697 141.255 128.972 140.661C130.072 138.277 132.04 136.356 135.242 135.086C138.336 133.859 142.601 133.245 148.386 133.417C152.747 133.547 155.301 133.034 157.393 132.611C160.845 131.917 163.116 131.459 169.532 134.153L169.529 134.157Z" fill="#899F87"/>
<path fill-rule="evenodd" clip-rule="evenodd" d="M184.126 167.854C183.887 168.205 183.407 168.294 183.057 168.056C182.706 167.815 182.617 167.337 182.855 166.987C182.867 166.97 186.745 161.469 188.657 144.659C188.241 143.578 186.16 137.877 185.05 129.049C184.428 124.111 184.171 120.476 184.89 116.983C185.612 113.47 187.303 110.163 190.575 105.919C195.903 99.0034 202.688 97.1501 207.735 95.7736C208.887 95.4587 209.945 95.1698 210.85 94.8566C215.656 93.1878 223.931 93.2417 224.656 93.2504C225.008 93.2312 225.338 93.4575 225.438 93.8107C225.505 94.0509 225.45 94.2962 225.312 94.4807C224.945 95.0288 220.175 102.237 218.374 109.699C217.111 114.933 214.246 116.654 211.403 118.365C209.84 119.304 208.283 120.241 207.092 121.81C205.437 123.994 204.607 126.176 203.699 128.566C202.777 130.993 201.774 133.626 199.784 136.715C196.357 142.031 191.605 144.45 190.155 145.094C188.179 162.106 184.139 167.838 184.127 167.857L184.126 167.854ZM190.519 141.532C190.465 142.13 190.408 142.717 190.35 143.291C192.179 142.35 195.767 140.101 198.487 135.881C200.393 132.923 201.364 130.372 202.258 128.021C203.21 125.519 204.079 123.234 205.862 120.879C207.228 119.076 208.916 118.062 210.611 117.042C213.18 115.499 215.766 113.943 216.878 109.333C218.24 103.688 221.233 98.1995 222.892 95.4378C219.495 96.7081 212.177 99.9327 203.969 106.577C192.863 115.566 192.271 122.123 190.549 141.21L190.519 141.532ZM189.031 140.921C190.787 121.467 191.42 114.756 203 105.383C209.852 99.8352 216.129 96.6107 220.106 94.9035C217.316 95.0671 213.822 95.4447 211.347 96.3044C210.387 96.6368 209.308 96.9326 208.135 97.2528C203.302 98.5718 196.805 100.347 191.789 106.857C188.671 110.905 187.065 114.021 186.393 117.289C185.718 120.576 185.97 124.079 186.572 128.861C187.239 134.152 188.253 138.278 189.033 140.921H189.031Z" fill="#899F87"/>
<path fill-rule="evenodd" clip-rule="evenodd" d="M43.3744 104.37C43.2665 104.513 42.3721 105.787 43.7677 106.996C44.77 107.864 46.263 108.543 47.8744 108.653C49.1865 108.741 50.5735 108.447 51.8299 107.56C52.5921 107.02 54.1096 105.493 56.0795 103.511C61.8047 97.7471 71.2625 88.2265 78.5208 86.6708C84.9421 85.296 93.4185 84.9619 98.3362 84.8923C93.5577 83.2218 84.7437 80.8917 75.6738 82.336C70.0026 83.2392 64.4932 85.9016 59.5406 89.2724C52.78 93.8734 47.0688 99.7831 43.3883 104.356L43.3744 104.372V104.37ZM42.7618 108.159C40.3847 106.098 41.8726 103.824 42.1511 103.444C42.1632 103.427 42.1771 103.408 42.1893 103.392C45.9429 98.7285 51.769 92.6988 58.6723 88.002C63.7902 84.5182 69.5084 81.7617 75.432 80.8186C89.169 78.6312 102.311 84.7949 102.652 84.9567C102.922 85.0785 103.106 85.3518 103.103 85.665C103.097 86.0896 102.749 86.4289 102.326 86.4237C102.286 86.4237 88.278 86.154 78.8392 88.1761C72.0281 89.6361 62.7722 98.953 57.1688 104.595C55.1415 106.634 53.5822 108.206 52.7139 108.82C51.1408 109.932 49.4076 110.301 47.7718 110.189C45.8141 110.057 43.9921 109.225 42.7618 108.16V108.159Z" fill="#899F87"/>
<path fill-rule="evenodd" clip-rule="evenodd" d="M92.8448 107.118C93.2677 107.17 93.567 107.553 93.5165 107.976C93.4643 108.399 93.0814 108.698 92.6586 108.648C92.6255 108.644 80.8514 107.141 76.2295 113.111C74.5711 115.252 73.0677 118.036 71.8113 120.775C69.9893 124.741 68.6928 128.536 68.1916 130.167C70.1807 129.942 75.1732 128.917 82.9797 124.283C93.292 118.163 97.1953 108.368 97.2074 108.34C97.3223 108.06 97.599 107.863 97.9209 107.865L107.856 107.933C107.922 107.927 107.99 107.933 108.059 107.945C108.477 108.027 108.748 108.43 108.667 108.848C108.661 108.874 106.977 118.201 94.672 126.335C87.2067 131.27 78.638 132.339 73.0589 132.339C71.2927 132.339 69.817 132.231 68.7711 132.105C68.1186 132.027 67.5826 131.905 67.198 131.777C66.9491 131.777 66.7038 131.656 66.5542 131.434C66.4654 131.3 66.4219 131.155 66.4219 130.997C66.4219 130.99 66.4219 130.98 66.4254 130.966C66.4288 130.865 66.4532 130.767 66.4932 130.68C66.8204 129.438 68.2665 124.816 70.4138 120.138C71.7155 117.305 73.2782 114.417 75.0132 112.173C80.1798 105.5 92.8083 107.116 92.8448 107.12V107.118ZM72.4446 130.792C72.6447 130.795 72.8483 130.797 73.0572 130.797C78.4343 130.797 86.6793 129.774 93.8228 125.052C103.322 118.774 106.171 111.888 106.918 109.46L98.4203 109.403C97.4684 111.502 93.1545 120.034 83.7628 125.608C79.0016 128.434 75.2011 129.963 72.4464 130.792H72.4446Z" fill="#899F87"/>
<path fill-rule="evenodd" clip-rule="evenodd" d="M20.6027 47.2939C20.9542 47.0555 21.4327 47.1442 21.6711 47.4957C21.9096 47.8472 21.8208 48.3258 21.4693 48.5642C21.4136 48.6025 1.81562 61.5303 1.54589 103.808C1.41016 125.056 3.0773 137.162 5.47005 144.455C7.80885 151.586 10.8454 154.033 13.5375 156.003C14.8809 156.986 16.1338 157.863 17.3276 158.698C21.4483 161.582 24.8991 163.997 26.079 166.414C26.4653 167.206 26.688 168.793 26.996 170.993C27.9566 177.849 29.7908 190.935 39.4105 201.375C44.29 206.668 49.4914 211.741 54.6719 216.791C63.0822 224.991 71.4368 233.135 78.2705 242.079C79.3129 243.444 80.3866 244.663 81.4829 245.744C86.0648 250.258 91.0817 252.402 95.9316 252.66C100.774 252.917 105.471 251.299 109.413 248.286C110.312 247.599 111.172 246.84 111.981 246.019C115.195 242.756 117.458 239.029 118.455 235.447C119.038 233.354 119.187 231.316 118.838 229.461C118.495 227.641 117.666 225.991 116.29 224.636C114.96 223.325 113.112 222.279 110.692 221.604C104.399 219.85 98.3243 219.102 92.9384 219.511C87.8815 219.894 83.4423 221.301 80.0194 223.861C77.3743 225.838 74.4943 226.548 71.9745 226.324C70.4066 226.184 68.9744 225.682 67.8172 224.895C66.6304 224.089 65.7308 222.988 65.2627 221.676C64.725 220.17 64.7528 218.399 65.5619 216.488C68.5115 209.527 72.4426 207.406 82.6679 201.893C83.3083 201.547 83.9748 201.188 84.6674 200.814C96.2727 194.534 101.159 192.95 101.173 192.945C101.575 192.813 102.01 193.031 102.142 193.433C102.205 193.622 102.189 193.819 102.113 193.989H102.114C102.109 194.002 100.428 197.699 96.1177 206.32C93.6832 211.189 88.9656 216.076 85.266 219.448C87.5891 218.665 90.1263 218.181 92.8253 217.976C98.3852 217.555 104.638 218.322 111.103 220.123C113.789 220.872 115.858 222.053 117.369 223.541C118.98 225.128 119.95 227.056 120.35 229.179C120.743 231.269 120.581 233.542 119.937 235.858C118.871 239.688 116.473 243.652 113.078 247.098C112.213 247.977 111.299 248.782 110.346 249.512C106.119 252.741 101.072 254.476 95.8515 254.198C90.6397 253.921 85.273 251.64 80.4039 246.842C79.2519 245.708 78.1296 244.434 77.0454 243.015C70.2761 234.156 61.965 226.054 53.5982 217.896C48.3951 212.823 43.1693 207.728 38.2759 202.419C28.3325 191.63 26.4548 178.229 25.4699 171.207C25.1828 169.154 24.9739 167.673 24.6903 167.091C23.681 165.024 20.3817 162.715 16.4436 159.958C15.1907 159.081 13.8768 158.161 12.6239 157.245C9.74217 155.136 6.48976 152.519 4.00305 144.934C1.56853 137.51 -0.128137 125.247 0.00759736 103.805C0.282546 60.7054 20.54 47.3356 20.5992 47.2956L20.6027 47.2939ZM79.1023 222.622L79.2659 222.501C80.6824 221.413 90.8381 213.45 94.7483 205.629C97.3777 200.369 99.0343 196.925 99.9184 195.06C97.63 195.992 92.9872 198.058 85.3983 202.163C84.7057 202.537 84.0392 202.897 83.3988 203.242C73.5163 208.57 69.7157 210.62 66.9802 217.078C66.3346 218.602 66.3033 219.991 66.7174 221.15C67.0759 222.152 67.7685 222.995 68.6821 223.618C69.627 224.26 70.8086 224.672 72.1102 224.787C74.2802 224.98 76.7809 224.356 79.1023 222.619V222.622Z" fill="#899F87"/>
<path fill-rule="evenodd" clip-rule="evenodd" d="M71.0369 203.583C71.0926 203.87 70.9813 204.176 70.7272 204.356C70.722 204.359 68.7921 205.725 68.3919 208.89C68.2318 210.164 68.1639 211.236 68.1065 212.15C68.0056 213.742 67.9342 214.88 67.4417 216.051C67.3094 216.365 67.1267 216.652 66.9005 216.902C66.4028 217.457 65.6981 217.83 64.8837 217.96C64.1093 218.084 63.2322 217.988 62.3465 217.616C61.7374 217.36 61.1197 216.972 60.5211 216.436C59.0663 215.129 56.7396 211.675 55.5667 207.977C54.7315 205.341 54.4652 202.548 55.4711 200.231C56.8667 197.017 58.6277 196.647 60.3644 196.283C61.0222 196.145 61.6747 196.008 62.2786 195.63L61.8314 194.877C60.3888 192.446 58.7165 189.628 56.1828 186.498C55.2883 187.737 54.3242 188.643 51.7105 188.489C48.7469 188.313 45.3728 188.028 42.6772 186.038C39.9695 184.042 38.0379 180.4 38.0727 173.579C38.0988 168.442 38.2919 163.145 38.5182 158.599C38.0883 159.584 37.5837 160.588 36.9885 161.599C34.6549 165.56 32.0029 167.796 29.4431 169.018C26.8642 170.248 24.3897 170.446 22.4198 170.339C18.3547 170.118 17.5386 169.136 17.5368 169.134C17.2897 168.859 17.2758 168.457 17.4847 168.169L20.8327 162.652C20.4969 161.095 19.3466 154.184 24.2156 149.698C29.5162 144.817 39.651 145.52 40.1052 145.553H40.1261C40.5177 145.584 40.8187 145.905 40.8343 146.287C40.8396 146.336 40.8448 146.408 40.8483 146.502C40.8935 147.225 40.9649 149.46 40.4063 152.446C40.0687 157.787 39.6493 165.892 39.6092 173.584C39.5762 179.814 41.2468 183.071 43.5874 184.796C45.9383 186.529 49.0567 186.788 51.8027 186.952C53.797 187.07 54.4583 186.291 55.163 185.275C53.2071 182.995 52.0255 180.552 51.5904 178.161C51.2406 176.24 51.3764 174.357 51.9837 172.622C52.5911 170.883 53.6664 169.3 55.1943 167.986C57.0929 166.352 59.6962 165.127 62.9747 164.532C67.3617 163.735 70.7899 163.832 73.2835 164.535C74.7975 164.961 75.9825 165.612 76.8474 166.427C77.7453 167.274 78.2935 168.292 78.4988 169.416C78.6606 170.307 78.6033 171.256 78.3301 172.225C77.6096 174.783 76.5655 176.944 74.3711 178.636C72.2272 180.287 69.0114 181.448 63.9457 182.027C59.6944 182.515 58.1109 183.886 57.1085 185.191C59.858 188.53 61.633 191.524 63.1574 194.092L63.3993 194.499L63.415 194.475C64.654 192.542 65.7555 191.116 68.1447 190.265C70.4122 189.456 73.8213 189.221 79.6822 189.637C91.2335 190.457 101.558 192.91 101.589 192.917C102.004 193.013 102.261 193.427 102.164 193.841C102.103 194.102 101.916 194.299 101.683 194.388C101.142 194.623 94.5294 197.456 86.709 198.643C83.5923 199.116 80.8132 200.343 78.3283 201.439C75.631 202.629 73.2522 203.68 71.0334 203.579L71.0369 203.583ZM66.8692 208.697C67.2538 205.645 68.9 203.912 69.5613 203.329C68.9905 203.151 68.4284 202.878 67.8716 202.49C65.8599 201.086 64.4921 199.229 63.0895 196.967C62.3134 197.445 61.499 197.618 60.6794 197.788C59.329 198.072 57.9577 198.359 56.8805 200.839C56.0453 202.763 56.2976 205.184 57.0354 207.512C58.1248 210.947 60.2391 214.113 61.5495 215.291C62.0106 215.705 62.4822 216.001 62.9416 216.194C63.5559 216.452 64.1423 216.523 64.6418 216.443C65.1012 216.37 65.4892 216.168 65.7555 215.872C65.8634 215.752 65.9539 215.611 66.0183 215.454C66.4116 214.516 66.4777 213.488 66.5682 212.052C66.6256 211.135 66.6935 210.062 66.8658 208.696L66.8692 208.697ZM64.7097 195.308C64.5617 195.538 64.4121 195.745 64.259 195.93C65.6215 198.147 66.9127 199.948 68.7503 201.23C71.1692 202.92 74.124 201.617 77.7105 200.033C80.2843 198.897 83.1625 197.626 86.481 197.122C91.5937 196.346 96.1669 194.854 98.7876 193.885C95.0828 193.121 87.6313 191.746 79.5743 191.174C73.9465 190.774 70.7289 190.981 68.6633 191.718C66.7195 192.413 65.7799 193.638 64.7097 195.308ZM53.1026 177.893C53.4698 179.915 54.4599 182.001 56.094 183.987C57.2756 182.518 59.1567 181.027 63.7717 180.499C68.5363 179.953 71.5086 178.904 73.4315 177.421C75.3039 175.978 76.2105 174.078 76.8491 171.811C77.0597 171.062 77.1067 170.345 76.9884 169.688C76.8439 168.891 76.4471 168.162 75.7946 167.547C75.1072 166.9 74.1345 166.373 72.8694 166.018C70.5811 165.374 67.386 165.292 63.2461 166.046C60.26 166.588 57.9038 167.69 56.2002 169.157C54.8794 170.295 53.9519 171.651 53.435 173.132C52.9164 174.616 52.8016 176.236 53.1026 177.893ZM39.1307 148.496C39.1725 147.906 39.2091 147.419 39.2369 147.053C36.8268 146.975 29.3509 147.062 25.258 150.831C21.2782 154.496 21.9134 160.103 22.2597 161.967C24.8038 161.74 34.0755 160.557 36.6544 155.234C38.1823 152.081 38.847 149.897 39.1307 148.496ZM35.6661 160.821C36.5274 159.36 37.1904 157.914 37.6985 156.534C34.2721 162.259 24.2417 163.352 22.1013 163.522L19.1761 168.343C19.6685 168.503 20.6361 168.701 22.4998 168.804C24.2678 168.899 26.4848 168.724 28.7836 167.627C31.1015 166.521 33.5152 164.474 35.6661 160.823V160.821Z" fill="#899F87"/>
<path fill-rule="evenodd" clip-rule="evenodd" d="M40.837 146.48C40.9415 146.892 40.6927 147.311 40.2802 147.416C39.8678 147.52 39.4484 147.271 39.344 146.859C39.337 146.835 37.4385 139.258 32.4442 133.098C31.4731 132.72 26.2422 130.947 18.709 133.259C15.5958 134.215 12.8358 135.553 10.5614 136.655C8.57236 137.619 6.94005 138.41 5.66798 138.659C3.96086 138.995 2.87326 138.51 2.49912 136.615C1.66731 132.384 3.94874 131.083 8.776 128.326C9.3172 128.016 9.89663 127.686 10.5509 127.305C13.7807 125.42 17.6666 124.329 21.6499 124.814C25.0188 125.223 28.447 126.755 31.5985 129.873C32.2684 130.536 32.8949 131.23 33.4813 131.942C33.4987 131.961 33.5144 131.98 33.5283 132C38.8237 138.464 40.8266 146.452 40.8336 146.478L40.837 146.48ZM30.5352 130.982L30.516 130.962C27.636 128.112 24.5194 126.715 21.4706 126.344C17.8423 125.902 14.2889 126.906 11.3219 128.636C10.718 128.987 10.1072 129.337 9.5347 129.664C5.36349 132.047 3.39182 133.171 4.01132 136.32C4.16446 137.098 4.63262 137.295 5.3722 137.149C6.45459 136.936 8.0033 136.185 9.8914 135.269C12.2111 134.145 15.0249 132.781 18.2547 131.791C23.6162 130.145 27.9371 130.465 30.5334 130.982H30.5352Z" fill="#899F87"/>
<path fill-rule="evenodd" clip-rule="evenodd" d="M334.933 346.676C335.105 347.064 334.933 347.519 334.545 347.691C334.158 347.863 333.702 347.691 333.53 347.303C333.5 347.237 323.47 324.55 308.033 311.204C300.171 304.406 295.476 299.756 293.029 294.532C290.598 289.339 290.422 283.689 291.618 274.956C290.276 273.3 282.854 264.056 279.116 257.576C276.927 253.782 276.628 248.902 278.236 243.598C279.753 238.592 282.98 233.194 287.925 227.977C297.554 217.819 314.294 211.616 315.721 211.099C315.789 211.073 315.827 211.06 315.827 211.06C316.227 210.921 316.666 211.132 316.805 211.534C316.83 211.605 316.844 211.678 316.847 211.75C316.847 211.781 317.402 222.422 313.227 230.491C312.143 232.587 311.177 234.102 310.353 235.393C308.169 238.818 307.038 240.591 307.328 248.466C307.721 259.098 294.795 273.314 293.149 275.078C291.983 283.556 292.126 288.989 294.416 293.881C296.744 298.853 301.33 303.381 309.034 310.042C324.73 323.614 334.898 346.61 334.927 346.676H334.933ZM291.872 272.818C292.439 266.576 291.365 261.282 290.387 256.458C288.778 248.527 287.417 241.823 293.595 234.144C299.537 226.755 303.971 222.528 306.949 219.69C308.976 217.757 310.309 216.486 310.922 215.362C311.092 215.051 311.275 214.758 311.466 214.485C305.56 217.08 295.592 222.128 289.042 229.038C284.266 234.078 281.159 239.262 279.708 244.046C278.225 248.936 278.478 253.394 280.449 256.812C283.587 262.25 289.409 269.725 291.874 272.818H291.872ZM291.893 256.157C292.867 260.962 293.936 266.224 293.447 272.452C297.158 268.194 306.112 257.01 305.797 248.52C305.487 240.172 306.707 238.261 309.061 234.569C309.86 233.316 310.798 231.845 311.863 229.787C315.042 223.64 315.345 215.883 315.338 212.983C314.452 213.49 313.165 214.454 312.27 216.095C311.539 217.437 310.139 218.771 308.009 220.802C305.061 223.612 300.674 227.796 294.794 235.106C289.067 242.225 290.363 248.607 291.894 256.157H291.893Z" fill="#899F87"/>
<path fill-rule="evenodd" clip-rule="evenodd" d="M308.183 309.297C308.501 309.577 308.534 310.063 308.256 310.381C307.978 310.7 307.492 310.733 307.172 310.454C307.121 310.409 289.359 294.904 273.061 282.274C266.265 277.008 260.227 273.822 254.904 272.336C253.955 272.685 249.775 274.537 247.609 280.695C246.232 284.607 242.164 287.428 237.104 289.562C232.17 291.641 226.281 293.08 221.082 294.243C210.889 296.522 202.159 295.925 201.712 295.894C201.619 295.891 201.525 295.87 201.437 295.83C201.047 295.659 200.871 295.203 201.042 294.815C201.809 293.072 202.733 291.398 204.701 288.777C206.635 286.201 209.588 282.702 214.429 277.279C216.581 274.871 218.172 272.91 219.458 271.323C224.064 265.643 224.943 264.56 233.912 263.904C244.635 263.12 254.058 269.952 255.224 270.832C260.76 272.362 267.007 275.638 273.999 281.059C290.329 293.715 308.131 309.255 308.183 309.301V309.297ZM252.589 271.786C246.434 270.592 241.304 271.786 237.124 274.683C231.352 278.687 230.63 279.028 226.687 280.892C224.839 281.766 222.275 282.979 218.137 285.068C209.393 289.487 205.227 292.786 203.469 294.427C206.476 294.504 213.202 294.429 220.753 292.741C225.884 291.592 231.69 290.176 236.51 288.143C241.203 286.165 244.953 283.615 246.159 280.186C247.832 275.433 250.659 272.973 252.589 271.782V271.786ZM236.251 273.42C240.365 270.568 245.312 269.24 251.149 269.997C247.451 267.849 241.017 264.926 234.022 265.438C225.717 266.045 224.907 267.044 220.652 272.289C219.362 273.877 217.77 275.842 215.574 278.301C210.764 283.687 207.837 287.155 205.93 289.696C205.463 290.319 205.058 290.884 204.701 291.408C207.172 289.509 211.175 286.864 217.443 283.697C221.612 281.59 224.179 280.377 226.029 279.502C229.882 277.68 230.586 277.346 236.251 273.418V273.42Z" fill="#899F87"/>
<path fill-rule="evenodd" clip-rule="evenodd" d="M275.043 281.866C275.372 282.136 275.421 282.621 275.151 282.95C274.881 283.279 274.396 283.328 274.067 283.058C274.036 283.032 263.053 274.202 251.424 250.393C247.397 242.15 244.254 235.337 241.527 229.427L240.386 226.955C240.374 226.93 240.361 226.906 240.351 226.88C235.915 217.283 232.47 210.045 227.538 202.2C223.369 195.57 220.153 189.957 218.091 184.649C216.009 179.289 215.108 174.253 215.595 168.824C215.672 167.961 215.837 167.153 216.077 166.403C217.282 162.639 220.367 160.227 224.046 158.846C227.632 157.497 231.798 157.132 235.285 157.445C236.832 157.584 238.252 157.855 239.436 158.235L239.472 158.247L239.517 158.261H239.521C245.895 160.3 252.014 162.26 252.517 171.431C254.77 170.628 257.053 170.293 259.235 170.433C263.469 170.707 267.489 173.018 270.587 176.19C273.952 179.639 276.244 184.132 276.542 188.14C276.834 192.099 274.831 196.881 271.328 201.155C270.472 202.199 269.525 203.213 268.5 204.179C269.005 204.67 269.48 205.216 269.929 205.818L269.946 205.843C271.161 207.482 272.179 209.535 273.094 211.989C274.629 216.105 275.273 218.496 275.165 220.598C275.054 222.745 274.192 224.456 272.715 227.233C271.901 228.763 271.499 230.19 271.156 231.399C270.204 234.765 269.649 236.724 263.967 235.857C258.235 234.984 247.08 230.148 242.638 228.152L242.927 228.778C245.629 234.637 248.746 241.391 252.811 249.713C264.291 273.214 275.014 281.835 275.045 281.861L275.043 281.866ZM228.838 201.383C231.683 205.907 234.031 210.218 236.35 214.874C235.334 208.9 234.45 199.62 236.549 191.14C238.185 184.532 241.334 179.453 245.114 175.978C246.955 174.285 248.947 172.972 250.989 172.047C250.679 163.448 244.983 161.625 239.048 159.724L238.999 159.709L238.962 159.698C237.882 159.352 236.578 159.103 235.15 158.976C231.864 158.682 227.947 159.023 224.583 160.287C221.312 161.517 218.578 163.624 217.537 166.875C217.33 167.524 217.188 168.218 217.121 168.958C216.657 174.133 217.523 178.953 219.521 184.096C221.538 189.29 224.714 194.826 228.836 201.383H228.838ZM239.418 221.235C240.128 222.743 240.854 224.304 241.606 225.931C243.643 226.393 253.778 228.547 258.602 226.96C261.938 225.862 262.366 225.247 263.431 223.721C264.101 222.761 264.994 221.478 266.786 219.613C268.652 217.669 269.515 215.576 269.795 213.609C270.2 210.769 269.403 208.188 268.658 206.697C268.246 206.147 267.811 205.653 267.348 205.214C264.663 207.522 261.519 209.485 258.097 210.8C249.062 214.276 241.39 219.764 239.418 221.233V221.235ZM252.544 173.061C252.538 173.573 252.513 174.104 252.475 174.657C251.739 184.954 248.725 192.16 245.366 200.194C244.916 201.271 244.461 202.359 244.125 203.173C241.898 208.582 240.591 213.853 239.895 217.262C243.325 212.073 250.387 202.569 256.742 201.442C261.171 200.657 264.482 201.209 267.103 203.029C267.176 203.079 267.247 203.132 267.319 203.184C268.344 202.227 269.289 201.219 270.139 200.182C273.399 196.206 275.268 191.819 275.003 188.251C274.733 184.599 272.607 180.466 269.482 177.264C266.631 174.344 262.963 172.217 259.136 171.97C257.003 171.833 254.756 172.2 252.544 173.059V173.061ZM250.938 174.547C250.958 174.278 250.971 174.013 250.982 173.754C249.311 174.589 247.679 175.71 246.155 177.111C242.582 180.396 239.598 185.216 238.04 191.507C235.672 201.078 237.224 211.735 238.341 217.17C239.042 213.694 240.384 208.213 242.7 202.587C243.198 201.379 243.572 200.483 243.941 199.601C247.251 191.688 250.218 184.59 250.937 174.546L250.938 174.547ZM257.549 209.368C260.709 208.152 263.624 206.353 266.134 204.233C263.873 202.703 260.955 202.256 257.005 202.957C251.178 203.991 244.465 213.103 241.167 218.113C244.672 215.736 250.728 211.992 257.551 209.368H257.549ZM271.65 212.528C271.58 212.342 271.511 212.16 271.439 211.979C271.443 212.579 271.406 213.197 271.316 213.827C270.996 216.077 270.014 218.469 267.893 220.679C266.177 222.467 265.326 223.687 264.689 224.602C263.412 226.433 262.9 227.167 259.084 228.423C256.065 229.417 251.239 229.079 247.317 228.528C252.537 230.757 259.951 233.693 264.193 234.338C268.537 234.999 268.954 233.524 269.671 230.987C270.037 229.697 270.465 228.178 271.351 226.513C272.729 223.92 273.533 222.334 273.625 220.521C273.721 218.664 273.106 216.432 271.65 212.527V212.528Z" fill="#899F87"/>
<path fill-rule="evenodd" clip-rule="evenodd" d="M239.22 220.884C239.265 221.185 239.129 221.474 238.893 221.634C239.676 222.476 240.17 223.047 240.288 223.186C240.513 223.421 240.57 223.783 240.407 224.084C240.37 224.152 240.323 224.213 240.271 224.265C240.166 224.38 239.731 224.853 239.039 225.593C237.849 227.062 236.037 229.811 234.842 234.019L234.831 234.056C233.825 237.588 232.705 240.442 231.074 242.636C229.397 244.893 227.209 246.433 224.105 247.264C219.584 248.473 215.352 248.656 213.573 248.673C211.226 248.823 208.591 247.69 203.456 245.478L202.937 245.255C193.331 241.122 195.869 232.215 198.3 223.675C198.881 221.634 199.457 219.614 199.838 217.747C200.022 216.845 200.301 216.012 200.661 215.244C200.762 215.03 200.868 214.823 200.981 214.62C198.893 213.85 196.833 212.94 194.85 211.846C192.569 210.587 190.947 209.054 189.865 207.363V207.359C188.412 205.089 187.937 202.553 188.144 200.016C188.347 197.517 189.214 195.018 190.453 192.772C192.118 189.752 194.475 187.173 196.812 185.668L196.852 185.642L196.981 185.56L196.986 185.557C200.555 183.354 206.966 182.459 213.345 183.509C219.721 184.556 226.109 187.539 229.682 193.081C229.692 193.095 229.703 193.111 229.712 193.125C229.734 193.161 229.788 193.247 229.861 193.365C236.744 204.516 239.213 220.834 239.22 220.881V220.884ZM237.549 220.23C236.935 216.727 234.335 203.542 228.554 194.174L228.417 193.958L228.394 193.922C225.091 188.79 219.098 186.014 213.096 185.028C207.07 184.036 201.079 184.84 197.797 186.862L197.668 186.944L197.645 186.958C195.514 188.331 193.347 190.711 191.802 193.515C190.66 195.582 189.865 197.87 189.679 200.138C189.496 202.365 189.905 204.575 191.156 206.535C192.106 208.017 193.547 209.371 195.588 210.499C197.603 211.611 199.707 212.528 201.849 213.299C203.501 211.158 205.915 209.731 208.655 208.919C212.078 207.904 216.023 207.855 219.599 208.586C221.298 208.933 222.92 209.456 224.366 210.137C229.518 212.559 234.556 217.178 237.549 220.228V220.23ZM203.402 213.829C209.127 215.691 215.021 216.582 220.099 217.35C223.744 217.9 226.978 218.389 229.492 219.137C232.663 220.08 235.03 220.914 236.712 221.566C233.845 218.611 228.822 213.93 223.715 211.531C222.378 210.902 220.873 210.417 219.291 210.093C215.947 209.409 212.27 209.453 209.089 210.394C206.832 211.063 204.832 212.187 203.402 213.829ZM219.869 218.873C214.588 218.074 208.438 217.145 202.452 215.138C202.307 215.382 202.173 215.634 202.05 215.895C201.74 216.555 201.5 217.275 201.34 218.055C200.936 220.03 200.36 222.052 199.779 224.097C197.529 231.999 195.181 240.242 203.543 243.841L204.061 244.063C208.433 245.945 210.902 247.008 212.79 247.135C212.896 247.137 213.122 247.142 213.453 247.138C213.535 247.133 213.617 247.126 213.697 247.117C215.625 246.903 217.389 245.438 220.864 242.555V242.551L221.714 241.846C227.399 237.141 230.046 233.697 232.052 231.087C232.967 229.897 233.752 228.875 234.638 227.968C236.028 226.543 237.144 225.37 237.92 224.542C238.108 224.312 238.282 224.11 238.437 223.938C237.079 223.322 234.146 222.12 229.059 220.607C226.663 219.896 223.47 219.412 219.871 218.869L219.869 218.873ZM221.844 243.738C220.269 245.045 219.025 246.079 217.93 246.856C219.643 246.66 221.641 246.329 223.706 245.777C226.449 245.045 228.373 243.694 229.839 241.721C231.34 239.699 232.393 237 233.352 233.629L233.361 233.598C233.674 232.498 234.029 231.491 234.405 230.572C234.039 231.026 233.667 231.511 233.269 232.028C231.215 234.701 228.504 238.227 222.697 243.035L221.848 243.74L221.844 243.738Z" fill="#899F87"/>
<path fill-rule="evenodd" clip-rule="evenodd" d="M233.947 232.849C233.683 232.517 233.738 232.033 234.071 231.769C234.403 231.504 234.887 231.56 235.151 231.892C235.16 231.904 238.351 236.011 243.454 234.892C248.291 233.831 247.51 229.914 247.508 229.903C247.432 229.486 247.709 229.085 248.126 229.009C248.544 228.932 248.944 229.209 249.021 229.627C249.024 229.642 250.089 235.014 243.779 236.399C237.734 237.725 233.959 232.865 233.947 232.851V232.849Z" fill="#899F87"/>
</svg>
