<svg width="66" height="40" viewBox="0 0 66 40" fill="none" xmlns="http://www.w3.org/2000/svg">
<path fill-rule="evenodd" clip-rule="evenodd" d="M65.947 19.9966L65.9996 19.2568L66 19.2542L65.9998 19.2542L65.9996 19.2542L65.9967 19.2537L65.9827 19.2516L65.9224 19.2424C65.8681 19.2338 65.7861 19.2205 65.6785 19.2019C65.4632 19.1646 65.1455 19.1061 64.7427 19.0222C63.9366 18.8543 62.7911 18.5848 61.4423 18.1802C58.7393 17.3693 55.246 16.0232 52.0344 13.8821C48.8903 11.786 46.4907 8.34331 44.8646 5.36215C44.0565 3.88073 43.4501 2.53315 43.0461 1.55685C42.8443 1.06906 42.6934 0.674904 42.5934 0.404234C42.5435 0.268923 42.5063 0.164549 42.4818 0.0948486C42.4696 0.0599995 42.4606 0.0338268 42.4548 0.0167942L42.4485 -0.00183296L42.4471 -0.00589371L42.4469 -0.0065918C42.4469 -0.00651741 42.4469 -0.00639153 41.7354 0.23078C41.0239 0.467949 41.024 0.468149 41.0241 0.468388L41.0243 0.469051L41.025 0.471056L41.0272 0.477751L41.0354 0.501732C41.0424 0.522367 41.0527 0.552225 41.0662 0.590834C41.0933 0.668047 41.1333 0.780291 41.1863 0.923796C41.2922 1.21075 41.4502 1.62302 41.6601 2.13038C42.0797 3.1444 42.7086 4.54207 43.5477 6.08043C45.216 9.13885 47.7578 12.8338 51.2023 15.1302C54.1233 17.0775 57.2444 18.3872 59.8379 19.2466H0.00749969V20.7466H59.8379C57.2444 21.606 54.1233 22.9158 51.2023 24.8631C47.7578 27.1595 45.216 30.8544 43.5477 33.9128C42.7086 35.4512 42.0797 36.8489 41.6601 37.8629C41.4502 38.3702 41.2922 38.7825 41.1863 39.0695C41.1333 39.213 41.0933 39.3252 41.0662 39.4024C41.0527 39.441 41.0424 39.4709 41.0354 39.4915L41.0272 39.5155L41.025 39.5222L41.0243 39.5242L41.0241 39.5249C41.024 39.5251 41.0239 39.5253 41.7354 39.7625C42.4469 39.9997 42.4469 39.9998 42.4469 39.9999L42.4471 39.9992L42.4485 39.9951L42.4548 39.9765C42.4606 39.9594 42.4696 39.9333 42.4818 39.8984C42.5063 39.8287 42.5435 39.7243 42.5934 39.589C42.6934 39.3184 42.8443 38.9242 43.0461 38.4364C43.4501 37.4601 44.0565 36.1125 44.8646 34.6311C46.4907 31.65 48.8903 28.2073 52.0344 26.1112C55.246 23.9701 58.7393 22.624 61.4423 21.8131C62.7911 21.4085 63.9366 21.139 64.7427 20.9711C65.1455 20.8871 65.4632 20.8287 65.6785 20.7914C65.7861 20.7728 65.8681 20.7595 65.9224 20.7509L65.9827 20.7416L65.9967 20.7395L65.9996 20.7391L65.9998 20.7391L66 20.7391L65.9996 20.7365L65.947 19.9966Z" fill="#F2F6EF"/>
</svg>
