<svg width="75" height="74" viewBox="0 0 75 74" fill="none" xmlns="http://www.w3.org/2000/svg">
<path d="M55.6181 17.5563C50.7136 13.3284 44.2013 11 37.2803 11C30.3593 11 23.8469 13.3284 18.9425 17.5563C14.0014 21.8158 11.2803 27.4899 11.2803 33.5333C11.2803 40.1794 14.6291 46.433 20.474 50.727C20.7931 51.3896 21.1437 52.0417 21.526 52.6832L19.5593 53.6665C19.4154 53.7385 19.2943 53.8492 19.2097 53.9861C19.1251 54.123 19.0803 54.2807 19.0803 54.4417C19.0803 54.6026 19.1251 54.7604 19.2097 54.8973C19.2943 55.0342 19.4154 55.1448 19.5593 55.2168L21.9924 56.4334C22.4949 56.6859 22.9027 57.0936 23.1552 57.5961L24.3718 60.0293C24.4438 60.1732 24.5544 60.2943 24.6913 60.3789C24.8283 60.4635 24.986 60.5083 25.1469 60.5083C25.3079 60.5083 25.4656 60.4635 25.6025 60.3789C25.7394 60.2943 25.8501 60.1732 25.9221 60.0293L26.5843 58.7048C29.8594 61.4824 33.6186 63 37.2803 63H49.4136C49.5434 63 49.6714 62.9709 49.7884 62.9147C49.9054 62.8586 50.0083 62.777 50.0895 62.6758L57.7127 53.1774C58.5066 52.3696 58.9501 51.2814 58.9469 50.1487V45.995C61.7822 42.2991 63.2803 37.9967 63.2803 33.5333C63.2803 27.4899 60.5592 21.8158 55.6181 17.5563ZM13.0136 33.5333C13.0136 22.0642 23.8996 12.7333 37.2803 12.7333C40.211 12.7281 43.1239 13.1874 45.9109 14.094C45.6869 15.7423 44.4368 18.2604 42.6585 20.5875C40.7018 23.1468 38.5405 24.8667 37.2803 24.8667C32.0232 24.8667 27.26 26.3659 23.8686 29.0881C20.169 32.0574 18.2136 36.2917 18.2136 41.3333C18.2268 43.3762 18.5429 45.4058 19.1516 47.3559C15.2179 43.5698 13.0136 38.6734 13.0136 33.5333ZM53.0807 37.992C52.7443 38.3229 52.4768 38.7171 52.2937 39.1519C52.1105 39.5867 52.0153 40.0535 52.0136 40.5253V48.836L50.4798 50.8076C50.2615 50.2811 49.9167 49.8166 49.476 49.4552C49.0354 49.0937 48.5123 48.8465 47.9533 48.7354C47.3943 48.6243 46.8165 48.6528 46.2711 48.8182C45.7257 48.9837 45.2295 49.2811 44.8265 49.6841C44.7892 49.7212 44.7555 49.7618 44.7257 49.8051L36.8318 61.2569C33.6208 61.1333 30.3209 59.6892 27.4293 57.1448C27.6649 56.8472 27.9626 56.6044 28.3015 56.4334L30.7346 55.2168C30.8785 55.1448 30.9995 55.0342 31.0841 54.8973C31.1687 54.7604 31.2135 54.6026 31.2135 54.4417C31.2135 54.2807 31.1687 54.123 31.0841 53.9861C30.9995 53.8492 30.8785 53.7385 30.7346 53.6665L28.3015 52.45C27.799 52.1974 27.3912 51.7897 27.1386 51.2872L25.9221 48.854C25.8501 48.7101 25.7394 48.5891 25.6025 48.5045C25.4656 48.4199 25.3079 48.3751 25.1469 48.3751C24.986 48.3751 24.8283 48.4199 24.6913 48.5045C24.5544 48.5891 24.4438 48.7101 24.3718 48.854L23.1552 51.2871C23.0909 51.4154 23.0159 51.5381 22.9311 51.6539C21.0015 48.3693 19.9469 44.7408 19.9469 41.3333C19.9469 36.8357 21.6781 33.0687 24.9535 30.4399C28.0384 27.9637 32.4161 26.6 37.2803 26.6C41.5723 26.6 45.4246 27.631 48.4203 29.5814C51.2872 31.4481 53.2383 34.1037 54.1003 37.2948C53.7217 37.4646 53.3764 37.7008 53.0807 37.992ZM25.1469 57.7037L24.7056 56.8209C24.2847 55.9834 23.6051 55.3039 22.7676 54.883L21.8849 54.4417L22.7676 54.0003C23.6051 53.5794 24.2847 52.8998 24.7056 52.0623L25.1469 51.1796L25.5883 52.0625C26.0092 52.8999 26.6888 53.5794 27.5263 54.0003L28.409 54.4417L27.5263 54.883C26.6888 55.3039 26.0092 55.9835 25.5883 56.821L25.1469 57.7037ZM57.2136 50.1487C57.2146 50.4903 57.1478 50.8287 57.017 51.1442C56.8863 51.4598 56.6943 51.7463 56.4521 51.9872C56.4298 52.0094 56.4087 52.0329 56.389 52.0576L48.9979 61.2667H38.9303L46.1034 50.8609C46.4367 50.5523 46.8779 50.3869 47.332 50.4003C47.7861 50.4137 48.2168 50.6048 48.5314 50.9325C48.846 51.2603 49.0194 51.6984 49.0142 52.1527C49.009 52.607 48.8256 53.041 48.5036 53.3615C48.4715 53.3936 48.442 53.4282 48.4153 53.4649L46.1127 56.6342C45.9828 56.8204 45.9312 57.0501 45.9689 57.2739C46.0066 57.4978 46.1306 57.6979 46.3143 57.8313C46.4979 57.9647 46.7266 58.0207 46.9511 57.9873C47.1757 57.9538 47.3781 57.8337 47.515 57.6526L49.7803 54.5346C49.9502 54.3573 50.1008 54.1623 50.2294 53.9531L53.5645 49.6649V49.6638C53.6828 49.5123 53.747 49.3256 53.7469 49.1333V40.5253C53.7481 40.2838 53.7971 40.0449 53.8911 39.8225C53.9851 39.6001 54.1222 39.3984 54.2946 39.2293C54.4543 39.0693 54.6446 38.9429 54.8541 38.8578C55.0635 38.7726 55.288 38.7303 55.5141 38.7333C55.9672 38.7443 56.3982 38.9315 56.7156 39.2551C57.0329 39.5788 57.2116 40.0134 57.2136 40.4667V50.1487ZM55.8202 37.0178C54.8719 33.3313 52.6517 30.2686 49.3662 28.1289C46.9278 26.5414 43.9905 25.511 40.7408 25.0871C42.1662 23.9633 43.3897 22.4844 44.0354 21.6395C46.1904 18.8205 47.2322 16.3708 47.5608 14.6954C55.8161 18.0183 61.5469 25.2124 61.5469 33.5333C61.5396 36.8346 60.6413 40.0728 58.9469 42.9061V40.4667C58.9425 39.6075 58.6208 38.7802 58.0438 38.1437C57.4667 37.5072 56.6748 37.1062 55.8202 37.0178Z" fill="#617C5F"/>
<path d="M31.2137 41.3333C31.4436 41.3333 31.664 41.242 31.8265 41.0795C31.9891 40.9169 32.0804 40.6965 32.0804 40.4666C32.0804 39.7771 31.8064 39.1158 31.3188 38.6282C30.8313 38.1406 30.1699 37.8666 29.4804 37.8666C28.7908 37.8666 28.1295 38.1406 27.6419 38.6282C27.1543 39.1158 26.8804 39.7771 26.8804 40.4666C26.8804 40.6965 26.9717 40.9169 27.1342 41.0795C27.2967 41.242 27.5172 41.3333 27.747 41.3333C27.9769 41.3333 28.1973 41.242 28.3599 41.0795C28.5224 40.9169 28.6137 40.6965 28.6137 40.4666C28.6137 40.2368 28.705 40.0163 28.8675 39.8538C29.0301 39.6913 29.2505 39.6 29.4804 39.6C29.7102 39.6 29.9307 39.6913 30.0932 39.8538C30.2557 40.0163 30.347 40.2368 30.347 40.4666C30.347 40.6965 30.4383 40.9169 30.6009 41.0795C30.7634 41.242 30.9839 41.3333 31.2137 41.3333Z" fill="#617C5F"/>
<path d="M45.0802 37.8666C44.3909 37.8674 43.73 38.1416 43.2426 38.629C42.7552 39.1164 42.481 39.7773 42.4802 40.4666C42.4802 40.6965 42.5715 40.9169 42.7341 41.0795C42.8966 41.242 43.117 41.3333 43.3469 41.3333C43.5767 41.3333 43.7972 41.242 43.9597 41.0795C44.1222 40.9169 44.2136 40.6965 44.2136 40.4666C44.2136 40.2368 44.3049 40.0163 44.4674 39.8538C44.6299 39.6913 44.8504 39.6 45.0802 39.6C45.3101 39.6 45.5305 39.6913 45.6931 39.8538C45.8556 40.0163 45.9469 40.2368 45.9469 40.4666C45.9469 40.6965 46.0382 40.9169 46.2007 41.0795C46.3633 41.242 46.5837 41.3333 46.8136 41.3333C47.0434 41.3333 47.2639 41.242 47.4264 41.0795C47.5889 40.9169 47.6802 40.6965 47.6802 40.4666C47.6795 39.7773 47.4053 39.1164 46.9178 38.629C46.4304 38.1416 45.7695 37.8674 45.0802 37.8666Z" fill="#617C5F"/>
<path d="M43.6943 46.606C43.4838 46.5139 43.2452 46.5092 43.0311 46.5929C42.8171 46.6766 42.6451 46.842 42.5529 47.0526C42.54 47.082 41.2179 50 37.2802 50C33.3946 50 32.0662 47.1815 32.0058 47.0487C31.9123 46.8397 31.7398 46.6763 31.5261 46.594C31.3125 46.5118 31.0749 46.5174 30.8654 46.6097C30.6559 46.702 30.4914 46.8734 30.4079 47.0866C30.3244 47.2998 30.3286 47.5373 30.4196 47.7474C30.4908 47.9101 32.2216 51.7333 37.2802 51.7333C42.3389 51.7333 44.0697 47.9101 44.1409 47.7474C44.233 47.5368 44.2377 47.2983 44.154 47.0842C44.0702 46.8702 43.9049 46.6982 43.6943 46.606Z" fill="#617C5F"/>
<path d="M35.5468 44.8H39.0135C39.2434 44.8 39.4638 44.7087 39.6263 44.5461C39.7889 44.3836 39.8802 44.1632 39.8802 43.9333C39.8802 43.7035 39.7889 43.483 39.6263 43.3205C39.4638 43.158 39.2434 43.0666 39.0135 43.0666H36.4135V40.4666C36.4135 40.2368 36.3222 40.0163 36.1597 39.8538C35.9971 39.6913 35.7767 39.6 35.5468 39.6C35.317 39.6 35.0965 39.6913 34.934 39.8538C34.7715 40.0163 34.6802 40.2368 34.6802 40.4666V43.9333C34.6802 44.1632 34.7715 44.3836 34.934 44.5461C35.0965 44.7087 35.317 44.8 35.5468 44.8Z" fill="#617C5F"/>
</svg>
