<svg width="74" height="74" viewBox="0 0 74 74" fill="none" xmlns="http://www.w3.org/2000/svg">
<path d="M14.6303 19.843L13.9428 23.7446C13.8861 24.0662 14.018 24.3919 14.2833 24.5852C14.5486 24.7786 14.9013 24.8062 15.1939 24.6564L18.8137 22.8043L22.4336 24.6564C22.5588 24.7205 22.6951 24.7521 22.8308 24.7521C23.0122 24.7521 23.1925 24.6958 23.3441 24.5852C23.6094 24.3919 23.7414 24.0662 23.6847 23.7446L22.9971 19.843L25.9128 17.0769C26.1526 16.8495 26.2403 16.5062 26.1389 16.193C26.0374 15.8797 25.7645 15.6514 25.4361 15.6049L21.3931 15.0331L19.588 11.4734C19.4408 11.1832 19.1413 11.0001 18.8137 11.0001C18.4862 11.0001 18.1866 11.1832 18.0395 11.4734L16.2343 15.0331L12.1914 15.6049C11.8629 15.6514 11.59 15.8797 11.4886 16.193C11.3871 16.5062 11.4749 16.8495 11.7146 17.0769L14.6303 19.843ZM16.9274 16.6715C17.2084 16.6318 17.4519 16.4582 17.5793 16.2068L18.8137 13.7726L20.0481 16.2068C20.1755 16.4582 20.419 16.6318 20.7 16.6715L23.4262 17.057L21.4646 18.918C21.2557 19.1161 21.1602 19.4046 21.21 19.687L21.6766 22.3348L19.2111 21.0733C19.0864 21.0095 18.9501 20.9776 18.8137 20.9776C18.6773 20.9776 18.541 21.0095 18.4163 21.0733L15.9508 22.3348L16.4174 19.687C16.4672 19.4046 16.3717 19.1161 16.1628 18.918L14.2012 17.057L16.9274 16.6715Z" fill="#617C5F"/>
<path d="M31.0969 19.843L30.4094 23.7446C30.3526 24.0662 30.4846 24.3919 30.7499 24.5852C31.0151 24.7786 31.368 24.8062 31.6604 24.6564L35.2803 22.8043L38.9001 24.6564C39.0254 24.7205 39.1617 24.7521 39.2974 24.7521C39.4787 24.7521 39.6591 24.6958 39.8107 24.5852C40.076 24.3919 40.2079 24.0662 40.1512 23.7446L39.4637 19.843L42.3794 17.0769C42.6191 16.8495 42.7069 16.5062 42.6054 16.193C42.504 15.8797 42.2311 15.6514 41.9026 15.6049L37.8597 15.0331L36.0545 11.4734C35.9074 11.1832 35.6078 11.0001 35.2803 11.0001C34.9528 11.0001 34.6532 11.1832 34.506 11.4734L32.7009 15.0331L28.6579 15.6049C28.3295 15.6514 28.0566 15.8797 27.9551 16.193C27.8537 16.5062 27.9414 16.8495 28.1812 17.0769L31.0969 19.843ZM33.394 16.6715C33.6749 16.6318 33.9184 16.4582 34.0459 16.2068L35.2803 13.7726L36.5146 16.2068C36.6421 16.4582 36.8856 16.6318 37.1665 16.6715L39.8927 17.057L37.9312 18.9179C37.7223 19.1161 37.6268 19.4046 37.6766 19.687L38.1432 22.3348L35.6776 21.0733C35.553 21.0095 35.4166 20.9776 35.2803 20.9776C35.1439 20.9776 35.0075 21.0095 34.8829 21.0733L32.4174 22.3348L32.884 19.687C32.9338 19.4046 32.8383 19.1161 32.6293 18.9179L30.6678 17.057L33.394 16.6715Z" fill="#617C5F"/>
<path d="M51.6601 55.3738C51.2423 55.1423 50.7143 55.2904 50.4808 55.7049L47.3386 61.2812H33.1137C32.6351 61.2812 32.2471 61.6659 32.2471 62.1407C32.2471 62.6154 32.6351 63.0002 33.1137 63.0002H47.8471C48.161 63.0002 48.4505 62.8318 48.6036 62.5599L51.9938 56.5434C52.2273 56.1291 52.0779 55.6054 51.6601 55.3738Z" fill="#617C5F"/>
<path d="M23.5803 26.9008C19.5183 26.9008 16.2136 30.1781 16.2136 34.2065C16.2136 38.235 19.5183 41.5123 23.5803 41.5123C27.6423 41.5123 30.947 38.235 30.947 34.2065C30.947 30.1781 27.6423 26.9008 23.5803 26.9008ZM23.5803 39.7933C20.4741 39.7933 17.947 37.2871 17.947 34.2065C17.947 31.126 20.4741 28.6198 23.5803 28.6198C26.6865 28.6198 29.2136 31.126 29.2136 34.2065C29.2136 37.2871 26.6865 39.7933 23.5803 39.7933Z" fill="#617C5F"/>
<path d="M28.347 55.2645H17.947C17.4684 55.2645 17.0804 55.6493 17.0804 56.124C17.0804 56.5987 17.4684 56.9835 17.947 56.9835H28.347C29.5417 56.9835 30.5137 57.9475 30.5137 59.1323C30.5137 60.3171 29.5417 61.281 28.347 61.281H15.347C14.1523 61.281 13.1804 60.3171 13.1804 59.1323V47.0992C13.1804 45.9144 14.1523 44.9505 15.347 44.9505H32.6803C33.159 44.9505 33.547 44.5657 33.547 44.0909C33.547 43.6162 33.159 43.2314 32.6803 43.2314H15.347C13.1965 43.2314 11.447 44.9665 11.447 47.0992V59.1323C11.447 61.265 13.1965 63 15.347 63H28.347C30.4975 63 32.247 61.265 32.247 59.1323C32.247 56.9996 30.4975 55.2645 28.347 55.2645Z" fill="#617C5F"/>
<path d="M50.8803 32.0579C54.9423 32.0579 58.247 28.7805 58.247 24.7521C58.247 20.7237 54.9423 17.4464 50.8803 17.4464C46.8184 17.4464 43.5137 20.7237 43.5137 24.7521C43.5137 28.7805 46.8184 32.0579 50.8803 32.0579ZM50.8803 19.1654C53.9866 19.1654 56.5137 21.6716 56.5137 24.7522C56.5137 27.8327 53.9866 30.3389 50.8803 30.3389C47.7741 30.3389 45.247 27.8327 45.247 24.7522C45.247 21.6716 47.7741 19.1654 50.8803 19.1654Z" fill="#617C5F"/>
<path d="M59.547 33.777H41.7804C39.6299 33.777 37.8804 35.5121 37.8804 37.6448V44.0911C37.8804 44.5658 38.2683 44.9506 38.747 44.9506C39.2257 44.9506 39.6137 44.5658 39.6137 44.0911V37.6448C39.6137 36.46 40.5857 35.496 41.7804 35.496H59.547C60.7417 35.496 61.7137 36.46 61.7137 37.6448V50.5374C61.7137 51.7222 60.7417 52.6861 59.547 52.6861H47.847C46.6523 52.6861 45.6803 51.7222 45.6803 50.5374C45.6803 49.3526 46.6523 48.3886 47.847 48.3886H56.0803C56.559 48.3886 56.947 48.0038 56.947 47.5291V41.5126C56.947 41.0379 56.559 40.6531 56.0803 40.6531C55.6017 40.6531 55.2137 41.0379 55.2137 41.5126V46.6696H34.4137C34.1096 46.6696 33.8277 46.8277 33.6709 47.0862L29.7623 53.5325C29.5156 53.9392 29.6482 54.4674 30.0584 54.712C30.1982 54.7953 30.3521 54.835 30.5041 54.835C30.7982 54.835 31.0851 54.6865 31.2477 54.4183L34.9038 48.3886H44.6059C44.1899 49.0036 43.947 49.7428 43.947 50.5374C43.947 52.6701 45.6965 54.4051 47.847 54.4051H57.8137V62.1407C57.8137 62.6154 58.2017 63.0002 58.6803 63.0002C59.159 63.0002 59.547 62.6154 59.547 62.1407V54.4051C61.6975 54.4051 63.447 52.6701 63.447 50.5374V37.6448C63.447 35.5121 61.6975 33.777 59.547 33.777Z" fill="#617C5F"/>
</svg>
