<svg width="236" height="58" viewBox="0 0 236 58" fill="none" xmlns="http://www.w3.org/2000/svg">
<path fill-rule="evenodd" clip-rule="evenodd" d="M143.777 16.523C140.057 16.523 137.072 17.5149 133.972 19.0026C133.995 10.3691 134.11 2.84015 134.317 0L116.245 3.42626V5.02679L118.013 5.25228C120.539 5.59052 121.504 7.03311 121.802 10.3468C122.376 16.6809 122.284 50.6289 121.802 56.0614C126.67 57.1434 131.929 57.955 137.21 57.955C151.538 57.955 160.172 49.2539 160.172 35.4807C160.172 24.4576 153.169 16.523 143.777 16.523ZM137.486 55.1596C136.452 55.1596 135.143 55.0019 134.409 54.8665C134.133 51.057 133.949 35.3453 133.972 21.6173C135.625 21.0762 136.751 20.9411 138.197 20.9411C144.122 20.9411 147.474 27.6585 147.474 36.1569C147.474 46.9545 143.364 55.1596 137.486 55.1596ZM48.3223 16.9513L45.4978 17.7177C43.041 9.64763 39.1143 5.09435 31.8122 5.09435H22.4438C22.0074 10.234 21.8467 18.7997 21.8927 27.7037L28.2074 27.5009C32.4095 27.3656 34.1546 24.3 35.165 19.7691H37.5301V38.6363H35.165C34.1546 34.1054 32.3866 31.0623 28.2074 30.9045L21.9157 30.7017C21.9845 37.4642 22.1682 43.2349 22.4667 46.6612C22.903 51.6881 24.2808 53.8971 27.9087 54.4155L31.1235 54.7538V57.0079H0.560547V54.7538L3.0865 54.4155C6.71464 53.897 8.09239 51.688 8.52856 46.6612C9.21736 38.3883 9.33221 21.1663 8.52856 11.5636C8.09225 6.53665 6.71449 4.32765 3.0865 3.80925L0.560547 3.47115V1.21696H48.0698L48.3223 16.9513ZM63.5235 16.0721C77.0255 16.0721 83.7303 25.0662 83.7303 36.9007C83.7303 48.4645 76.1527 57.9547 62.6507 57.9547C49.1487 57.9547 42.4208 48.9606 42.4208 37.1261C42.4208 25.5623 49.9987 16.0721 63.5235 16.0721ZM62.8116 18.642C56.8415 18.642 55.1652 26.5767 55.1652 37.0135C55.1652 47.1799 57.806 55.385 63.3398 55.385C69.3099 55.385 70.9862 47.4504 70.9862 37.0135C70.9862 26.8471 68.3457 18.642 62.8116 18.642ZM163.479 37.3967C163.456 26.4188 170.528 16.1172 184.444 16.1172C195.764 16.1172 201.183 24.3675 201.229 35.1425H175.97C175.695 44.9255 180.747 52.1166 190.391 52.1166C194.639 52.1166 196.935 51.0798 199.507 49.1635L200.701 50.5612C197.9 54.3708 192.044 58 184.283 58C172.09 57.9773 163.502 49.5016 163.479 37.3967ZM176.062 32.3474L188.737 32.077C188.806 26.5767 187.911 18.7096 183.341 18.7096C178.749 18.7096 176.177 26.1484 176.062 32.3474ZM233.698 28.4251L231.632 28.9661C229.427 21.9557 226.075 18.9801 221.184 18.9801C217.923 18.9801 215.558 21.392 215.558 24.8861C215.558 28.3577 218.199 30.1834 225.845 33.0913C232.895 35.7738 235.696 38.8619 235.696 44.4748C235.696 52.8603 229.152 57.9999 218.405 57.9999C213.239 57.9999 207.498 56.8728 204.145 55.5428L203.778 43.9563L205.845 43.4154C208.807 51.5303 212.665 54.4834 217.739 54.4834C222.056 54.4834 224.467 51.4628 224.467 48.2393C224.467 45.106 222.653 43.2351 215.764 40.8006C209.358 38.5464 204.72 35.7963 204.72 28.7633C204.72 21.9332 210.873 16.0948 221.046 16.0948C225.776 16.0948 230.254 16.9064 233.262 18.2588L233.698 28.4251ZM114.569 28.1095C109.104 24.5028 103.202 26.0808 101.985 28.0419C101.572 34.534 101.664 44.4748 102.123 49.4791C102.422 52.7928 103.386 54.2354 105.912 54.5736L109.173 54.7991V57.0533H84.0979V54.7991L85.866 54.5736C88.3919 54.2354 89.3563 52.7928 89.6548 49.4791C90.137 44.0464 90.2288 32.7305 89.6548 26.3964C89.3563 23.0827 88.3919 21.6401 85.866 21.3019L84.0979 21.0764V19.4759L102.101 16.0495L101.894 25.2917C106.096 15.7791 114.409 14.5393 118.978 17.1993L114.569 28.1095Z" fill="#C8D8C0"/>
</svg>
