<svg width="75" height="74" viewBox="0 0 75 74" fill="none" xmlns="http://www.w3.org/2000/svg">
<path d="M64.7147 44.2079C63.8873 44.1351 63.0572 44.3142 62.3333 44.7218V25.6946C63.4686 25.6946 64.3889 24.7743 64.3889 23.6391V18.5002C64.3889 16.7974 63.0084 15.4169 61.3056 15.4169H51.7874C53.1795 13.7294 53.473 11.3901 52.5409 9.41103C51.6088 7.43193 49.6184 6.16838 47.4308 6.16693H46.4031C44.56 6.16814 42.8334 7.06904 41.7781 8.5801C40.7228 7.06892 38.9963 6.16814 37.1532 6.16693H36.1254C33.9378 6.16838 31.9474 7.43193 31.0153 9.41103C30.0832 11.3901 30.3766 13.7294 31.7688 15.4169H22.2506C20.5478 15.4169 19.1673 16.7974 19.1673 18.5002V23.6391C19.1673 24.7743 20.0876 25.6946 21.2229 25.6946V52.1875C18.7298 53.8262 16.4189 55.7268 14.3297 57.8567C12.3376 59.8475 7.27058 63.9071 7.21927 63.9472C6.77592 64.3019 6.70414 64.9489 7.05896 65.3923C7.41378 65.8356 8.06068 65.9074 8.50402 65.5526C8.71576 65.383 13.7107 61.3819 15.7827 59.3099C23.8045 51.2861 29.7532 50.3611 33.5303 50.3611C34.9561 50.3528 36.3391 50.8478 37.4358 51.7589C37.974 52.1916 38.6457 52.4242 39.3362 52.4166H49.8051C50.9428 52.3854 51.9119 53.2372 52.0271 54.3693C52.0553 54.932 51.8513 55.4817 51.4626 55.8896C51.0741 56.2977 50.535 56.5282 49.9715 56.5276H38.666C38.0984 56.5276 37.6383 56.9878 37.6383 57.5554C37.6383 58.1229 38.0984 58.5831 38.666 58.5831H49.9715C51.0986 58.5832 52.1763 58.1205 52.9526 57.3033C53.7288 56.4861 54.1354 55.386 54.0774 54.2603C54.0774 54.246 54.0713 54.2326 54.0702 54.2182L63.0118 46.7298C63.4332 46.3768 63.9778 46.2059 64.5254 46.2549C65.0729 46.3039 65.5785 46.5687 65.9307 46.9909C66.6062 47.8129 66.5594 49.0105 65.8217 49.7772L52.9982 62.8299C52.4717 63.3718 51.7573 63.6911 51.0023 63.722H32.4345C30.9905 63.7213 29.5599 63.9983 28.2206 64.538L24.9534 65.8515C24.4265 66.0632 24.1712 66.6618 24.3829 67.1887C24.5947 67.7155 25.1933 67.9708 25.7201 67.7591L28.9873 66.4446C30.0831 66.0037 31.2533 65.7773 32.4345 65.7776H51.0371C52.3333 65.7399 53.5648 65.2027 54.4739 64.2781L67.2953 51.2171C68.4133 50.0769 68.7743 48.3944 68.2226 46.8959C67.6708 45.3974 66.3052 44.351 64.7147 44.2079ZM62.3334 18.5003V23.6392H47.9446V17.4726H61.3056C61.8732 17.4724 62.3334 17.9327 62.3334 18.5003ZM43.8336 50.3611H39.7224V25.6946H43.8335L43.8336 50.3611ZM44.8613 23.6391H37.667V17.4724H45.8892V23.6391H44.8613ZM46.403 8.22251H47.4307C49.4174 8.22251 51.0279 9.83306 51.0279 11.8197C51.0279 13.8064 49.4174 15.417 47.4307 15.417H42.8057V11.8197C42.8057 9.83306 44.4163 8.22251 46.403 8.22251ZM32.5281 11.8197C32.5281 9.83306 34.1386 8.22251 36.1253 8.22251H37.153C39.1397 8.22251 40.7503 9.83306 40.7503 11.8197V15.417H36.1253C34.1386 15.417 32.5281 13.8064 32.5281 11.8197ZM21.2226 18.5003C21.2226 17.9327 21.6828 17.4726 22.2503 17.4726H35.6113V23.6392H21.2226V18.5003ZM33.5301 48.3055C29.9407 48.2971 26.4097 49.2143 23.2781 50.9685V25.6946H37.667V49.4289C36.4118 48.6948 34.9842 48.3071 33.5301 48.3055ZM49.8048 50.3611H45.889V25.6946H60.2779V46.3435L53.3363 52.1556C52.5192 51.0208 51.2032 50.352 49.8048 50.3611Z" fill="#617C5F"/>
<path d="M66.9018 10.451L63.8184 12.5066C63.3462 12.8217 63.2187 13.4599 63.5337 13.9322C63.8488 14.4044 64.487 14.5319 64.9593 14.2169L68.0426 12.1613C68.348 11.9575 68.5217 11.6062 68.498 11.2398C68.4743 10.8733 68.2569 10.5474 67.9276 10.3847C67.5983 10.2218 67.2073 10.2472 66.9018 10.451Z" fill="#617C5F"/>
<path d="M61.3053 12.3332C61.7763 12.3327 62.1867 12.0121 62.3012 11.5551L63.3289 7.44403C63.4466 6.90179 63.1126 6.36413 62.5744 6.22924C62.0362 6.09434 61.4881 6.41099 61.3361 6.94455L60.3084 11.0556C60.2421 11.3201 60.2838 11.6002 60.4241 11.8341C60.5644 12.0678 60.7919 12.2363 61.0565 12.3023C61.1378 12.3231 61.2214 12.3334 61.3053 12.3332Z" fill="#617C5F"/>
<path d="M15.2285 10.7359C15.0772 10.9627 15.0222 11.2403 15.0755 11.5076C15.1289 11.775 15.2863 12.0101 15.5132 12.1613L18.5966 14.2169C19.0688 14.532 19.7071 14.4045 20.0221 13.9322C20.3372 13.46 20.2097 12.8217 19.7374 12.5066L16.6541 10.451C16.4273 10.2998 16.1497 10.2447 15.8823 10.2981C15.6149 10.3517 15.3798 10.5091 15.2285 10.7359Z" fill="#617C5F"/>
<path d="M20.9735 6.19785C20.7089 6.26386 20.4814 6.43236 20.3411 6.66614C20.2008 6.89992 20.1591 7.17995 20.2254 7.44456L21.2531 11.5556C21.3676 12.013 21.7786 12.3337 22.25 12.3337C22.3342 12.3341 22.4181 12.3237 22.4998 12.3029C22.7644 12.2369 22.9919 12.0684 23.1322 11.8346C23.2726 11.6008 23.3142 11.3208 23.248 11.0562L22.2202 6.94508C22.0823 6.39442 21.5242 6.05995 20.9735 6.19785Z" fill="#617C5F"/>
</svg>
