<svg width="33" height="32" viewBox="0 0 33 32" fill="none" xmlns="http://www.w3.org/2000/svg">
<path d="M16.5 10.25C15.3628 10.25 14.2511 10.5872 13.3055 11.219C12.3599 11.8509 11.6229 12.7489 11.1877 13.7996C10.7525 14.8502 10.6386 16.0064 10.8605 17.1218C11.0824 18.2372 11.63 19.2617 12.4341 20.0659C13.2383 20.87 14.2628 21.4177 15.3782 21.6395C16.4936 21.8614 17.6498 21.7475 18.7004 21.3123C19.7511 20.8771 20.6491 20.1401 21.281 19.1945C21.9128 18.2489 22.25 17.1372 22.25 16C22.25 14.475 21.6442 13.0125 20.5659 11.9341C19.4875 10.8558 18.025 10.25 16.5 10.25ZM16.5 20.25C15.6594 20.25 14.8377 20.0007 14.1388 19.5337C13.4399 19.0668 12.8952 18.403 12.5735 17.6264C12.2518 16.8498 12.1677 15.9953 12.3317 15.1709C12.4956 14.3464 12.9004 13.5892 13.4948 12.9948C14.0892 12.4004 14.8464 11.9956 15.6709 11.8317C16.4953 11.6677 17.3498 11.7518 18.1264 12.0735C18.903 12.3952 19.5668 12.9399 20.0337 13.6388C20.5007 14.3377 20.75 15.1594 20.75 16C20.7467 17.1262 20.2979 18.2052 19.5016 19.0016C18.7052 19.7979 17.6262 20.2467 16.5 20.25ZM22 3.75H11C9.20979 3.75 7.4929 4.46116 6.22703 5.72703C4.96116 6.9929 4.25 8.70979 4.25 10.5V21.5C4.25 23.2902 4.96116 25.0071 6.22703 26.273C7.4929 27.5388 9.20979 28.25 11 28.25H22C23.7902 28.25 25.5071 27.5388 26.773 26.273C28.0388 25.0071 28.75 23.2902 28.75 21.5V10.5C28.75 8.70979 28.0388 6.9929 26.773 5.72703C25.5071 4.46116 23.7902 3.75 22 3.75ZM27.25 21.5C27.25 22.8924 26.6969 24.2277 25.7123 25.2123C24.7277 26.1969 23.3924 26.75 22 26.75H11C9.60761 26.75 8.27225 26.1969 7.28769 25.2123C6.30312 24.2277 5.75 22.8924 5.75 21.5V10.5C5.75 9.10761 6.30312 7.77225 7.28769 6.78769C8.27225 5.80312 9.60761 5.25 11 5.25H22C23.3924 5.25 24.7277 5.80312 25.7123 6.78769C26.6969 7.77225 27.25 9.10761 27.25 10.5V21.5ZM24.25 9.5C24.25 9.74723 24.1767 9.9889 24.0393 10.1945C23.902 10.4 23.7068 10.5602 23.4784 10.6548C23.2499 10.7495 22.9986 10.7742 22.7561 10.726C22.5137 10.6778 22.2909 10.5587 22.1161 10.3839C21.9413 10.2091 21.8223 9.98634 21.774 9.74386C21.7258 9.50139 21.7505 9.25005 21.8451 9.02165C21.9398 8.79324 22.1 8.59801 22.3055 8.46066C22.5111 8.32331 22.7528 8.25 23 8.25C23.3315 8.25 23.6495 8.3817 23.8839 8.61612C24.1183 8.85054 24.25 9.16848 24.25 9.5Z" fill="#213721"/>
</svg>
