<svg width="141" height="44" viewBox="0 0 141 44" fill="none" xmlns="http://www.w3.org/2000/svg">
<path d="M130.882 12.6951V21.6439C130.882 22.6967 132.033 22.8612 133.152 22.8612V23.0586H125.881V22.8612C127 22.8612 128.151 22.6967 128.151 21.6439V13.4189L121.538 1.47622C120.847 0.291824 120.288 0.226025 119.169 0.226025V0.0615234H126.473V0.226025C125.355 0.226025 124.072 0.357624 124.631 1.41042L130.322 11.7081H130.355L130.684 12.3332L136.409 1.47622C137.034 0.390525 136.146 0.226025 135.027 0.226025V0.0615234H140.357V0.226025C139.205 0.226025 137.429 0.423425 136.804 1.47622L130.882 12.6951Z" fill="#F2F6EF"/>
<path d="M100.31 5.58891L101.79 0.0288086H115.707L117.187 5.58891L117.023 5.62181L115.773 1.47641C115.444 0.55521 114.819 0.39071 113.766 0.39071H112.318C111.233 0.39071 110.114 0.39071 110.114 1.44351V21.6441C110.114 22.6969 111.265 22.8614 112.384 22.8614V23.0588H105.08V22.8614C106.232 22.8614 107.383 22.6969 107.383 21.6441V1.44351C107.383 0.39071 106.265 0.39071 105.146 0.39071H103.731C102.679 0.39071 102.021 0.55521 101.725 1.47641L100.474 5.62181L100.31 5.58891Z" fill="#F2F6EF"/>
<path d="M93.6322 12.2674H93.4677C93.4677 8.68132 92.5466 8.12202 91.3951 8.12202H90.4739C89.4869 8.12202 88.4341 8.25362 87.4471 8.51682V21.6439C87.4471 22.6967 88.5657 22.6967 89.6843 22.6967H94.9153C95.9681 22.6967 96.6261 22.5651 96.9222 21.611L98.1724 17.4656L98.3369 17.4985L96.8564 23.0586H82.4463V22.8941C83.5649 22.8941 84.7164 22.6967 84.7164 21.6439V9.79992C83.4662 10.7211 82.6108 12.07 82.6108 13.9124H82.4463C82.4463 11.9055 83.3675 10.425 84.7164 9.43802V1.47622C84.7164 0.390525 83.5649 0.226025 82.4463 0.226025V0.0615234H96.8564L98.3369 5.58872L98.1724 5.65452L96.9222 1.47622C96.6261 0.555025 95.9681 0.390525 94.9153 0.390525H89.6843C88.5657 0.390525 87.4471 0.390525 87.4471 1.47622V8.18782C88.4341 7.92462 89.4869 7.79303 90.4739 7.79303H91.3951C92.5466 7.79303 93.4677 7.56272 93.4677 5.42422H93.6322V12.2674Z" fill="#F2F6EF"/>
<path d="M66.7128 0.0615234V0.226025C65.7587 0.226025 64.7388 0.357624 64.673 1.08142L70.3647 16.5773L71.22 18.979L77.4052 1.47622H77.3723C77.7013 0.390525 76.2537 0.226025 75.1351 0.226025V0.0615234H80.4649V0.226025C79.4121 0.226025 78.2606 0.324724 77.8329 1.21302L70.1673 23.0586H69.8054V23.0257L61.8765 1.47622C61.5146 0.258925 60.5605 0.226025 59.4419 0.226025V0.0615234H66.7128Z" fill="#F2F6EF"/>
<path d="M46.5801 1.47622V21.6439C46.5801 22.6967 47.6987 22.7296 48.7844 22.7296H54.0154C55.1011 22.7296 55.7262 22.5651 56.0552 21.6439L57.3054 17.4656L57.4699 17.5314L55.9894 23.0586H41.5464V22.8941C42.6979 22.8941 43.8494 22.7296 43.8494 21.6439V1.47622C43.8494 0.390525 42.6979 0.226025 41.5464 0.226025V0.0615234H48.8502V0.226025C47.7316 0.226025 46.5801 0.390525 46.5801 1.47622Z" fill="#F2F6EF"/>
<path d="M34.8686 12.2674H34.7041C34.7041 8.68132 33.7829 8.12202 32.6314 8.12202H31.7102C30.7232 8.12202 29.6704 8.25362 28.6834 8.51682V21.6439C28.6834 22.6967 29.802 22.6967 30.9206 22.6967H36.1517C37.2045 22.6967 37.8625 22.5651 38.1586 21.611L39.4088 17.4656L39.5733 17.4985L38.0928 23.0586H23.6826V22.8941C24.8012 22.8941 25.9527 22.6967 25.9527 21.6439V9.79992C24.7025 10.7211 23.8471 12.07 23.8471 13.9124H23.6826C23.6826 11.9055 24.6038 10.425 25.9527 9.43802V1.47622C25.9527 0.390525 24.8012 0.226025 23.6826 0.226025V0.0615234H38.0928L39.5733 5.58872L39.4088 5.65452L38.1586 1.47622C37.8625 0.555025 37.2045 0.390525 36.1517 0.390525H30.9206C29.802 0.390525 28.6834 0.390525 28.6834 1.47622V8.18782C29.6704 7.92462 30.7232 7.79303 31.7102 7.79303H32.6314C33.7829 7.79303 34.7041 7.56272 34.7041 5.42422H34.8686V12.2674Z" fill="#F2F6EF"/>
<path d="M7.94934 0.0615234V0.226025C6.99524 0.226025 5.97535 0.357624 5.90955 1.08142L11.6012 16.5773L12.4566 18.979L18.6418 1.47622H18.6089C18.9379 0.390525 17.4903 0.226025 16.3717 0.226025V0.0615234H21.7015V0.226025C20.6487 0.226025 19.4972 0.324724 19.0695 1.21302L11.4038 23.0586H11.0419V23.0257L3.11306 1.47622C2.75116 0.258925 1.79706 0.226025 0.678467 0.226025V0.0615234H7.94934Z" fill="#F2F6EF"/>
<path d="M115.618 43.2824C114.967 43.2824 114.477 43.101 114.146 42.7384C113.826 42.3864 113.666 41.949 113.666 41.4264C113.666 40.9464 113.783 40.4397 114.018 39.9064C114.263 39.373 114.583 38.8717 114.978 38.4024C115.383 37.933 115.826 37.5544 116.306 37.2664C116.786 36.9677 117.261 36.8184 117.73 36.8184C117.975 36.8184 118.199 36.8824 118.402 37.0104C118.615 37.1384 118.722 37.3997 118.722 37.7944C118.722 38.1997 118.599 38.5837 118.354 38.9464C118.119 39.2984 117.805 39.613 117.41 39.8904C117.026 40.1677 116.599 40.397 116.13 40.5784C115.671 40.749 115.213 40.8557 114.754 40.8984C114.733 41.005 114.717 41.1064 114.706 41.2024C114.695 41.2984 114.69 41.389 114.69 41.4744C114.69 41.6344 114.706 41.7944 114.738 41.9544C114.781 42.1144 114.85 42.2637 114.946 42.4024C115.042 42.5304 115.17 42.6317 115.33 42.7064C115.501 42.781 115.709 42.8184 115.954 42.8184C116.413 42.8184 116.866 42.6904 117.314 42.4344C117.762 42.1677 118.178 41.821 118.562 41.3944C118.946 40.9677 119.271 40.4984 119.538 39.9864L119.73 40.1304C119.442 40.7704 119.074 41.325 118.626 41.7944C118.189 42.2637 117.709 42.6264 117.186 42.8824C116.674 43.149 116.151 43.2824 115.618 43.2824ZM114.834 40.5944C115.122 40.4984 115.447 40.3597 115.81 40.1784C116.173 39.9864 116.519 39.7624 116.85 39.5064C117.191 39.2504 117.469 38.9677 117.682 38.6584C117.906 38.349 118.018 38.0237 118.018 37.6824C118.018 37.565 117.997 37.4744 117.954 37.4104C117.911 37.3464 117.821 37.3144 117.682 37.3144C117.426 37.3144 117.154 37.4157 116.866 37.6184C116.578 37.8104 116.301 38.0664 116.034 38.3864C115.767 38.7064 115.527 39.0584 115.314 39.4424C115.101 39.8264 114.941 40.2104 114.834 40.5944Z" fill="#F2F6EF"/>
<path d="M111.096 42.9947C110.733 42.9947 110.445 42.8987 110.232 42.7067C110.029 42.5147 109.928 42.264 109.928 41.9547C109.928 41.6347 110.002 41.2987 110.152 40.9467C110.301 40.5947 110.445 40.248 110.584 39.9067C110.733 39.5547 110.808 39.24 110.808 38.9627C110.808 38.6213 110.706 38.3707 110.504 38.2107C110.312 38.04 110.114 37.8853 109.912 37.7467C109.666 38.376 109.41 38.9733 109.144 39.5387C108.877 40.104 108.658 40.5307 108.488 40.8187L108.344 40.5467C108.493 40.2693 108.685 39.864 108.92 39.3307C109.165 38.7973 109.405 38.1893 109.64 37.5067C109.533 37.4 109.48 37.272 109.48 37.1227C109.48 36.8027 109.57 36.5413 109.752 36.3387C109.933 36.136 110.066 36.0347 110.152 36.0347C110.269 36.0347 110.333 36.088 110.344 36.1947C110.365 36.2907 110.376 36.3653 110.376 36.4187C110.376 36.472 110.344 36.5787 110.28 36.7387C110.226 36.888 110.2 36.9787 110.2 37.0107C110.2 37.16 110.28 37.2987 110.44 37.4267C110.61 37.544 110.802 37.6827 111.016 37.8427C111.229 37.992 111.416 38.1787 111.576 38.4027C111.746 38.616 111.832 38.8933 111.832 39.2347C111.832 39.5547 111.762 39.88 111.624 40.2107C111.496 40.5413 111.362 40.856 111.224 41.1547C111.096 41.4533 111.032 41.7147 111.032 41.9387C111.032 42.1307 111.08 42.2587 111.176 42.3227C111.272 42.3867 111.384 42.4187 111.512 42.4187C111.768 42.4187 112.029 42.3387 112.296 42.1787C112.573 42.0187 112.84 41.816 113.096 41.5707C113.352 41.3253 113.581 41.0693 113.784 40.8027C113.986 40.5253 114.136 40.2693 114.232 40.0347L114.44 40.1947C114.237 40.6427 113.96 41.0853 113.608 41.5227C113.256 41.9493 112.861 42.3013 112.424 42.5787C111.997 42.856 111.554 42.9947 111.096 42.9947Z" fill="#F2F6EF"/>
<path d="M102.127 43.3308C101.796 43.3308 101.519 43.2188 101.295 42.9948C101.06 42.7815 100.943 42.4508 100.943 42.0028C100.943 41.6188 101.028 41.2082 101.199 40.7708C101.37 40.3228 101.604 39.8855 101.903 39.4588C102.202 39.0215 102.538 38.6268 102.911 38.2748C103.295 37.9122 103.695 37.6242 104.111 37.4108C104.538 37.1975 104.959 37.0908 105.375 37.0908C105.791 37.0908 106.138 37.2028 106.415 37.4268C106.692 37.6402 106.831 37.9282 106.831 38.2908C106.831 38.5575 106.756 38.7388 106.607 38.8348C106.468 38.9308 106.282 38.9788 106.047 38.9788C106.068 38.8935 106.084 38.8028 106.095 38.7068C106.116 38.6002 106.127 38.5042 106.127 38.4188C106.127 38.1735 106.068 37.9655 105.951 37.7948C105.834 37.6135 105.631 37.5228 105.343 37.5228C105.044 37.5228 104.74 37.6295 104.431 37.8428C104.122 38.0455 103.823 38.3228 103.535 38.6748C103.247 39.0162 102.991 39.3895 102.767 39.7948C102.543 40.2002 102.367 40.6002 102.239 40.9948C102.111 41.3895 102.047 41.7415 102.047 42.0508C102.047 42.4668 102.191 42.6748 102.479 42.6748C102.724 42.6748 102.991 42.5628 103.279 42.3388C103.567 42.1042 103.86 41.8108 104.159 41.4588C104.468 41.0962 104.762 40.7228 105.039 40.3388C105.316 39.9548 105.562 39.6028 105.775 39.2828C105.818 39.2188 105.844 39.1868 105.855 39.1868C105.919 39.1975 105.999 39.2188 106.095 39.2508C106.202 39.2828 106.292 39.3255 106.367 39.3788C106.442 39.4322 106.479 39.5015 106.479 39.5868C106.479 39.6828 106.431 39.8162 106.335 39.9868C106.239 40.1468 106.132 40.3335 106.015 40.5468C105.898 40.7602 105.791 40.9788 105.695 41.2028C105.599 41.4162 105.551 41.6188 105.551 41.8108C105.551 41.9708 105.594 42.1308 105.679 42.2908C105.764 42.4402 105.903 42.5148 106.095 42.5148C106.383 42.5148 106.762 42.3068 107.231 41.8908C107.7 41.4642 108.175 40.8295 108.655 39.9868L108.815 40.1468C108.591 40.7228 108.303 41.2295 107.951 41.6668C107.599 42.1042 107.22 42.4455 106.815 42.6908C106.42 42.9362 106.031 43.0588 105.647 43.0588C105.252 43.0588 104.959 42.9415 104.767 42.7068C104.586 42.4722 104.495 42.2162 104.495 41.9388C104.495 41.8748 104.5 41.8055 104.511 41.7308C104.522 41.6455 104.532 41.5602 104.543 41.4748C104.084 42.0935 103.663 42.5575 103.279 42.8668C102.906 43.1762 102.522 43.3308 102.127 43.3308Z" fill="#F2F6EF"/>
<path d="M97.8989 43.4744C97.3869 43.4744 96.9603 43.3037 96.6189 42.9624C96.2776 42.6211 96.1069 42.1091 96.1069 41.4264C96.1069 40.8931 96.2083 40.3757 96.4109 39.8744C96.6243 39.3624 96.9016 38.9037 97.2429 38.4984C97.5843 38.0931 97.9629 37.7731 98.3789 37.5384C98.7949 37.2931 99.2056 37.1704 99.6109 37.1704C100.048 37.1704 100.347 37.2984 100.507 37.5544C100.667 37.8104 100.747 38.0771 100.747 38.3544C100.747 38.6637 100.672 38.9357 100.523 39.1704C100.384 39.4051 100.192 39.5224 99.9469 39.5224C99.7656 39.5224 99.6109 39.4424 99.4829 39.2824C99.6429 39.1971 99.7816 39.0264 99.8989 38.7704C100.016 38.5037 100.075 38.2531 100.075 38.0184C100.075 37.8904 100.048 37.7944 99.9949 37.7304C99.9523 37.6557 99.8616 37.6184 99.7229 37.6184C99.4349 37.6184 99.1363 37.7464 98.8269 38.0024C98.5283 38.2584 98.2456 38.5891 97.9789 38.9944C97.7229 39.3997 97.5096 39.8264 97.3389 40.2744C97.1789 40.7224 97.0989 41.1437 97.0989 41.5384C97.0989 41.8691 97.1789 42.1731 97.3389 42.4504C97.4989 42.7277 97.8083 42.8664 98.2669 42.8664C98.6936 42.8664 99.1203 42.7491 99.5469 42.5144C99.9843 42.2797 100.39 41.9437 100.763 41.5064C101.136 41.0691 101.435 40.5571 101.659 39.9704L101.867 40.1304C101.622 40.7704 101.286 41.3464 100.859 41.8584C100.432 42.3597 99.9629 42.7544 99.4509 43.0424C98.9389 43.3304 98.4216 43.4744 97.8989 43.4744Z" fill="#F2F6EF"/>
<path d="M93.9017 42.8987C93.5284 42.8987 93.2457 42.8027 93.0537 42.6107C92.8724 42.4187 92.7817 42.1734 92.7817 41.8747C92.7817 41.6507 92.8191 41.4161 92.8937 41.1707C92.9791 40.9254 93.0591 40.6747 93.1337 40.4187C93.2084 40.1521 93.2457 39.8961 93.2457 39.6507C93.2457 39.3521 93.1817 39.1494 93.0537 39.0427C92.9364 38.9254 92.7871 38.8667 92.6057 38.8667C92.2751 38.8667 91.9391 39.0054 91.5977 39.2827C91.2564 39.5494 90.9257 39.8961 90.6057 40.3227C90.2857 40.7387 89.9871 41.1707 89.7097 41.6187C89.4324 42.0667 89.1871 42.4667 88.9737 42.8187C88.8031 42.8187 88.6431 42.7867 88.4937 42.7227C88.3337 42.6694 88.2111 42.5841 88.1257 42.4667C88.1257 42.4134 88.1844 42.2481 88.3017 41.9707C88.4084 41.6934 88.5364 41.3521 88.6857 40.9467C88.8351 40.5414 88.9684 40.1254 89.0857 39.6987C89.2031 39.2721 89.2617 38.8827 89.2617 38.5307C89.3257 38.4561 89.4271 38.3814 89.5657 38.3067C89.7044 38.2321 89.8484 38.1947 89.9977 38.1947C90.2857 38.1947 90.4297 38.3334 90.4297 38.6107C90.4297 38.7814 90.3817 39.0694 90.2857 39.4747C90.1897 39.8694 90.0671 40.2854 89.9177 40.7227C90.2057 40.2854 90.5257 39.8534 90.8777 39.4267C91.2404 38.9894 91.6244 38.6267 92.0297 38.3387C92.4351 38.0507 92.8404 37.9067 93.2457 37.9067C93.6617 37.9067 93.9604 38.0561 94.1417 38.3547C94.3337 38.6534 94.4297 38.9841 94.4297 39.3467C94.4297 39.6774 94.3764 39.9867 94.2697 40.2747C94.1631 40.5521 94.0511 40.8241 93.9337 41.0907C93.8271 41.3467 93.7737 41.6081 93.7737 41.8747C93.7737 42.0987 93.8164 42.2587 93.9017 42.3547C93.9977 42.4401 94.1151 42.4827 94.2537 42.4827C94.5204 42.4827 94.7871 42.3601 95.0537 42.1147C95.3204 41.8587 95.5764 41.5387 95.8217 41.1547C96.0777 40.7707 96.3017 40.3814 96.4937 39.9867L96.6697 40.1947C96.4457 40.7174 96.1951 41.1814 95.9177 41.5867C95.6404 41.9921 95.3364 42.3121 95.0057 42.5467C94.6751 42.7814 94.3071 42.8987 93.9017 42.8987Z" fill="#F2F6EF"/>
<path d="M86.0264 42.9946C85.6104 42.9946 85.3011 42.8613 85.0984 42.5946C84.8958 42.3386 84.7944 42.024 84.7944 41.6506C84.7944 41.4053 84.8371 41.096 84.9224 40.7226C85.0184 40.3493 85.1411 39.96 85.2904 39.5546C85.4398 39.1386 85.6104 38.7493 85.8024 38.3866C86.0051 38.024 86.2184 37.7306 86.4424 37.5066C86.6664 37.272 86.8851 37.1546 87.0984 37.1546C87.1944 37.1546 87.2744 37.1866 87.3384 37.2506C87.4131 37.304 87.4504 37.3893 87.4504 37.5066C87.4504 37.6346 87.3651 37.8426 87.1944 38.1306C87.0344 38.4186 86.8424 38.7493 86.6184 39.1226C86.3944 39.496 86.1971 39.8906 86.0264 40.3066C85.8664 40.712 85.7864 41.1013 85.7864 41.4746C85.7864 41.8586 85.8504 42.1146 85.9784 42.2426C86.1064 42.3706 86.3038 42.4346 86.5704 42.4346C86.9331 42.4346 87.3171 42.2533 87.7224 41.8906C88.1384 41.528 88.5758 40.8933 89.0344 39.9866L89.1784 40.1466C88.8691 41.064 88.4211 41.768 87.8344 42.2586C87.2584 42.7493 86.6558 42.9946 86.0264 42.9946ZM87.9464 35.6666C87.7758 35.6666 87.6211 35.624 87.4824 35.5386C87.3544 35.4533 87.2904 35.32 87.2904 35.1386C87.2904 34.9146 87.4184 34.7226 87.6744 34.5626C87.9411 34.392 88.2024 34.3066 88.4584 34.3066C88.6184 34.3066 88.7464 34.344 88.8424 34.4186C88.9384 34.4933 88.9864 34.6213 88.9864 34.8026C88.9864 35.0053 88.8744 35.2026 88.6504 35.3946C88.4371 35.576 88.2024 35.6666 87.9464 35.6666Z" fill="#F2F6EF"/>
<path d="M82.4859 43.1868C82.1872 43.1868 81.9312 43.0855 81.7179 42.8828C81.5045 42.6801 81.3339 42.4241 81.2059 42.1148C81.0885 41.8055 80.9979 41.4908 80.9339 41.1708C80.8805 40.8401 80.8539 40.5521 80.8539 40.3068C80.9712 40.3068 81.1419 40.2801 81.3659 40.2268C81.5899 40.1628 81.8192 40.0721 82.0539 39.9548C82.2885 39.8268 82.4859 39.6668 82.6459 39.4748C82.8165 39.2721 82.9019 39.0375 82.9019 38.7708C82.9019 38.5468 82.8219 38.3708 82.6619 38.2428C82.5019 38.1148 82.3152 38.0508 82.1019 38.0508C81.7712 38.0508 81.4619 38.1681 81.1739 38.4028C80.8859 38.6268 80.6245 38.9255 80.3899 39.2988C80.1659 39.6615 79.9632 40.0508 79.7819 40.4668C79.6005 40.8828 79.4459 41.2775 79.3179 41.6508C79.1899 42.0241 79.0832 42.3335 78.9979 42.5788C78.9339 42.7708 78.8432 42.8988 78.7259 42.9628C78.6085 43.0375 78.4859 43.0748 78.3579 43.0748C78.1765 43.0748 78.0432 43.0001 77.9579 42.8508C77.8832 42.7015 77.8352 42.5148 77.8139 42.2908C77.8032 42.0561 77.7979 41.8161 77.7979 41.5708C77.7979 41.0161 77.8885 40.3761 78.0699 39.6508C78.2512 38.9255 78.4912 38.1735 78.7899 37.3948C79.0992 36.6055 79.4352 35.8428 79.7979 35.1068C80.1605 34.3708 80.5232 33.7041 80.8859 33.1068C81.2485 32.5095 81.5845 32.0348 81.8939 31.6828C82.2032 31.3308 82.4539 31.1548 82.6459 31.1548C82.7952 31.1548 82.9125 31.2561 82.9979 31.4588C83.0939 31.6615 83.1419 31.9068 83.1419 32.1948C83.1419 32.5575 83.0619 32.9681 82.9019 33.4268C82.7419 33.8748 82.5125 34.3281 82.2139 34.7868C81.9259 35.2455 81.5792 35.6775 81.1739 36.0828C80.7792 36.4881 80.3472 36.8348 79.8779 37.1228C79.5259 37.9868 79.2592 38.8295 79.0779 39.6508C78.9072 40.4615 78.8219 41.1441 78.8219 41.6988C78.9925 41.2721 79.1952 40.8028 79.4299 40.2908C79.6752 39.7788 79.9525 39.2881 80.2619 38.8188C80.5712 38.3495 80.9072 37.9655 81.2699 37.6668C81.6325 37.3681 82.0112 37.2188 82.4059 37.2188C82.8005 37.2188 83.1365 37.3575 83.4139 37.6348C83.6912 37.9121 83.8299 38.2481 83.8299 38.6428C83.8299 38.9841 83.7392 39.2775 83.5579 39.5228C83.3872 39.7575 83.1739 39.9495 82.9179 40.0988C82.6725 40.2375 82.4219 40.3441 82.1659 40.4188C81.9205 40.4828 81.7179 40.5148 81.5579 40.5148C81.5685 40.6001 81.6005 40.7548 81.6539 40.9788C81.7072 41.2028 81.7819 41.4375 81.8779 41.6828C81.9845 41.9281 82.1125 42.1415 82.2619 42.3228C82.4112 42.4935 82.5925 42.5788 82.8059 42.5788C83.1152 42.5788 83.4085 42.4615 83.6859 42.2268C83.9632 41.9921 84.2245 41.6828 84.4699 41.2988C84.7259 40.9041 84.9605 40.4615 85.1739 39.9708L85.3339 40.1308C85.1845 40.6535 84.9552 41.1495 84.6459 41.6188C84.3365 42.0775 83.9899 42.4508 83.6059 42.7388C83.2325 43.0375 82.8592 43.1868 82.4859 43.1868ZM80.1499 36.4828C80.6405 36.0881 81.0672 35.6401 81.4299 35.1388C81.8032 34.6375 82.0912 34.1575 82.2939 33.6988C82.4965 33.2295 82.5979 32.8615 82.5979 32.5948C82.5979 32.5415 82.5925 32.5041 82.5819 32.4828C82.5819 32.4615 82.5712 32.4508 82.5499 32.4508C82.4432 32.4508 82.2565 32.6375 81.9899 33.0108C81.7339 33.3841 81.4405 33.8801 81.1099 34.4988C80.7792 35.1068 80.4592 35.7681 80.1499 36.4828Z" fill="#F2F6EF"/>
<path d="M73.8982 43.3948C73.3969 43.3948 72.9969 43.2828 72.6982 43.0588C72.4102 42.8455 72.2075 42.5788 72.0902 42.2588C71.9622 41.9388 71.8982 41.6188 71.8982 41.2988C71.8982 40.9788 71.9409 40.7335 72.0262 40.5628C72.1115 40.3921 72.2129 40.2641 72.3302 40.1788C72.4582 40.0935 72.5755 40.0295 72.6822 39.9868C72.7995 39.9441 72.8795 39.9015 72.9222 39.8588C73.2422 39.5068 73.5355 39.1388 73.8022 38.7548C74.0689 38.3708 74.3035 37.9655 74.5062 37.5388V37.3468C74.5062 36.9521 74.5702 36.6748 74.6982 36.5148C74.8369 36.3441 74.9809 36.2588 75.1302 36.2588C75.2155 36.2588 75.2795 36.2801 75.3222 36.3228C75.3649 36.3655 75.3862 36.4135 75.3862 36.4668C75.3862 36.5201 75.3702 36.6055 75.3382 36.7228C75.3062 36.8401 75.2902 36.9895 75.2902 37.1708C75.2902 37.5228 75.3595 37.9068 75.4982 38.3228C75.6369 38.7281 75.7755 39.1601 75.9142 39.6188C76.0529 40.0668 76.1222 40.5361 76.1222 41.0268C76.1222 41.1655 76.1115 41.3041 76.0902 41.4428C76.0795 41.5708 76.0582 41.6935 76.0262 41.8108C76.3995 41.7468 76.7515 41.5815 77.0822 41.3148C77.4129 41.0375 77.7329 40.6001 78.0422 40.0028L78.1862 40.1628C77.9835 40.7495 77.6795 41.1975 77.2742 41.5068C76.8689 41.8055 76.4262 41.9921 75.9462 42.0668C75.7755 42.5255 75.5035 42.8615 75.1302 43.0748C74.7675 43.2881 74.3569 43.3948 73.8982 43.3948ZM73.9302 42.8348C74.0582 42.8348 74.2289 42.7921 74.4422 42.7068C74.6555 42.6215 74.8209 42.4028 74.9382 42.0508C74.4902 41.9655 74.0902 41.7895 73.7382 41.5228C73.3969 41.2561 73.1409 40.9895 72.9702 40.7228C72.7355 40.7335 72.6182 40.9201 72.6182 41.2828C72.6182 41.6668 72.7302 42.0241 72.9542 42.3548C73.1889 42.6748 73.5142 42.8348 73.9302 42.8348ZM75.0182 41.7948C75.0395 41.6881 75.0555 41.5761 75.0662 41.4588C75.0769 41.3415 75.0822 41.2028 75.0822 41.0428C75.0822 40.5415 75.0182 40.0455 74.8902 39.5548C74.7729 39.0535 74.6715 38.5841 74.5862 38.1468C74.3409 38.5521 74.0795 38.9415 73.8022 39.3148C73.5355 39.6775 73.2795 39.9815 73.0342 40.2268C73.1942 40.5681 73.4395 40.8881 73.7702 41.1868C74.1115 41.4855 74.5275 41.6881 75.0182 41.7948Z" fill="#F2F6EF"/>
<path d="M61.2745 43.9707C60.6345 43.9707 60.0799 43.8374 59.6105 43.5707C59.1412 43.304 58.7785 42.952 58.5225 42.5147C58.2772 42.0667 58.1545 41.5814 58.1545 41.0587C58.1545 40.568 58.2612 40.088 58.4745 39.6187C58.6879 39.1494 58.9812 38.7227 59.3545 38.3387C59.7385 37.944 60.1812 37.624 60.6825 37.3787C61.1839 37.1227 61.7225 36.968 62.2985 36.9147C61.8825 36.5734 61.5732 36.1787 61.3705 35.7307C61.1785 35.2827 61.0825 34.8347 61.0825 34.3867C61.0825 33.8214 61.2265 33.288 61.5145 32.7867C61.8025 32.2747 62.1919 31.864 62.6825 31.5547C63.1839 31.2347 63.7545 31.0747 64.3945 31.0747C64.9705 31.0747 65.4025 31.2187 65.6905 31.5067C65.9892 31.7947 66.1385 32.216 66.1385 32.7707C66.1385 33.1654 66.0745 33.5547 65.9465 33.9387C65.8185 34.312 65.6585 34.6214 65.4665 34.8667C65.2852 35.1014 65.1039 35.2187 64.9225 35.2187C64.8052 35.2187 64.6932 35.1707 64.5865 35.0747C64.4799 34.968 64.3945 34.8454 64.3305 34.7067C64.7039 34.376 65.0132 34.0347 65.2585 33.6827C65.5145 33.32 65.6425 32.9307 65.6425 32.5147C65.6425 32.184 65.5519 31.9174 65.3705 31.7147C65.1999 31.5014 64.9279 31.3947 64.5545 31.3947C64.0532 31.3947 63.6319 31.5494 63.2905 31.8587C62.9492 32.1574 62.6879 32.5574 62.5065 33.0587C62.3359 33.5494 62.2505 34.0827 62.2505 34.6587C62.2505 34.9147 62.2719 35.1867 62.3145 35.4747C62.3679 35.7627 62.4585 36.0454 62.5865 36.3227C62.7252 36.6 62.9225 36.8507 63.1785 37.0747C62.4639 37.192 61.8399 37.464 61.3065 37.8907C60.7839 38.3174 60.3732 38.8187 60.0745 39.3947C59.7865 39.9707 59.6425 40.5414 59.6425 41.1067C59.6425 41.4587 59.7065 41.816 59.8345 42.1787C59.9732 42.5307 60.1919 42.824 60.4905 43.0587C60.7892 43.304 61.1892 43.4267 61.6905 43.4267C62.2559 43.4267 62.7999 43.2827 63.3225 42.9947C63.8559 42.7067 64.3359 42.3227 64.7625 41.8427C65.1999 41.3627 65.5572 40.824 65.8345 40.2267C66.1119 39.6187 66.2879 38.9947 66.3625 38.3547C66.1385 38.3654 65.9305 38.3814 65.7385 38.4027C65.5572 38.424 65.3545 38.456 65.1305 38.4987C64.9065 38.5307 64.6185 38.584 64.2665 38.6587C64.2879 38.2107 64.4585 37.912 64.7785 37.7627C65.0985 37.6134 65.4825 37.5387 65.9305 37.5387C66.2505 37.5387 66.5545 37.56 66.8425 37.6027C67.1305 37.6454 67.4025 37.688 67.6585 37.7307C67.9252 37.7734 68.1652 37.8 68.3785 37.8107C68.2612 38.056 68.1439 38.2054 68.0265 38.2587C67.9199 38.3014 67.8132 38.3227 67.7065 38.3227C67.5252 38.3227 67.3545 38.328 67.1945 38.3387C67.0452 38.3387 66.9065 38.3387 66.7785 38.3387C66.7039 39.0747 66.5012 39.7787 66.1705 40.4507C65.8505 41.1227 65.4345 41.7254 64.9225 42.2587C64.4212 42.7814 63.8559 43.1974 63.2265 43.5067C62.6079 43.816 61.9572 43.9707 61.2745 43.9707Z" fill="#F2F6EF"/>
<path d="M51.593 43.0586C51.1343 43.0586 50.8037 42.8986 50.601 42.5786C50.409 42.2693 50.313 41.8799 50.313 41.4106C50.313 40.8986 50.409 40.2906 50.601 39.5866C50.793 38.8826 51.0437 38.1413 51.353 37.3626C51.673 36.5839 52.0197 35.8266 52.393 35.0906C52.7663 34.3439 53.1397 33.6666 53.513 33.0586C53.8863 32.4506 54.2277 31.9653 54.537 31.6026C54.857 31.2399 55.1077 31.0586 55.289 31.0586C55.4063 31.0586 55.5023 31.1279 55.577 31.2666C55.6517 31.3946 55.7103 31.5546 55.753 31.7466C55.7957 31.9279 55.817 32.0933 55.817 32.2426C55.817 32.5306 55.7423 32.9093 55.593 33.3786C55.4543 33.8373 55.2517 34.3546 54.985 34.9306C54.729 35.4959 54.4197 36.0719 54.057 36.6586C53.705 37.2346 53.3157 37.7893 52.889 38.3226C52.473 38.8559 52.0303 39.3146 51.561 39.6986C51.497 39.9866 51.4437 40.2693 51.401 40.5466C51.369 40.8133 51.353 41.0693 51.353 41.3146C51.353 41.7306 51.4117 42.0399 51.529 42.2426C51.6463 42.4453 51.8223 42.5466 52.057 42.5466C52.345 42.5466 52.6277 42.4186 52.905 42.1626C53.193 41.9066 53.4597 41.5866 53.705 41.2026C53.961 40.8079 54.1797 40.4026 54.361 39.9866L54.601 40.1146C54.1743 41.0213 53.7103 41.7413 53.209 42.2746C52.7077 42.7973 52.169 43.0586 51.593 43.0586ZM51.705 39.1546C52.0783 38.7813 52.441 38.3546 52.793 37.8746C53.145 37.3839 53.4703 36.8773 53.769 36.3546C54.0783 35.8319 54.3503 35.3253 54.585 34.8346C54.8197 34.3439 55.001 33.9066 55.129 33.5226C55.257 33.1279 55.321 32.8239 55.321 32.6106C55.321 32.5039 55.305 32.4346 55.273 32.4026C55.2517 32.3706 55.2303 32.3546 55.209 32.3546C55.1237 32.3546 54.9743 32.4933 54.761 32.7706C54.5583 33.0373 54.3183 33.3999 54.041 33.8586C53.7637 34.3173 53.481 34.8399 53.193 35.4266C52.905 36.0133 52.6277 36.6266 52.361 37.2666C52.105 37.9066 51.8863 38.5359 51.705 39.1546Z" fill="#F2F6EF"/>
<path d="M44.0644 43.3308C43.7337 43.3308 43.4564 43.2188 43.2324 42.9948C42.9977 42.7815 42.8804 42.4508 42.8804 42.0028C42.8804 41.6188 42.9657 41.2082 43.1364 40.7708C43.307 40.3228 43.5417 39.8855 43.8404 39.4588C44.139 39.0215 44.475 38.6268 44.8484 38.2748C45.2324 37.9122 45.6324 37.6242 46.0484 37.4108C46.475 37.1975 46.8964 37.0908 47.3124 37.0908C47.7284 37.0908 48.075 37.2028 48.3524 37.4268C48.6297 37.6402 48.7684 37.9282 48.7684 38.2908C48.7684 38.5575 48.6937 38.7388 48.5444 38.8348C48.4057 38.9308 48.219 38.9788 47.9844 38.9788C48.0057 38.8935 48.0217 38.8028 48.0324 38.7068C48.0537 38.6002 48.0644 38.5042 48.0644 38.4188C48.0644 38.1735 48.0057 37.9655 47.8884 37.7948C47.771 37.6135 47.5684 37.5228 47.2804 37.5228C46.9817 37.5228 46.6777 37.6295 46.3684 37.8428C46.059 38.0455 45.7604 38.3228 45.4724 38.6748C45.1844 39.0162 44.9284 39.3895 44.7044 39.7948C44.4804 40.2002 44.3044 40.6002 44.1764 40.9948C44.0484 41.3895 43.9844 41.7415 43.9844 42.0508C43.9844 42.4668 44.1284 42.6748 44.4164 42.6748C44.6617 42.6748 44.9284 42.5628 45.2164 42.3388C45.5044 42.1042 45.7977 41.8108 46.0964 41.4588C46.4057 41.0962 46.699 40.7228 46.9764 40.3388C47.2537 39.9548 47.499 39.6028 47.7124 39.2828C47.755 39.2188 47.7817 39.1868 47.7924 39.1868C47.8564 39.1975 47.9364 39.2188 48.0324 39.2508C48.139 39.2828 48.2297 39.3255 48.3044 39.3788C48.379 39.4322 48.4164 39.5015 48.4164 39.5868C48.4164 39.6828 48.3684 39.8162 48.2724 39.9868C48.1764 40.1468 48.0697 40.3335 47.9524 40.5468C47.835 40.7602 47.7284 40.9788 47.6324 41.2028C47.5364 41.4162 47.4884 41.6188 47.4884 41.8108C47.4884 41.9708 47.531 42.1308 47.6164 42.2908C47.7017 42.4402 47.8404 42.5148 48.0324 42.5148C48.3204 42.5148 48.699 42.3068 49.1684 41.8908C49.6377 41.4642 50.1124 40.8295 50.5924 39.9868L50.7524 40.1468C50.5284 40.7228 50.2404 41.2295 49.8884 41.6668C49.5364 42.1042 49.1577 42.4455 48.7524 42.6908C48.3577 42.9362 47.9684 43.0588 47.5844 43.0588C47.1897 43.0588 46.8964 42.9415 46.7044 42.7068C46.523 42.4722 46.4324 42.2162 46.4324 41.9388C46.4324 41.8748 46.4377 41.8055 46.4484 41.7308C46.459 41.6455 46.4697 41.5602 46.4804 41.4748C46.0217 42.0935 45.6004 42.5575 45.2164 42.8668C44.843 43.1762 44.459 43.3308 44.0644 43.3308Z" fill="#F2F6EF"/>
<path d="M40.5889 42.9946C40.1729 42.9946 39.8636 42.8613 39.6609 42.5946C39.4583 42.3386 39.3569 42.024 39.3569 41.6506C39.3569 41.4053 39.3996 41.096 39.4849 40.7226C39.5809 40.3493 39.7036 39.96 39.8529 39.5546C40.0023 39.1386 40.1729 38.7493 40.3649 38.3866C40.5676 38.024 40.7809 37.7306 41.0049 37.5066C41.2289 37.272 41.4476 37.1546 41.6609 37.1546C41.7569 37.1546 41.8369 37.1866 41.9009 37.2506C41.9756 37.304 42.0129 37.3893 42.0129 37.5066C42.0129 37.6346 41.9276 37.8426 41.7569 38.1306C41.5969 38.4186 41.4049 38.7493 41.1809 39.1226C40.9569 39.496 40.7596 39.8906 40.5889 40.3066C40.4289 40.712 40.3489 41.1013 40.3489 41.4746C40.3489 41.8586 40.4129 42.1146 40.5409 42.2426C40.6689 42.3706 40.8663 42.4346 41.1329 42.4346C41.4956 42.4346 41.8796 42.2533 42.2849 41.8906C42.7009 41.528 43.1383 40.8933 43.5969 39.9866L43.7409 40.1466C43.4316 41.064 42.9836 41.768 42.3969 42.2586C41.8209 42.7493 41.2183 42.9946 40.5889 42.9946ZM42.5089 35.6666C42.3383 35.6666 42.1836 35.624 42.0449 35.5386C41.9169 35.4533 41.8529 35.32 41.8529 35.1386C41.8529 34.9146 41.9809 34.7226 42.2369 34.5626C42.5036 34.392 42.7649 34.3066 43.0209 34.3066C43.1809 34.3066 43.3089 34.344 43.4049 34.4186C43.5009 34.4933 43.5489 34.6213 43.5489 34.8026C43.5489 35.0053 43.4369 35.2026 43.2129 35.3946C42.9996 35.576 42.7649 35.6666 42.5089 35.6666Z" fill="#F2F6EF"/>
<path d="M35.9771 43.4744C35.4651 43.4744 35.0384 43.3037 34.6971 42.9624C34.3557 42.6211 34.1851 42.1091 34.1851 41.4264C34.1851 40.8931 34.2864 40.3757 34.4891 39.8744C34.7024 39.3624 34.9797 38.9037 35.3211 38.4984C35.6624 38.0931 36.0411 37.7731 36.4571 37.5384C36.8731 37.2931 37.2837 37.1704 37.6891 37.1704C38.1264 37.1704 38.4251 37.2984 38.5851 37.5544C38.7451 37.8104 38.8251 38.0771 38.8251 38.3544C38.8251 38.6637 38.7504 38.9357 38.6011 39.1704C38.4624 39.4051 38.2704 39.5224 38.0251 39.5224C37.8437 39.5224 37.6891 39.4424 37.5611 39.2824C37.7211 39.1971 37.8597 39.0264 37.9771 38.7704C38.0944 38.5037 38.1531 38.2531 38.1531 38.0184C38.1531 37.8904 38.1264 37.7944 38.0731 37.7304C38.0304 37.6557 37.9397 37.6184 37.8011 37.6184C37.5131 37.6184 37.2144 37.7464 36.9051 38.0024C36.6064 38.2584 36.3237 38.5891 36.0571 38.9944C35.8011 39.3997 35.5877 39.8264 35.4171 40.2744C35.2571 40.7224 35.1771 41.1437 35.1771 41.5384C35.1771 41.8691 35.2571 42.1731 35.4171 42.4504C35.5771 42.7277 35.8864 42.8664 36.3451 42.8664C36.7717 42.8664 37.1984 42.7491 37.6251 42.5144C38.0624 42.2797 38.4677 41.9437 38.8411 41.5064C39.2144 41.0691 39.5131 40.5571 39.7371 39.9704L39.9451 40.1304C39.6997 40.7704 39.3637 41.3464 38.9371 41.8584C38.5104 42.3597 38.0411 42.7544 37.5291 43.0424C37.0171 43.3304 36.4997 43.4744 35.9771 43.4744Z" fill="#F2F6EF"/>
<path d="M28.0644 43.3308C27.7337 43.3308 27.4564 43.2188 27.2324 42.9948C26.9977 42.7815 26.8804 42.4508 26.8804 42.0028C26.8804 41.6188 26.9657 41.2082 27.1364 40.7708C27.307 40.3228 27.5417 39.8855 27.8404 39.4588C28.139 39.0215 28.475 38.6268 28.8484 38.2748C29.2324 37.9122 29.6324 37.6242 30.0484 37.4108C30.475 37.1975 30.8964 37.0908 31.3124 37.0908C31.7284 37.0908 32.075 37.2028 32.3524 37.4268C32.6297 37.6402 32.7684 37.9282 32.7684 38.2908C32.7684 38.5575 32.6937 38.7388 32.5444 38.8348C32.4057 38.9308 32.219 38.9788 31.9844 38.9788C32.0057 38.8935 32.0217 38.8028 32.0324 38.7068C32.0537 38.6002 32.0644 38.5042 32.0644 38.4188C32.0644 38.1735 32.0057 37.9655 31.8884 37.7948C31.771 37.6135 31.5684 37.5228 31.2804 37.5228C30.9817 37.5228 30.6777 37.6295 30.3684 37.8428C30.059 38.0455 29.7604 38.3228 29.4724 38.6748C29.1844 39.0162 28.9284 39.3895 28.7044 39.7948C28.4804 40.2002 28.3044 40.6002 28.1764 40.9948C28.0484 41.3895 27.9844 41.7415 27.9844 42.0508C27.9844 42.4668 28.1284 42.6748 28.4164 42.6748C28.6617 42.6748 28.9284 42.5628 29.2164 42.3388C29.5044 42.1042 29.7977 41.8108 30.0964 41.4588C30.4057 41.0962 30.699 40.7228 30.9764 40.3388C31.2537 39.9548 31.499 39.6028 31.7124 39.2828C31.755 39.2188 31.7817 39.1868 31.7924 39.1868C31.8564 39.1975 31.9364 39.2188 32.0324 39.2508C32.139 39.2828 32.2297 39.3255 32.3044 39.3788C32.379 39.4322 32.4164 39.5015 32.4164 39.5868C32.4164 39.6828 32.3684 39.8162 32.2724 39.9868C32.1764 40.1468 32.0697 40.3335 31.9524 40.5468C31.835 40.7602 31.7284 40.9788 31.6324 41.2028C31.5364 41.4162 31.4884 41.6188 31.4884 41.8108C31.4884 41.9708 31.531 42.1308 31.6164 42.2908C31.7017 42.4402 31.8404 42.5148 32.0324 42.5148C32.3204 42.5148 32.699 42.3068 33.1684 41.8908C33.6377 41.4642 34.1124 40.8295 34.5924 39.9868L34.7524 40.1468C34.5284 40.7228 34.2404 41.2295 33.8884 41.6668C33.5364 42.1042 33.1577 42.4455 32.7524 42.6908C32.3577 42.9362 31.9684 43.0588 31.5844 43.0588C31.1897 43.0588 30.8964 42.9415 30.7044 42.7068C30.523 42.4722 30.4324 42.2162 30.4324 41.9388C30.4324 41.8748 30.4377 41.8055 30.4484 41.7308C30.459 41.6455 30.4697 41.5602 30.4804 41.4748C30.0217 42.0935 29.6004 42.5575 29.2164 42.8668C28.843 43.1762 28.459 43.3308 28.0644 43.3308Z" fill="#F2F6EF"/>
<path d="M22.6814 43.9707C22.1908 43.928 21.8868 43.7947 21.7694 43.5707C21.6521 43.3467 21.5934 43.0587 21.5934 42.7067C21.5934 42.3227 21.6734 41.8533 21.8334 41.2987C21.9934 40.7333 22.1908 40.12 22.4254 39.4587C22.6708 38.7973 22.9161 38.136 23.1614 37.4747C23.0334 37.4853 22.8948 37.5013 22.7454 37.5227C22.6068 37.5333 22.4308 37.5547 22.2174 37.5867C22.0041 37.608 21.7268 37.6453 21.3854 37.6987C21.4068 37.4213 21.5081 37.208 21.6894 37.0587C21.8814 36.8987 22.1321 36.7813 22.4414 36.7067C22.7508 36.632 23.0974 36.5893 23.4814 36.5787C23.7801 35.7573 24.0841 34.9573 24.3934 34.1787C24.7134 33.3893 25.0281 32.6693 25.3374 32.0187C25.2308 32.008 25.1241 32.0027 25.0174 32.0027C24.9214 31.992 24.8201 31.9867 24.7134 31.9867C24.0308 31.9867 23.5028 32.056 23.1294 32.1947C22.7561 32.3333 22.5001 32.5467 22.3614 32.8347C22.2228 33.1227 22.1534 33.4907 22.1534 33.9387C22.1534 34.1733 22.1694 34.392 22.2014 34.5947C22.2334 34.7867 22.2868 34.9893 22.3614 35.2027C21.9988 35.1387 21.7321 35 21.5614 34.7867C21.3908 34.5627 21.3054 34.2853 21.3054 33.9547C21.3054 33.4 21.5028 32.9147 21.8974 32.4987C22.2921 32.072 22.8201 31.7413 23.4814 31.5067C24.1534 31.2613 24.8948 31.1387 25.7054 31.1387C26.2708 31.1387 26.8148 31.1813 27.3374 31.2667C27.8708 31.3413 28.3881 31.3787 28.8894 31.3787C29.1134 31.3787 29.3161 31.368 29.4974 31.3467C29.6894 31.3147 29.8814 31.272 30.0734 31.2187C29.6788 31.6667 29.3481 31.9653 29.0814 32.1147C28.8148 32.264 28.5428 32.3387 28.2654 32.3387C28.0201 32.3387 27.7001 32.3067 27.3054 32.2427C26.9214 32.168 26.4841 32.1093 25.9934 32.0667C25.8548 32.4187 25.7001 32.8453 25.5294 33.3467C25.3588 33.8373 25.1828 34.3653 25.0014 34.9307C24.8201 35.4853 24.6388 36.04 24.4574 36.5947C24.9908 36.6267 25.4921 36.6747 25.9614 36.7387C26.4414 36.8027 26.8734 36.84 27.2574 36.8507C27.1721 36.9787 27.0708 37.08 26.9534 37.1547C26.8468 37.2187 26.6921 37.2667 26.4894 37.2987C26.2868 37.3307 26.0041 37.3573 25.6414 37.3787C25.2894 37.3893 24.8148 37.4 24.2174 37.4107C24.1534 37.6347 24.0734 37.9013 23.9774 38.2107C23.8814 38.52 23.7961 38.8133 23.7214 39.0907C23.6468 39.368 23.5881 39.5707 23.5454 39.6987C23.3108 40.52 23.1081 41.288 22.9374 42.0027C22.7774 42.7173 22.6921 43.3733 22.6814 43.9707Z" fill="#F2F6EF"/>
</svg>
