<svg width="175" height="56" viewBox="0 0 175 56" fill="none" xmlns="http://www.w3.org/2000/svg">
<path d="M162.662 16.4819V27.6533C162.662 28.9676 164.1 29.1729 165.496 29.1729V29.4194H156.42V29.1729C157.816 29.1729 159.253 28.9676 159.253 27.6533V17.3854L150.998 2.47651C150.136 0.997943 149.437 0.915801 148.041 0.915801V0.710442H157.159V0.915801C155.762 0.915801 154.161 1.08008 154.859 2.39437L161.964 15.2497H162.005L162.416 16.0301L169.562 2.47651C170.343 1.12116 169.234 0.915801 167.837 0.915801V0.710442H174.491V0.915801C173.053 0.915801 170.836 1.16223 170.055 2.47651L162.662 16.4819Z" fill="#213721"/>
<path d="M124.497 7.61045L126.346 0.669373H143.719L145.567 7.61045L145.362 7.65152L143.801 2.47652C143.39 1.32652 142.61 1.12116 141.295 1.12116H139.488C138.133 1.12116 136.737 1.12116 136.737 2.43545V27.6533C136.737 28.9676 138.174 29.1729 139.57 29.1729V29.4194H130.453V29.1729C131.89 29.1729 133.328 28.9676 133.328 27.6533V2.43545C133.328 1.12116 131.931 1.12116 130.535 1.12116H128.769C127.454 1.12116 126.633 1.32652 126.263 2.47652L124.703 7.65152L124.497 7.61045Z" fill="#213721"/>
<path d="M116.162 15.9479H115.956C115.956 11.4711 114.806 10.7729 113.369 10.7729H112.219C110.987 10.7729 109.672 10.9372 108.44 11.2658V27.6533C108.44 28.9676 109.837 28.9676 111.233 28.9676H117.764C119.078 28.9676 119.899 28.8033 120.269 27.6122L121.83 22.4372L122.035 22.4783L120.187 29.4194H102.198V29.214C103.594 29.214 105.031 28.9676 105.031 27.6533V12.8676C103.471 14.0176 102.403 15.7015 102.403 18.0015H102.198C102.198 15.4961 103.348 13.6479 105.031 12.4158V2.4765C105.031 1.12114 103.594 0.915782 102.198 0.915782V0.710423H120.187L122.035 7.61042L121.83 7.69257L120.269 2.4765C119.899 1.3265 119.078 1.12114 117.764 1.12114H111.233C109.837 1.12114 108.44 1.12114 108.44 2.4765V10.8551C109.672 10.5265 110.987 10.3622 112.219 10.3622H113.369C114.806 10.3622 115.956 10.0747 115.956 7.40507H116.162V15.9479Z" fill="#213721"/>
<path d="M82.5565 0.710423V0.915782C81.3654 0.915782 80.0922 1.08007 80.0101 1.98364L87.1154 21.3283L88.1832 24.3265L95.9046 2.4765H95.8636C96.2743 1.12114 94.4671 0.915782 93.0707 0.915782V0.710423H99.7243V0.915782C98.41 0.915782 96.9725 1.03899 96.4386 2.14792L86.869 29.4194H86.4172V29.3783L76.519 2.4765C76.0672 0.956853 74.8762 0.915782 73.4797 0.915782V0.710423H82.5565Z" fill="#213721"/>
<path d="M57.4223 2.47651V27.6533C57.4223 28.9676 58.8188 29.0087 60.1741 29.0087H66.7044C68.0598 29.0087 68.8401 28.8033 69.2509 27.6533L70.8116 22.4372L71.0169 22.5194L69.1687 29.4194H51.1384V29.214C52.5759 29.214 54.0134 29.0087 54.0134 27.6533V2.47651C54.0134 1.12116 52.5759 0.915801 51.1384 0.915801V0.710442H60.2562V0.915801C58.8598 0.915801 57.4223 1.12116 57.4223 2.47651Z" fill="#213721"/>
<path d="M42.8029 15.9479H42.5975C42.5975 11.4712 41.4475 10.7729 40.01 10.7729H38.86C37.6279 10.7729 36.3136 10.9372 35.0815 11.2658V27.6533C35.0815 28.9676 36.4779 28.9676 37.8743 28.9676H44.4046C45.7189 28.9676 46.5403 28.8033 46.91 27.6122L48.4707 22.4372L48.676 22.4783L46.8278 29.4194H28.8386V29.214C30.235 29.214 31.6725 28.9676 31.6725 27.6533V12.8676C30.1118 14.0176 29.044 15.7015 29.044 18.0015H28.8386C28.8386 15.4962 29.9886 13.6479 31.6725 12.4158V2.47651C31.6725 1.12116 30.235 0.915801 28.8386 0.915801V0.710442H46.8278L48.676 7.61044L48.4707 7.69258L46.91 2.47651C46.5403 1.32651 45.7189 1.12116 44.4046 1.12116H37.8743C36.4779 1.12116 35.0815 1.12116 35.0815 2.47651V10.8551C36.3136 10.5265 37.6279 10.3622 38.86 10.3622H40.01C41.4475 10.3622 42.5975 10.0747 42.5975 7.40509H42.8029V15.9479Z" fill="#213721"/>
<path d="M9.19784 0.710423V0.915782C8.00678 0.915782 6.73357 1.08007 6.65142 1.98364L13.7568 21.3283L14.8246 24.3265L22.546 2.4765H22.5049C22.9156 1.12114 21.1085 0.915782 19.7121 0.915782V0.710423H26.3656V0.915782C25.0514 0.915782 23.6139 1.03899 23.0799 2.14792L13.5103 29.4194H13.0585V29.3783L3.16037 2.4765C2.70858 0.956853 1.51752 0.915782 0.121094 0.915782V0.710423H9.19784Z" fill="#213721"/>
<path d="M143.6 54.4775C142.788 54.4775 142.175 54.2511 141.763 53.7984C141.363 53.3591 141.164 52.8132 141.164 52.1608C141.164 51.5617 141.31 50.9292 141.603 50.2635C141.909 49.5978 142.309 48.972 142.801 48.3862C143.307 47.8004 143.86 47.3277 144.459 46.9683C145.058 46.5955 145.65 46.4091 146.236 46.4091C146.542 46.4091 146.822 46.489 147.075 46.6487C147.341 46.8085 147.474 47.1347 147.474 47.6273C147.474 48.1333 147.321 48.6126 147.015 49.0652C146.722 49.5046 146.329 49.8974 145.837 50.2436C145.358 50.5897 144.825 50.876 144.239 51.1023C143.667 51.3153 143.094 51.4485 142.522 51.5017C142.495 51.6349 142.475 51.7614 142.462 51.8812C142.448 52.001 142.442 52.1142 142.442 52.2207C142.442 52.4204 142.462 52.6201 142.502 52.8198C142.555 53.0196 142.641 53.206 142.761 53.379C142.881 53.5388 143.041 53.6653 143.241 53.7585C143.454 53.8517 143.713 53.8983 144.019 53.8983C144.592 53.8983 145.158 53.7385 145.717 53.419C146.276 53.0861 146.795 52.6534 147.275 52.1208C147.754 51.5883 148.16 51.0025 148.493 50.3634L148.733 50.5431C148.373 51.342 147.914 52.0343 147.355 52.6201C146.809 53.206 146.21 53.6586 145.557 53.9782C144.918 54.311 144.266 54.4775 143.6 54.4775ZM142.621 51.1223C142.981 51.0025 143.387 50.8294 143.84 50.603C144.292 50.3634 144.725 50.0838 145.138 49.7642C145.564 49.4447 145.91 49.0919 146.176 48.7058C146.456 48.3197 146.596 47.9136 146.596 47.4875C146.596 47.3411 146.569 47.2279 146.516 47.148C146.463 47.0681 146.349 47.0282 146.176 47.0282C145.857 47.0282 145.517 47.1547 145.158 47.4076C144.798 47.6473 144.452 47.9668 144.119 48.3663C143.786 48.7657 143.487 49.205 143.221 49.6844C142.954 50.1637 142.755 50.643 142.621 51.1223Z" fill="#213721"/>
<path d="M137.956 54.118C137.503 54.118 137.143 53.9982 136.877 53.7585C136.624 53.5188 136.498 53.206 136.498 52.8198C136.498 52.4204 136.591 52.001 136.777 51.5617C136.964 51.1223 137.143 50.6896 137.316 50.2635C137.503 49.8242 137.596 49.4314 137.596 49.0852C137.596 48.6592 137.47 48.3463 137.217 48.1466C136.977 47.9335 136.731 47.7405 136.478 47.5674C136.171 48.3529 135.852 49.0985 135.519 49.8042C135.186 50.5098 134.913 51.0424 134.7 51.4019L134.521 51.0624C134.707 50.7162 134.947 50.2103 135.239 49.5446C135.546 48.8789 135.845 48.1199 136.138 47.2678C136.005 47.1347 135.938 46.9749 135.938 46.7885C135.938 46.3891 136.052 46.0629 136.278 45.8099C136.504 45.557 136.671 45.4305 136.777 45.4305C136.924 45.4305 137.004 45.4971 137.017 45.6302C137.044 45.75 137.057 45.8432 137.057 45.9098C137.057 45.9764 137.017 46.1095 136.937 46.3092C136.87 46.4956 136.837 46.6088 136.837 46.6487C136.837 46.8351 136.937 47.0082 137.137 47.168C137.35 47.3144 137.589 47.4875 137.856 47.6872C138.122 47.8736 138.355 48.1066 138.555 48.3862C138.768 48.6525 138.874 48.9987 138.874 49.4247C138.874 49.8242 138.788 50.2302 138.615 50.643C138.455 51.0557 138.288 51.4485 138.115 51.8213C137.956 52.1941 137.876 52.5203 137.876 52.7999C137.876 53.0395 137.936 53.1993 138.055 53.2792C138.175 53.3591 138.315 53.399 138.475 53.399C138.794 53.399 139.121 53.2992 139.453 53.0994C139.8 52.8997 140.132 52.6468 140.452 52.3405C140.772 52.0343 141.058 51.7148 141.311 51.3819C141.564 51.0357 141.75 50.7162 141.87 50.4233L142.13 50.623C141.877 51.1822 141.53 51.7347 141.091 52.2806C140.652 52.8132 140.159 53.2526 139.613 53.5987C139.081 53.9449 138.528 54.118 137.956 54.118Z" fill="#213721"/>
<path d="M126.761 54.5373C126.348 54.5373 126.002 54.3975 125.723 54.1179C125.43 53.8517 125.283 53.4389 125.283 52.8797C125.283 52.4004 125.39 51.8878 125.603 51.3419C125.816 50.7827 126.109 50.2369 126.481 49.7043C126.854 49.1584 127.274 48.6658 127.74 48.2264C128.219 47.7737 128.718 47.4143 129.238 47.148C129.77 46.8817 130.296 46.7485 130.815 46.7485C131.334 46.7485 131.767 46.8883 132.113 47.1679C132.46 47.4342 132.633 47.7937 132.633 48.2464C132.633 48.5792 132.539 48.8056 132.353 48.9254C132.18 49.0452 131.947 49.1052 131.654 49.1052C131.681 48.9986 131.701 48.8855 131.714 48.7656C131.741 48.6325 131.754 48.5127 131.754 48.4062C131.754 48.0999 131.681 47.8403 131.534 47.6273C131.388 47.4009 131.135 47.2878 130.775 47.2878C130.403 47.2878 130.023 47.4209 129.637 47.6872C129.251 47.9402 128.878 48.2863 128.519 48.7257C128.159 49.1518 127.84 49.6178 127.56 50.1237C127.28 50.6296 127.061 51.1289 126.901 51.6215C126.741 52.1142 126.661 52.5535 126.661 52.9396C126.661 53.4589 126.841 53.7185 127.2 53.7185C127.507 53.7185 127.84 53.5787 128.199 53.2991C128.558 53.0062 128.925 52.6401 129.297 52.2007C129.684 51.748 130.05 51.282 130.396 50.8027C130.742 50.3234 131.048 49.884 131.315 49.4846C131.368 49.4047 131.401 49.3648 131.414 49.3648C131.494 49.3781 131.594 49.4047 131.714 49.4447C131.847 49.4846 131.96 49.5379 132.053 49.6044C132.147 49.671 132.193 49.7575 132.193 49.8641C132.193 49.9839 132.133 50.1503 132.014 50.3633C131.894 50.5631 131.761 50.7961 131.614 51.0623C131.468 51.3286 131.334 51.6016 131.215 51.8812C131.095 52.1474 131.035 52.4004 131.035 52.6401C131.035 52.8398 131.088 53.0395 131.195 53.2392C131.301 53.4256 131.474 53.5188 131.714 53.5188C132.073 53.5188 132.546 53.2592 133.132 52.7399C133.718 52.2074 134.31 51.4152 134.909 50.3633L135.109 50.5631C134.829 51.282 134.47 51.9144 134.031 52.4603C133.591 53.0062 133.119 53.4323 132.613 53.7385C132.12 54.0447 131.634 54.1978 131.155 54.1978C130.662 54.1978 130.296 54.0514 130.056 53.7585C129.83 53.4655 129.717 53.146 129.717 52.7998C129.717 52.72 129.723 52.6334 129.737 52.5402C129.75 52.4337 129.763 52.3272 129.777 52.2207C129.204 52.9929 128.678 53.5721 128.199 53.9582C127.733 54.3443 127.254 54.5373 126.761 54.5373Z" fill="#213721"/>
<path d="M121.484 54.7171C120.845 54.7171 120.312 54.5041 119.886 54.078C119.46 53.652 119.247 53.0129 119.247 52.1608C119.247 51.4951 119.374 50.8493 119.627 50.2236C119.893 49.5845 120.239 49.012 120.665 48.506C121.091 48.0001 121.564 47.6007 122.083 47.3078C122.602 47.0015 123.115 46.8484 123.621 46.8484C124.167 46.8484 124.539 47.0082 124.739 47.3277C124.939 47.6473 125.039 47.9801 125.039 48.3263C125.039 48.7124 124.946 49.0519 124.759 49.3448C124.586 49.6377 124.346 49.7842 124.04 49.7842C123.814 49.7842 123.621 49.6843 123.461 49.4846C123.661 49.3781 123.834 49.1651 123.98 48.8455C124.127 48.5127 124.2 48.1998 124.2 47.9069C124.2 47.7471 124.167 47.6273 124.1 47.5474C124.047 47.4542 123.934 47.4076 123.761 47.4076C123.401 47.4076 123.028 47.5674 122.642 47.8869C122.269 48.2065 121.917 48.6192 121.584 49.1251C121.264 49.6311 120.998 50.1637 120.785 50.7228C120.585 51.282 120.485 51.808 120.485 52.3006C120.485 52.7133 120.585 53.0928 120.785 53.4389C120.985 53.7851 121.371 53.9582 121.943 53.9582C122.476 53.9582 123.008 53.8117 123.541 53.5188C124.087 53.2259 124.593 52.8065 125.059 52.2606C125.525 51.7148 125.898 51.0757 126.177 50.3434L126.437 50.5431C126.131 51.342 125.711 52.0609 125.179 52.7C124.646 53.3258 124.06 53.8184 123.421 54.1779C122.782 54.5374 122.136 54.7171 121.484 54.7171Z" fill="#213721"/>
<path d="M116.494 53.9982C116.028 53.9982 115.675 53.8783 115.436 53.6387C115.209 53.399 115.096 53.0928 115.096 52.72C115.096 52.4404 115.143 52.1475 115.236 51.8413C115.342 51.535 115.442 51.2222 115.535 50.9026C115.629 50.5698 115.675 50.2502 115.675 49.944C115.675 49.5712 115.595 49.3182 115.436 49.1851C115.289 49.0386 115.103 48.9654 114.876 48.9654C114.464 48.9654 114.044 49.1385 113.618 49.4847C113.192 49.8175 112.779 50.2502 112.38 50.7828C111.981 51.302 111.608 51.8413 111.262 52.4005C110.915 52.9597 110.609 53.4589 110.343 53.8983C110.13 53.8983 109.93 53.8584 109.744 53.7785C109.544 53.7119 109.391 53.6054 109.284 53.4589C109.284 53.3924 109.358 53.186 109.504 52.8398C109.637 52.4937 109.797 52.0676 109.983 51.5617C110.17 51.0557 110.336 50.5365 110.483 50.0039C110.629 49.4713 110.702 48.9854 110.702 48.546C110.782 48.4528 110.909 48.3596 111.082 48.2664C111.255 48.1732 111.435 48.1266 111.621 48.1266C111.981 48.1266 112.16 48.2997 112.16 48.6459C112.16 48.8589 112.1 49.2184 111.981 49.7243C111.861 50.2169 111.708 50.7362 111.521 51.2821C111.881 50.7362 112.28 50.197 112.719 49.6644C113.172 49.1185 113.651 48.6658 114.157 48.3064C114.663 47.9469 115.169 47.7671 115.675 47.7671C116.194 47.7671 116.567 47.9535 116.794 48.3263C117.033 48.6991 117.153 49.1119 117.153 49.5645C117.153 49.9773 117.087 50.3634 116.953 50.7229C116.82 51.069 116.68 51.4086 116.534 51.7414C116.401 52.061 116.334 52.3871 116.334 52.72C116.334 52.9996 116.388 53.1993 116.494 53.3191C116.614 53.4257 116.76 53.4789 116.933 53.4789C117.266 53.4789 117.599 53.3258 117.932 53.0196C118.265 52.7 118.584 52.3006 118.891 51.8213C119.21 51.342 119.49 50.856 119.729 50.3634L119.949 50.623C119.669 51.2754 119.357 51.8546 119.01 52.3605C118.664 52.8665 118.285 53.2659 117.872 53.5588C117.459 53.8517 117 53.9982 116.494 53.9982Z" fill="#213721"/>
<path d="M106.664 54.1179C106.145 54.1179 105.759 53.9515 105.506 53.6187C105.253 53.2991 105.127 52.9064 105.127 52.4404C105.127 52.1341 105.18 51.748 105.286 51.282C105.406 50.816 105.559 50.3301 105.746 49.8241C105.932 49.3049 106.145 48.8189 106.385 48.3662C106.638 47.9135 106.904 47.5474 107.184 47.2678C107.463 46.9749 107.736 46.8284 108.003 46.8284C108.122 46.8284 108.222 46.8684 108.302 46.9483C108.395 47.0148 108.442 47.1213 108.442 47.2678C108.442 47.4276 108.335 47.6872 108.122 48.0467C107.923 48.4062 107.683 48.8189 107.403 49.2849C107.124 49.7509 106.878 50.2435 106.664 50.7628C106.465 51.2687 106.365 51.7547 106.365 52.2207C106.365 52.7 106.445 53.0195 106.605 53.1793C106.764 53.3391 107.011 53.419 107.344 53.419C107.796 53.419 108.276 53.1926 108.781 52.7399C109.301 52.2872 109.847 51.4951 110.419 50.3633L110.599 50.5631C110.213 51.7081 109.654 52.5868 108.921 53.1993C108.202 53.8117 107.45 54.1179 106.664 54.1179ZM109.061 44.9711C108.848 44.9711 108.655 44.9179 108.482 44.8113C108.322 44.7048 108.242 44.5384 108.242 44.3121C108.242 44.0325 108.402 43.7928 108.722 43.5931C109.054 43.3801 109.381 43.2736 109.7 43.2736C109.9 43.2736 110.06 43.3202 110.179 43.4133C110.299 43.5065 110.359 43.6663 110.359 43.8927C110.359 44.1456 110.219 44.3919 109.94 44.6316C109.674 44.8579 109.381 44.9711 109.061 44.9711Z" fill="#213721"/>
<path d="M102.244 54.3576C101.872 54.3576 101.552 54.2311 101.286 53.9782C101.02 53.7252 100.806 53.4057 100.647 53.0196C100.5 52.6334 100.387 52.2407 100.307 51.8412C100.241 51.4285 100.207 51.069 100.207 50.7628C100.354 50.7628 100.567 50.7295 100.846 50.6629C101.126 50.5831 101.412 50.4699 101.705 50.3234C101.998 50.1637 102.244 49.964 102.444 49.7243C102.657 49.4713 102.764 49.1784 102.764 48.8456C102.764 48.566 102.664 48.3463 102.464 48.1865C102.264 48.0267 102.031 47.9469 101.765 47.9469C101.352 47.9469 100.966 48.0933 100.607 48.3862C100.247 48.6658 99.9211 49.0386 99.6282 49.5046C99.3486 49.9573 99.0956 50.4433 98.8693 50.9625C98.6429 51.4818 98.4499 51.9744 98.2901 52.4404C98.1303 52.9064 97.9972 53.2925 97.8907 53.5987C97.8108 53.8384 97.6976 53.9981 97.5512 54.078C97.4047 54.1712 97.2516 54.2178 97.0918 54.2178C96.8655 54.2178 96.699 54.1246 96.5925 53.9382C96.4993 53.7518 96.4394 53.5188 96.4128 53.2392C96.3995 52.9463 96.3928 52.6468 96.3928 52.3405C96.3928 51.6482 96.506 50.8493 96.7323 49.944C96.9587 49.0386 97.2582 48.1 97.631 47.128C98.0172 46.1428 98.4365 45.1908 98.8892 44.2721C99.3419 43.3535 99.7946 42.5213 100.247 41.7757C100.7 41.0301 101.119 40.4377 101.505 39.9983C101.892 39.5589 102.204 39.3392 102.444 39.3392C102.631 39.3392 102.777 39.4657 102.883 39.7187C103.003 39.9717 103.063 40.2779 103.063 40.6374C103.063 41.0901 102.963 41.6027 102.764 42.1752C102.564 42.7344 102.278 43.3002 101.905 43.8727C101.545 44.4452 101.113 44.9845 100.607 45.4904C100.114 45.9963 99.5749 46.429 98.9891 46.7885C98.5497 47.867 98.2169 48.9188 97.9905 49.944C97.7775 50.9559 97.671 51.808 97.671 52.5003C97.884 51.9677 98.137 51.3819 98.4299 50.7428C98.7361 50.1038 99.0823 49.4913 99.4684 48.9055C99.8545 48.3197 100.274 47.8403 100.727 47.4675C101.179 47.0947 101.652 46.9083 102.145 46.9083C102.637 46.9083 103.057 47.0814 103.403 47.4276C103.749 47.7738 103.922 48.1932 103.922 48.6858C103.922 49.1118 103.809 49.478 103.582 49.7842C103.369 50.0771 103.103 50.3168 102.784 50.5032C102.477 50.6763 102.165 50.8094 101.845 50.9026C101.539 50.9825 101.286 51.0224 101.086 51.0224C101.099 51.1289 101.139 51.322 101.206 51.6016C101.272 51.8812 101.366 52.1741 101.485 52.4803C101.619 52.7866 101.778 53.0528 101.965 53.2792C102.151 53.4922 102.378 53.5987 102.644 53.5987C103.03 53.5987 103.396 53.4523 103.742 53.1594C104.088 52.8664 104.415 52.4803 104.721 52.001C105.04 51.5084 105.333 50.9559 105.6 50.3434L105.799 50.5431C105.613 51.1955 105.327 51.8146 104.941 52.4004C104.554 52.973 104.122 53.439 103.642 53.7984C103.176 54.1712 102.71 54.3576 102.244 54.3576ZM99.3286 45.9897C99.9411 45.497 100.474 44.9379 100.926 44.3121C101.392 43.6863 101.752 43.0872 102.005 42.5147C102.258 41.9288 102.384 41.4695 102.384 41.1367C102.384 41.0701 102.378 41.0235 102.364 40.9969C102.364 40.9702 102.351 40.9569 102.324 40.9569C102.191 40.9569 101.958 41.1899 101.625 41.6559C101.306 42.1219 100.94 42.741 100.527 43.5132C100.114 44.2721 99.7147 45.0976 99.3286 45.9897Z" fill="#213721"/>
<path d="M91.5257 54.6173C90.8999 54.6173 90.4007 54.4775 90.0279 54.1979C89.6684 53.9316 89.4154 53.5987 89.269 53.1993C89.1092 52.7999 89.0293 52.4004 89.0293 52.001C89.0293 51.6016 89.0826 51.2954 89.1891 51.0823C89.2956 50.8693 89.4221 50.7095 89.5685 50.603C89.7283 50.4965 89.8747 50.4166 90.0079 50.3634C90.1543 50.3101 90.2542 50.2569 90.3075 50.2036C90.7069 49.7642 91.073 49.3049 91.4059 48.8256C91.7387 48.3463 92.0316 47.8403 92.2846 47.3078V47.0681C92.2846 46.5755 92.3645 46.2293 92.5243 46.0296C92.6974 45.8166 92.8771 45.7101 93.0635 45.7101C93.17 45.7101 93.2499 45.7367 93.3031 45.79C93.3564 45.8432 93.383 45.9031 93.383 45.9697C93.383 46.0363 93.3631 46.1428 93.3231 46.2892C93.2832 46.4357 93.2632 46.6221 93.2632 46.8484C93.2632 47.2878 93.3497 47.7671 93.5228 48.2864C93.6959 48.7923 93.869 49.3315 94.0421 49.904C94.2152 50.4632 94.3017 51.0491 94.3017 51.6615C94.3017 51.8346 94.2884 52.0077 94.2618 52.1808C94.2485 52.3405 94.2218 52.4936 94.1819 52.6401C94.6479 52.5602 95.0872 52.3538 95.5 52.021C95.9127 51.6748 96.3122 51.1289 96.6983 50.3834L96.878 50.5831C96.625 51.3153 96.2456 51.8745 95.7396 52.2606C95.2337 52.6334 94.6812 52.8664 94.082 52.9596C93.869 53.5322 93.5295 53.9516 93.0635 54.2178C92.6108 54.4841 92.0982 54.6173 91.5257 54.6173ZM91.5656 53.9183C91.7254 53.9183 91.9384 53.865 92.2047 53.7585C92.471 53.652 92.6774 53.379 92.8238 52.9397C92.2646 52.8332 91.7654 52.6135 91.326 52.2806C90.8999 51.9478 90.5804 51.6149 90.3674 51.2821C90.0745 51.2954 89.928 51.5284 89.928 51.9811C89.928 52.4604 90.0678 52.9064 90.3474 53.3191C90.6403 53.7186 91.0464 53.9183 91.5656 53.9183ZM92.9237 52.6201C92.9503 52.487 92.9703 52.3472 92.9836 52.2007C92.9969 52.0543 93.0036 51.8812 93.0036 51.6815C93.0036 51.0557 92.9237 50.4366 92.7639 49.8242C92.6175 49.1984 92.491 48.6126 92.3845 48.0667C92.0782 48.5726 91.752 49.0586 91.4059 49.5246C91.073 49.9773 90.7535 50.3567 90.4473 50.6629C90.647 51.089 90.9532 51.4884 91.3659 51.8612C91.792 52.234 92.3112 52.487 92.9237 52.6201Z" fill="#213721"/>
<path d="M75.7694 55.3362C74.9705 55.3362 74.2782 55.1698 73.6924 54.8369C73.1066 54.5041 72.6539 54.0647 72.3343 53.5188C72.0281 52.9596 71.875 52.3538 71.875 51.7014C71.875 51.089 72.0081 50.4898 72.2744 49.904C72.5407 49.3182 72.9068 48.7856 73.3728 48.3063C73.8522 47.8137 74.4047 47.4143 75.0305 47.108C75.6562 46.7885 76.3286 46.5954 77.0476 46.5289C76.5283 46.1028 76.1422 45.6102 75.8892 45.051C75.6496 44.4918 75.5297 43.9326 75.5297 43.3734C75.5297 42.6678 75.7095 42.0021 76.069 41.3763C76.4284 40.7372 76.9144 40.2246 77.5269 39.8385C78.1526 39.4391 78.8649 39.2394 79.6638 39.2394C80.3828 39.2394 80.922 39.4191 81.2815 39.7786C81.6543 40.1381 81.8407 40.664 81.8407 41.3563C81.8407 41.8489 81.7608 42.3349 81.601 42.8142C81.4412 43.2802 81.2415 43.6663 81.0019 43.9726C80.7755 44.2655 80.5492 44.4119 80.3228 44.4119C80.1764 44.4119 80.0366 44.352 79.9034 44.2322C79.7703 44.099 79.6638 43.9459 79.5839 43.7728C80.0499 43.3601 80.436 42.934 80.7422 42.4947C81.0618 42.042 81.2216 41.556 81.2216 41.0368C81.2216 40.624 81.1084 40.2912 80.882 40.0382C80.669 39.7719 80.3295 39.6388 79.8635 39.6388C79.2377 39.6388 78.7118 39.8318 78.2858 40.218C77.8597 40.5908 77.5335 41.09 77.3072 41.7158C77.0942 42.3283 76.9876 42.994 76.9876 43.7129C76.9876 44.0325 77.0143 44.372 77.0675 44.7315C77.1341 45.0909 77.2473 45.4438 77.407 45.7899C77.5801 46.1361 77.8264 46.449 78.146 46.7286C77.2539 46.875 76.475 47.2146 75.8093 47.7471C75.1569 48.2797 74.6444 48.9055 74.2716 49.6244C73.9121 50.3434 73.7323 51.0557 73.7323 51.7613C73.7323 52.2007 73.8122 52.6467 73.972 53.0994C74.1451 53.5388 74.418 53.9049 74.7908 54.1978C75.1636 54.5041 75.6629 54.6572 76.2886 54.6572C76.9943 54.6572 77.6733 54.4774 78.3257 54.118C78.9914 53.7585 79.5906 53.2792 80.1231 52.68C80.669 52.0809 81.115 51.4085 81.4612 50.6629C81.8074 49.904 82.0271 49.1251 82.1203 48.3263C81.8407 48.3396 81.581 48.3596 81.3414 48.3862C81.115 48.4128 80.8621 48.4528 80.5825 48.506C80.3029 48.546 79.9434 48.6125 79.504 48.7057C79.5306 48.1465 79.7437 47.7737 80.1431 47.5874C80.5425 47.401 81.0218 47.3078 81.581 47.3078C81.9805 47.3078 82.3599 47.3344 82.7194 47.3876C83.0789 47.4409 83.4184 47.4942 83.7379 47.5474C84.0708 47.6007 84.3704 47.634 84.6366 47.6473C84.4902 47.9535 84.3437 48.1399 84.1973 48.2065C84.0641 48.2597 83.931 48.2863 83.7978 48.2863C83.5715 48.2863 83.3585 48.293 83.1588 48.3063C82.9724 48.3063 82.7993 48.3063 82.6395 48.3063C82.5463 49.225 82.2933 50.1037 81.8806 50.9425C81.4812 51.7813 80.9619 52.5336 80.3228 53.1993C79.6971 53.8517 78.9914 54.3709 78.2059 54.757C77.4337 55.1431 76.6215 55.3362 75.7694 55.3362Z" fill="#213721"/>
<path d="M63.6844 54.1978C63.1119 54.1978 62.6991 53.9981 62.4462 53.5987C62.2065 53.2126 62.0867 52.7266 62.0867 52.1408C62.0867 51.5017 62.2065 50.7428 62.4462 49.8641C62.6858 48.9853 62.9987 48.06 63.3848 47.0881C63.7842 46.1161 64.2169 45.1708 64.6829 44.2522C65.1489 43.3202 65.6149 42.4747 66.0809 41.7158C66.5469 40.9569 66.973 40.3511 67.3591 39.8984C67.7585 39.4457 68.0714 39.2194 68.2977 39.2194C68.4442 39.2194 68.564 39.3059 68.6572 39.479C68.7504 39.6388 68.8236 39.8385 68.8769 40.0782C68.9302 40.3045 68.9568 40.5109 68.9568 40.6973C68.9568 41.0568 68.8636 41.5294 68.6772 42.1152C68.5041 42.6877 68.2511 43.3335 67.9183 44.0524C67.5987 44.7581 67.2126 45.4771 66.7599 46.2093C66.3206 46.9283 65.8346 47.6206 65.302 48.2864C64.7828 48.9521 64.2303 49.5246 63.6444 50.0039C63.5645 50.3634 63.498 50.7162 63.4447 51.0624C63.4048 51.3952 63.3848 51.7148 63.3848 52.021C63.3848 52.5402 63.458 52.9263 63.6045 53.1793C63.7509 53.4323 63.9706 53.5588 64.2635 53.5588C64.623 53.5588 64.9758 53.399 65.322 53.0795C65.6815 52.7599 66.0143 52.3605 66.3206 51.8812C66.6401 51.3886 66.9131 50.8826 67.1394 50.3634L67.439 50.5231C66.9064 51.6548 66.3272 52.5535 65.7015 53.2193C65.0757 53.8717 64.4033 54.1978 63.6844 54.1978ZM63.8242 49.3249C64.2902 48.8589 64.7428 48.3263 65.1822 47.7272C65.6216 47.1147 66.0277 46.4823 66.4005 45.8299C66.7866 45.1775 67.1261 44.5451 67.419 43.9326C67.7119 43.3202 67.9382 42.7743 68.098 42.295C68.2578 41.8024 68.3377 41.4229 68.3377 41.1566C68.3377 41.0235 68.3177 40.9369 68.2778 40.897C68.2511 40.857 68.2245 40.8371 68.1979 40.8371C68.0914 40.8371 67.905 41.0102 67.6387 41.3563C67.3857 41.6892 67.0861 42.1419 66.74 42.7144C66.3938 43.2869 66.041 43.9393 65.6815 44.6716C65.322 45.4038 64.9758 46.1694 64.643 46.9683C64.3235 47.7671 64.0505 48.5526 63.8242 49.3249Z" fill="#213721"/>
<path d="M54.2872 54.5373C53.8745 54.5373 53.5283 54.3975 53.2487 54.1179C52.9558 53.8517 52.8093 53.4389 52.8093 52.8797C52.8093 52.4004 52.9158 51.8878 53.1289 51.3419C53.3419 50.7827 53.6348 50.2369 54.0076 49.7043C54.3804 49.1584 54.7998 48.6658 55.2658 48.2264C55.7451 47.7737 56.2444 47.4143 56.7636 47.148C57.2962 46.8817 57.8221 46.7485 58.3414 46.7485C58.8606 46.7485 59.2933 46.8883 59.6395 47.1679C59.9857 47.4342 60.1588 47.7937 60.1588 48.2464C60.1588 48.5792 60.0656 48.8056 59.8792 48.9254C59.7061 49.0452 59.4731 49.1052 59.1802 49.1052C59.2068 48.9986 59.2268 48.8855 59.2401 48.7656C59.2667 48.6325 59.28 48.5127 59.28 48.4062C59.28 48.0999 59.2068 47.8403 59.0603 47.6273C58.9139 47.4009 58.6609 47.2878 58.3014 47.2878C57.9286 47.2878 57.5492 47.4209 57.1631 47.6872C56.777 47.9402 56.4042 48.2863 56.0447 48.7257C55.6852 49.1518 55.3656 49.6178 55.0861 50.1237C54.8065 50.6296 54.5868 51.1289 54.427 51.6215C54.2672 52.1142 54.1873 52.5535 54.1873 52.9396C54.1873 53.4589 54.3671 53.7185 54.7266 53.7185C55.0328 53.7185 55.3656 53.5787 55.7251 53.2991C56.0846 53.0062 56.4508 52.6401 56.8235 52.2007C57.2097 51.748 57.5758 51.282 57.922 50.8027C58.2681 50.3234 58.5744 49.884 58.8406 49.4846C58.8939 49.4047 58.9272 49.3648 58.9405 49.3648C59.0204 49.3781 59.1202 49.4047 59.2401 49.4447C59.3732 49.4846 59.4864 49.5379 59.5796 49.6044C59.6728 49.671 59.7194 49.7575 59.7194 49.8641C59.7194 49.9839 59.6595 50.1503 59.5396 50.3633C59.4198 50.5631 59.2867 50.7961 59.1402 51.0623C58.9938 51.3286 58.8606 51.6016 58.7408 51.8812C58.621 52.1474 58.5611 52.4004 58.5611 52.6401C58.5611 52.8398 58.6143 53.0395 58.7208 53.2392C58.8273 53.4256 59.0004 53.5188 59.2401 53.5188C59.5996 53.5188 60.0722 53.2592 60.658 52.7399C61.2439 52.2074 61.8363 51.4152 62.4355 50.3633L62.6352 50.5631C62.3556 51.282 61.9961 51.9144 61.5567 52.4603C61.1174 53.0062 60.6447 53.4323 60.1388 53.7385C59.6462 54.0447 59.1602 54.1978 58.6809 54.1978C58.1883 54.1978 57.8221 54.0514 57.5825 53.7585C57.3561 53.4655 57.2429 53.146 57.2429 52.7998C57.2429 52.72 57.2496 52.6334 57.2629 52.5402C57.2762 52.4337 57.2895 52.3272 57.3029 52.2207C56.7304 52.9929 56.2044 53.5721 55.7251 53.9582C55.2591 54.3443 54.7798 54.5373 54.2872 54.5373Z" fill="#213721"/>
<path d="M49.9492 54.1179C49.4299 54.1179 49.0438 53.9515 48.7908 53.6187C48.5379 53.2991 48.4114 52.9064 48.4114 52.4404C48.4114 52.1341 48.4646 51.748 48.5711 51.282C48.691 50.816 48.8441 50.3301 49.0305 49.8241C49.2169 49.3049 49.4299 48.8189 49.6696 48.3662C49.9225 47.9135 50.1888 47.5474 50.4684 47.2678C50.748 46.9749 51.021 46.8284 51.2872 46.8284C51.4071 46.8284 51.5069 46.8684 51.5868 46.9483C51.68 47.0148 51.7266 47.1213 51.7266 47.2678C51.7266 47.4276 51.6201 47.6872 51.4071 48.0467C51.2074 48.4062 50.9677 48.8189 50.6881 49.2849C50.4085 49.7509 50.1622 50.2435 49.9492 50.7628C49.7495 51.2687 49.6496 51.7547 49.6496 52.2207C49.6496 52.7 49.7295 53.0195 49.8893 53.1793C50.049 53.3391 50.2953 53.419 50.6282 53.419C51.0809 53.419 51.5602 53.1926 52.0661 52.7399C52.5854 52.2872 53.1313 51.4951 53.7038 50.3633L53.8835 50.5631C53.4974 51.7081 52.9382 52.5868 52.2059 53.1993C51.4869 53.8117 50.7347 54.1179 49.9492 54.1179ZM52.3457 44.9711C52.1327 44.9711 51.9396 44.9179 51.7665 44.8113C51.6068 44.7048 51.5269 44.5384 51.5269 44.3121C51.5269 44.0325 51.6867 43.7928 52.0062 43.5931C52.3391 43.3801 52.6653 43.2736 52.9848 43.2736C53.1845 43.2736 53.3443 43.3202 53.4641 43.4133C53.5839 43.5065 53.6438 43.6663 53.6438 43.8927C53.6438 44.1456 53.504 44.3919 53.2245 44.6316C52.9582 44.8579 52.6653 44.9711 52.3457 44.9711Z" fill="#213721"/>
<path d="M44.1926 54.7171C43.5535 54.7171 43.0209 54.5041 42.5949 54.078C42.1688 53.652 41.9558 53.0129 41.9558 52.1608C41.9558 51.4951 42.0823 50.8493 42.3353 50.2236C42.6015 49.5845 42.9477 49.012 43.3738 48.506C43.7998 48.0001 44.2725 47.6007 44.7917 47.3078C45.311 47.0015 45.8236 46.8484 46.3295 46.8484C46.8754 46.8484 47.2482 47.0082 47.4479 47.3277C47.6476 47.6473 47.7475 47.9801 47.7475 48.3263C47.7475 48.7124 47.6543 49.0519 47.4679 49.3448C47.2948 49.6377 47.0551 49.7842 46.7489 49.7842C46.5226 49.7842 46.3295 49.6843 46.1697 49.4846C46.3695 49.3781 46.5425 49.1651 46.689 48.8455C46.8355 48.5127 46.9087 48.1998 46.9087 47.9069C46.9087 47.7471 46.8754 47.6273 46.8088 47.5474C46.7556 47.4542 46.6424 47.4076 46.4693 47.4076C46.1098 47.4076 45.737 47.5674 45.3509 47.8869C44.9781 48.2065 44.6253 48.6192 44.2924 49.1251C43.9729 49.6311 43.7066 50.1637 43.4936 50.7228C43.2939 51.282 43.194 51.808 43.194 52.3006C43.194 52.7133 43.2939 53.0928 43.4936 53.4389C43.6933 53.7851 44.0794 53.9582 44.6519 53.9582C45.1845 53.9582 45.7171 53.8117 46.2496 53.5188C46.7955 53.2259 47.3015 52.8065 47.7674 52.2606C48.2334 51.7148 48.6062 51.0757 48.8858 50.3434L49.1455 50.5431C48.8392 51.342 48.4198 52.0609 47.8873 52.7C47.3547 53.3258 46.7689 53.8184 46.1298 54.1779C45.4907 54.5374 44.845 54.7171 44.1926 54.7171Z" fill="#213721"/>
<path d="M34.316 54.5373C33.9033 54.5373 33.5571 54.3975 33.2775 54.1179C32.9846 53.8517 32.8381 53.4389 32.8381 52.8797C32.8381 52.4004 32.9446 51.8878 33.1577 51.3419C33.3707 50.7827 33.6636 50.2369 34.0364 49.7043C34.4092 49.1584 34.8286 48.6658 35.2946 48.2264C35.7739 47.7737 36.2732 47.4143 36.7924 47.148C37.325 46.8817 37.8509 46.7485 38.3702 46.7485C38.8894 46.7485 39.3221 46.8883 39.6683 47.1679C40.0145 47.4342 40.1876 47.7937 40.1876 48.2464C40.1876 48.5792 40.0944 48.8056 39.908 48.9254C39.7349 49.0452 39.5019 49.1052 39.209 49.1052C39.2356 48.9986 39.2556 48.8855 39.2689 48.7656C39.2955 48.6325 39.3088 48.5127 39.3088 48.4062C39.3088 48.0999 39.2356 47.8403 39.0891 47.6273C38.9427 47.4009 38.6897 47.2878 38.3302 47.2878C37.9574 47.2878 37.578 47.4209 37.1919 47.6872C36.8058 47.9402 36.433 48.2863 36.0735 48.7257C35.714 49.1518 35.3945 49.6178 35.1149 50.1237C34.8353 50.6296 34.6156 51.1289 34.4558 51.6215C34.296 52.1142 34.2162 52.5535 34.2162 52.9396C34.2162 53.4589 34.3959 53.7185 34.7554 53.7185C35.0616 53.7185 35.3945 53.5787 35.7539 53.2991C36.1134 53.0062 36.4796 52.6401 36.8524 52.2007C37.2385 51.748 37.6046 51.282 37.9508 50.8027C38.2969 50.3234 38.6032 49.884 38.8695 49.4846C38.9227 49.4047 38.956 49.3648 38.9693 49.3648C39.0492 49.3781 39.1491 49.4047 39.2689 49.4447C39.402 49.4846 39.5152 49.5379 39.6084 49.6044C39.7016 49.671 39.7482 49.7575 39.7482 49.8641C39.7482 49.9839 39.6883 50.1503 39.5684 50.3633C39.4486 50.5631 39.3155 50.7961 39.169 51.0623C39.0226 51.3286 38.8894 51.6016 38.7696 51.8812C38.6498 52.1474 38.5899 52.4004 38.5899 52.6401C38.5899 52.8398 38.6431 53.0395 38.7496 53.2392C38.8561 53.4256 39.0292 53.5188 39.2689 53.5188C39.6284 53.5188 40.101 53.2592 40.6868 52.7399C41.2727 52.2074 41.8651 51.4152 42.4643 50.3633L42.664 50.5631C42.3844 51.282 42.0249 51.9144 41.5855 52.4603C41.1462 53.0062 40.6735 53.4323 40.1676 53.7385C39.675 54.0447 39.189 54.1978 38.7097 54.1978C38.2171 54.1978 37.8509 54.0514 37.6113 53.7585C37.3849 53.4655 37.2718 53.146 37.2718 52.7998C37.2718 52.72 37.2784 52.6334 37.2917 52.5402C37.305 52.4337 37.3184 52.3272 37.3317 52.2207C36.7592 52.9929 36.2332 53.5721 35.7539 53.9582C35.2879 54.3443 34.8086 54.5373 34.316 54.5373Z" fill="#213721"/>
<path d="M27.5967 55.3362C26.9842 55.283 26.6048 55.1165 26.4583 54.8369C26.3119 54.5574 26.2386 54.1979 26.2386 53.7585C26.2386 53.2792 26.3385 52.6934 26.5382 52.001C26.7379 51.2954 26.9842 50.5298 27.2771 49.7043C27.5834 48.8789 27.8896 48.0534 28.1958 47.2279C28.036 47.2412 27.863 47.2612 27.6766 47.2878C27.5035 47.3011 27.2838 47.3278 27.0175 47.3677C26.7512 47.3943 26.4051 47.4409 25.979 47.5075C26.0056 47.1613 26.1321 46.895 26.3585 46.7086C26.5981 46.5089 26.911 46.3625 27.2971 46.2693C27.6832 46.1761 28.1159 46.1228 28.5952 46.1095C28.968 45.0843 29.3475 44.0858 29.7336 43.1138C30.133 42.1286 30.5258 41.2299 30.9119 40.4177C30.7788 40.4044 30.6456 40.3977 30.5125 40.3977C30.3927 40.3844 30.2662 40.3778 30.133 40.3778C29.2809 40.3778 28.6219 40.4643 28.1559 40.6374C27.6899 40.8105 27.3703 41.0768 27.1973 41.4362C27.0242 41.7957 26.9376 42.2551 26.9376 42.8143C26.9376 43.1072 26.9576 43.3801 26.9975 43.6331C27.0375 43.8727 27.1041 44.1257 27.1973 44.392C26.7446 44.3121 26.4117 44.139 26.1987 43.8727C25.9857 43.5931 25.8792 43.247 25.8792 42.8342C25.8792 42.1419 26.1255 41.5361 26.6181 41.0168C27.1107 40.4843 27.7698 40.0715 28.5952 39.7786C29.434 39.4724 30.3594 39.3193 31.3712 39.3193C32.0769 39.3193 32.7559 39.3725 33.4083 39.4791C34.074 39.5722 34.7198 39.6188 35.3455 39.6188C35.6251 39.6188 35.8781 39.6055 36.1044 39.5789C36.3441 39.539 36.5837 39.4857 36.8234 39.4191C36.3308 39.9783 35.918 40.3511 35.5852 40.5375C35.2523 40.7239 34.9128 40.8171 34.5666 40.8171C34.2604 40.8171 33.861 40.7772 33.3684 40.6973C32.8891 40.6041 32.3432 40.5309 31.7307 40.4776C31.5576 40.917 31.3646 41.4495 31.1516 42.0753C30.9385 42.6878 30.7189 43.3468 30.4925 44.0525C30.2662 44.7448 30.0398 45.4371 29.8135 46.1295C30.4792 46.1694 31.105 46.2293 31.6908 46.3092C32.2899 46.3891 32.8291 46.4357 33.3085 46.449C33.2019 46.6088 33.0755 46.7353 32.929 46.8285C32.7959 46.9084 32.6028 46.9683 32.3498 47.0082C32.0969 47.0482 31.744 47.0814 31.2914 47.1081C30.852 47.1214 30.2595 47.1347 29.5139 47.148C29.434 47.4276 29.3342 47.7605 29.2144 48.1466C29.0945 48.5327 28.988 48.8988 28.8948 49.245C28.8016 49.5912 28.7284 49.8441 28.6751 50.0039C28.3822 51.0291 28.1292 51.9877 27.9162 52.8798C27.7165 53.7718 27.61 54.5906 27.5967 55.3362Z" fill="#213721"/>
</svg>
