<svg width="115" height="37" viewBox="0 0 115 37" fill="none" xmlns="http://www.w3.org/2000/svg">
<path d="M106.994 10.8869V18.2086C106.994 19.07 107.936 19.2046 108.851 19.2046V19.3661H102.902V19.2046C103.818 19.2046 104.76 19.07 104.76 18.2086V11.4791L99.3492 1.70778C98.784 0.738721 98.3263 0.684885 97.4111 0.684885V0.550293H103.387V0.684885C102.472 0.684885 101.422 0.792557 101.88 1.65394L106.536 10.0793H106.563L106.832 10.5908L111.516 1.70778C112.028 0.819476 111.301 0.684885 110.386 0.684885V0.550293H114.746V0.684885C113.804 0.684885 112.351 0.846394 111.839 1.70778L106.994 10.8869Z" fill="#899F87"/>
<path d="M81.981 5.07261L83.1923 0.523438H94.5786L95.7899 5.07261L95.6553 5.09953L94.6325 1.70784C94.3633 0.954129 93.8518 0.819538 92.9905 0.819538H91.8061C90.9178 0.819538 90.0025 0.819538 90.0025 1.68092V18.2087C90.0025 19.0701 90.9447 19.2047 91.8599 19.2047V19.3662H85.8841V19.2047C86.8262 19.2047 87.7683 19.0701 87.7683 18.2087V1.68092C87.7683 0.819538 86.8531 0.819538 85.9379 0.819538H84.7804C83.9191 0.819538 83.3807 0.954129 83.1384 1.70784L82.1156 5.09953L81.981 5.07261Z" fill="#899F87"/>
<path d="M76.5174 10.5369H76.3828C76.3828 7.60286 75.6291 7.14525 74.687 7.14525H73.9332C73.1257 7.14525 72.2643 7.25292 71.4568 7.46827V18.2086C71.4568 19.07 72.372 19.07 73.2872 19.07H77.5672C78.4286 19.07 78.9669 18.9623 79.2092 18.1817L80.2321 14.79L80.3667 14.8169L79.1553 19.3661H67.3652V19.2315C68.2804 19.2315 69.2226 19.07 69.2226 18.2086V8.51807C68.1997 9.27178 67.4998 10.3754 67.4998 11.8828H67.3652C67.3652 10.2408 68.1189 9.02952 69.2226 8.22197V1.70778C69.2226 0.819476 68.2804 0.684885 67.3652 0.684885V0.550293H79.1553L80.3667 5.07255L80.2321 5.12638L79.2092 1.70778C78.9669 0.954067 78.4286 0.819476 77.5672 0.819476H73.2872C72.372 0.819476 71.4568 0.819476 71.4568 1.70778V7.19908C72.2643 6.98374 73.1257 6.87607 73.9332 6.87607H74.687C75.6291 6.87607 76.3828 6.68764 76.3828 4.93796H76.5174V10.5369Z" fill="#899F87"/>
<path d="M54.4923 0.550293V0.684885C53.7117 0.684885 52.8773 0.792557 52.8234 1.38476L57.4803 14.0632L58.1801 16.0282L63.2407 1.70778H63.2138C63.483 0.819476 62.2986 0.684885 61.3834 0.684885V0.550293H65.7441V0.684885C64.8827 0.684885 63.9406 0.765639 63.5907 1.49243L57.3187 19.3661H57.0227V19.3392L50.5354 1.70778C50.2393 0.711803 49.4587 0.684885 48.5435 0.684885V0.550293H54.4923Z" fill="#899F87"/>
<path d="M38.0198 1.70778V18.2086C38.0198 19.07 38.935 19.0969 39.8233 19.0969H44.1033C44.9916 19.0969 45.5031 18.9623 45.7722 18.2086L46.7951 14.79L46.9297 14.8438L45.7184 19.3661H33.9014V19.2315C34.8435 19.2315 35.7856 19.0969 35.7856 18.2086V1.70778C35.7856 0.819476 34.8435 0.684885 33.9014 0.684885V0.550293H39.8772V0.684885C38.962 0.684885 38.0198 0.819476 38.0198 1.70778Z" fill="#899F87"/>
<path d="M28.4383 10.5369H28.3037C28.3037 7.60286 27.55 7.14525 26.6079 7.14525H25.8541C25.0466 7.14525 24.1852 7.25292 23.3777 7.46827V18.2086C23.3777 19.07 24.2929 19.07 25.2081 19.07H29.4881C30.3495 19.07 30.8878 18.9623 31.1301 18.1817L32.153 14.79L32.2876 14.8169L31.0763 19.3661H19.2861V19.2315C20.2013 19.2315 21.1435 19.07 21.1435 18.2086V8.51807C20.1206 9.27178 19.4207 10.3754 19.4207 11.8828H19.2861C19.2861 10.2408 20.0398 9.02952 21.1435 8.22197V1.70778C21.1435 0.819476 20.2013 0.684885 19.2861 0.684885V0.550293H31.0763L32.2876 5.07255L32.153 5.12638L31.1301 1.70778C30.8878 0.954067 30.3495 0.819476 29.4881 0.819476H25.2081C24.2929 0.819476 23.3777 0.819476 23.3777 1.70778V7.19908C24.1852 6.98374 25.0466 6.87607 25.8541 6.87607H26.6079C27.55 6.87607 28.3037 6.68764 28.3037 4.93796H28.4383V10.5369Z" fill="#899F87"/>
<path d="M6.41325 0.550293V0.684885C5.63263 0.684885 4.79817 0.792557 4.74433 1.38476L9.40116 14.0632L10.101 16.0282L15.1616 1.70778H15.1347C15.4039 0.819476 14.2195 0.684885 13.3043 0.684885V0.550293H17.665V0.684885C16.8036 0.684885 15.8615 0.765639 15.5116 1.49243L9.23965 19.3661H8.94355V19.3392L2.45629 1.70778C2.16019 0.711803 1.37957 0.684885 0.464355 0.684885V0.550293H6.41325Z" fill="#899F87"/>
<path d="M94.5058 35.9128C93.9734 35.9128 93.572 35.7644 93.3014 35.4677C93.0396 35.1797 92.9087 34.8218 92.9087 34.3942C92.9087 34.0015 93.0047 33.5869 93.1967 33.1506C93.3974 32.7142 93.6592 32.304 93.9821 31.92C94.3138 31.536 94.676 31.2262 95.0687 30.9906C95.4614 30.7462 95.8498 30.624 96.2338 30.624C96.4345 30.624 96.6178 30.6764 96.7836 30.7811C96.9581 30.8858 97.0454 31.0997 97.0454 31.4226C97.0454 31.7542 96.9451 32.0684 96.7443 32.3651C96.5523 32.6531 96.2949 32.9106 95.972 33.1375C95.6578 33.3644 95.3087 33.552 94.9247 33.7004C94.5494 33.84 94.1741 33.9273 93.7989 33.9622C93.7814 34.0495 93.7683 34.1324 93.7596 34.2109C93.7509 34.2895 93.7465 34.3637 93.7465 34.4335C93.7465 34.5644 93.7596 34.6953 93.7858 34.8262C93.8207 34.9571 93.8774 35.0793 93.956 35.1928C94.0345 35.2975 94.1392 35.3804 94.2701 35.4415C94.4098 35.5026 94.58 35.5331 94.7807 35.5331C95.156 35.5331 95.5269 35.4284 95.8934 35.2189C96.26 35.0008 96.6003 34.7171 96.9145 34.368C97.2287 34.0189 97.4949 33.6349 97.7131 33.216L97.8701 33.3338C97.6345 33.8575 97.3334 34.3113 96.9669 34.6953C96.6091 35.0793 96.2163 35.376 95.7887 35.5855C95.3698 35.8037 94.9421 35.9128 94.5058 35.9128ZM93.8643 33.7135C94.1 33.6349 94.3661 33.5215 94.6629 33.3731C94.9596 33.216 95.2432 33.0328 95.5138 32.8233C95.7931 32.6138 96.02 32.3826 96.1945 32.1295C96.3778 31.8764 96.4694 31.6102 96.4694 31.3309C96.4694 31.2349 96.452 31.1608 96.4171 31.1084C96.3821 31.056 96.308 31.0298 96.1945 31.0298C95.9851 31.0298 95.7625 31.1128 95.5269 31.2786C95.2912 31.4357 95.0643 31.6451 94.8461 31.9069C94.628 32.1688 94.4316 32.4568 94.2571 32.7709C94.0825 33.0851 93.9516 33.3993 93.8643 33.7135Z" fill="#899F87"/>
<path d="M90.8053 35.6775C90.5086 35.6775 90.273 35.5989 90.0984 35.4418C89.9326 35.2847 89.8497 35.0796 89.8497 34.8265C89.8497 34.5647 89.9108 34.2898 90.033 34.0018C90.1552 33.7138 90.273 33.4302 90.3864 33.1509C90.5086 32.8629 90.5697 32.6055 90.5697 32.3785C90.5697 32.0993 90.4868 31.8942 90.321 31.7633C90.1639 31.6236 90.0024 31.4971 89.8366 31.3836C89.6359 31.8985 89.4264 32.3873 89.2083 32.8498C88.9901 33.3124 88.8112 33.6615 88.6715 33.8971L88.5537 33.6745C88.6759 33.4476 88.833 33.116 89.025 32.6796C89.2257 32.2433 89.4221 31.7458 89.6141 31.1873C89.5268 31.1 89.4832 30.9953 89.4832 30.8731C89.4832 30.6113 89.5574 30.3975 89.7057 30.2316C89.8541 30.0658 89.9632 29.9829 90.033 29.9829C90.129 29.9829 90.1813 30.0265 90.1901 30.1138C90.2075 30.1924 90.2163 30.2535 90.2163 30.2971C90.2163 30.3407 90.1901 30.428 90.1377 30.5589C90.0941 30.6811 90.0723 30.7553 90.0723 30.7815C90.0723 30.9036 90.1377 31.0171 90.2686 31.1218C90.4083 31.2178 90.5654 31.3313 90.7399 31.4622C90.9144 31.5844 91.0672 31.7371 91.1981 31.9204C91.3377 32.0949 91.4075 32.3218 91.4075 32.6011C91.4075 32.8629 91.3508 33.1291 91.2373 33.3996C91.1326 33.6702 91.0235 33.9276 90.9101 34.172C90.8054 34.4164 90.753 34.6302 90.753 34.8135C90.753 34.9705 90.7923 35.0753 90.8708 35.1276C90.9493 35.18 91.041 35.2062 91.1457 35.2062C91.3552 35.2062 91.569 35.1407 91.7872 35.0098C92.0141 34.8789 92.2323 34.7131 92.4417 34.5124C92.6512 34.3116 92.8388 34.1022 93.0046 33.884C93.1704 33.6571 93.2926 33.4476 93.3712 33.2556L93.5413 33.3865C93.3755 33.7531 93.1486 34.1153 92.8606 34.4731C92.5726 34.8222 92.2497 35.1102 91.8919 35.3371C91.5428 35.564 91.1806 35.6775 90.8053 35.6775Z" fill="#899F87"/>
<path d="M83.4673 35.9526C83.1967 35.9526 82.9698 35.861 82.7865 35.6777C82.5945 35.5032 82.4985 35.2326 82.4985 34.8661C82.4985 34.5519 82.5684 34.2159 82.708 33.8581C82.8476 33.4915 83.0396 33.1337 83.284 32.7846C83.5284 32.4268 83.8033 32.1039 84.1087 31.8159C84.4229 31.5192 84.7502 31.2835 85.0905 31.109C85.4396 30.9344 85.7844 30.8472 86.1247 30.8472C86.4651 30.8472 86.7487 30.9388 86.9756 31.1221C87.2025 31.2966 87.316 31.5323 87.316 31.829C87.316 32.0472 87.2549 32.1955 87.1327 32.2741C87.0193 32.3526 86.8665 32.3919 86.6745 32.3919C86.692 32.3221 86.7051 32.2479 86.7138 32.1694C86.7313 32.0821 86.74 32.0035 86.74 31.9337C86.74 31.733 86.692 31.5628 86.596 31.4232C86.5 31.2748 86.3342 31.2006 86.0985 31.2006C85.8542 31.2006 85.6054 31.2879 85.3524 31.4624C85.0993 31.6283 84.8549 31.8552 84.6193 32.1432C84.3836 32.4224 84.1742 32.7279 83.9909 33.0595C83.8076 33.3912 83.6636 33.7184 83.5589 34.0414C83.4542 34.3643 83.4018 34.6523 83.4018 34.9054C83.4018 35.2457 83.5196 35.4159 83.7553 35.4159C83.956 35.4159 84.1742 35.3243 84.4098 35.141C84.6454 34.949 84.8854 34.709 85.1298 34.421C85.3829 34.1243 85.6229 33.8188 85.8498 33.5046C86.0767 33.1904 86.2774 32.9024 86.452 32.6406C86.4869 32.5883 86.5087 32.5621 86.5174 32.5621C86.5698 32.5708 86.6353 32.5883 86.7138 32.6144C86.8011 32.6406 86.8753 32.6755 86.9364 32.7192C86.9974 32.7628 87.028 32.8195 87.028 32.8893C87.028 32.9679 86.9887 33.077 86.9102 33.2166C86.8316 33.3475 86.7444 33.5003 86.6484 33.6748C86.5524 33.8494 86.4651 34.0283 86.3865 34.2115C86.308 34.3861 86.2687 34.5519 86.2687 34.709C86.2687 34.8399 86.3036 34.9708 86.3734 35.1017C86.4433 35.2239 86.5567 35.285 86.7138 35.285C86.9494 35.285 87.2593 35.1148 87.6433 34.7744C88.0273 34.4254 88.4156 33.9061 88.8084 33.2166L88.9393 33.3475C88.756 33.8188 88.5204 34.2334 88.2324 34.5912C87.9444 34.949 87.6345 35.2283 87.3029 35.429C86.98 35.6297 86.6614 35.7301 86.3473 35.7301C86.0244 35.7301 85.7844 35.6341 85.6273 35.4421C85.4789 35.2501 85.4047 35.0406 85.4047 34.8137C85.4047 34.7613 85.4091 34.7046 85.4178 34.6435C85.4265 34.5737 85.4353 34.5039 85.444 34.4341C85.0687 34.9403 84.724 35.3199 84.4098 35.573C84.1044 35.8261 83.7902 35.9526 83.4673 35.9526Z" fill="#899F87"/>
<path d="M80.0082 36.0699C79.5893 36.0699 79.2402 35.9303 78.9609 35.651C78.6816 35.3717 78.542 34.9528 78.542 34.3943C78.542 33.9579 78.6249 33.5347 78.7907 33.1245C78.9653 32.7056 79.1922 32.3303 79.4714 31.9987C79.7507 31.667 80.0605 31.4052 80.4009 31.2132C80.7413 31.0125 81.0773 30.9121 81.4089 30.9121C81.7667 30.9121 82.0111 31.0168 82.142 31.2263C82.2729 31.4357 82.3384 31.6539 82.3384 31.8808C82.3384 32.1339 82.2773 32.3565 82.1551 32.5485C82.0416 32.7405 81.8845 32.8365 81.6838 32.8365C81.5354 32.8365 81.4089 32.771 81.3042 32.6401C81.4351 32.5703 81.5485 32.4307 81.6445 32.2212C81.7405 32.003 81.7885 31.7979 81.7885 31.6059C81.7885 31.5012 81.7667 31.4227 81.7231 31.3703C81.6882 31.3092 81.614 31.2787 81.5005 31.2787C81.2649 31.2787 81.0205 31.3834 80.7674 31.5928C80.5231 31.8023 80.2918 32.0728 80.0736 32.4045C79.8642 32.7361 79.6896 33.0852 79.55 33.4517C79.4191 33.8183 79.3536 34.163 79.3536 34.4859C79.3536 34.7565 79.4191 35.0052 79.55 35.2321C79.6809 35.459 79.934 35.5725 80.3093 35.5725C80.6584 35.5725 81.0074 35.4765 81.3565 35.2845C81.7144 35.0925 82.046 34.8176 82.3515 34.4597C82.6569 34.1019 82.9013 33.683 83.0845 33.203L83.2547 33.3339C83.054 33.8576 82.7791 34.3288 82.43 34.7477C82.0809 35.1579 81.6969 35.4808 81.278 35.7165C80.8591 35.9521 80.4358 36.0699 80.0082 36.0699Z" fill="#899F87"/>
<path d="M76.738 35.599C76.4326 35.599 76.2013 35.5205 76.0442 35.3634C75.8958 35.2063 75.8217 35.0056 75.8217 34.7612C75.8217 34.5779 75.8522 34.3859 75.9133 34.1852C75.9831 33.9845 76.0486 33.7794 76.1097 33.5699C76.1708 33.3517 76.2013 33.1423 76.2013 32.9416C76.2013 32.6972 76.1489 32.5314 76.0442 32.4441C75.9482 32.3481 75.826 32.3001 75.6777 32.3001C75.4071 32.3001 75.1322 32.4136 74.8529 32.6405C74.5737 32.8586 74.3031 33.1423 74.0413 33.4914C73.7795 33.8317 73.5351 34.1852 73.3082 34.5517C73.0813 34.9183 72.8806 35.2456 72.706 35.5336C72.5664 35.5336 72.4355 35.5074 72.3133 35.455C72.1824 35.4114 72.082 35.3416 72.0122 35.2456C72.0122 35.2019 72.0602 35.0666 72.1562 34.8397C72.2435 34.6128 72.3482 34.3336 72.4704 34.0019C72.5926 33.6703 72.7017 33.3299 72.7977 32.9808C72.8937 32.6317 72.9417 32.3132 72.9417 32.0252C72.994 31.9641 73.0769 31.903 73.1904 31.8419C73.3038 31.7808 73.4217 31.7503 73.5438 31.7503C73.7795 31.7503 73.8973 31.8637 73.8973 32.0906C73.8973 32.2303 73.858 32.4659 73.7795 32.7976C73.7009 33.1205 73.6006 33.4608 73.4784 33.8186C73.714 33.4608 73.9758 33.1074 74.2638 32.7583C74.5606 32.4005 74.8748 32.1037 75.2064 31.8681C75.538 31.6325 75.8697 31.5146 76.2013 31.5146C76.5417 31.5146 76.786 31.6368 76.9344 31.8812C77.0915 32.1256 77.17 32.3961 77.17 32.6928C77.17 32.9634 77.1264 33.2165 77.0391 33.4521C76.9518 33.679 76.8602 33.9016 76.7642 34.1197C76.6769 34.3292 76.6333 34.543 76.6333 34.7612C76.6333 34.9445 76.6682 35.0754 76.738 35.1539C76.8166 35.2237 76.9126 35.2586 77.026 35.2586C77.2442 35.2586 77.4624 35.1583 77.6806 34.9576C77.8988 34.7481 78.1082 34.4863 78.3089 34.1721C78.5184 33.8579 78.7017 33.5394 78.8588 33.2165L79.0028 33.3866C78.8195 33.8143 78.6144 34.1939 78.3875 34.5256C78.1606 34.8572 77.9118 35.119 77.6413 35.311C77.3708 35.503 77.0697 35.599 76.738 35.599Z" fill="#899F87"/>
<path d="M70.2941 35.6772C69.9538 35.6772 69.7007 35.5681 69.5349 35.3499C69.369 35.1405 69.2861 34.883 69.2861 34.5776C69.2861 34.3768 69.321 34.1238 69.3909 33.8183C69.4694 33.5128 69.5698 33.1943 69.692 32.8627C69.8141 32.5223 69.9538 32.2038 70.1109 31.907C70.2767 31.6103 70.4512 31.3703 70.6345 31.187C70.8178 30.995 70.9967 30.899 71.1712 30.899C71.2498 30.899 71.3152 30.9252 71.3676 30.9776C71.4287 31.0212 71.4592 31.091 71.4592 31.187C71.4592 31.2918 71.3894 31.4619 71.2498 31.6976C71.1189 31.9332 70.9618 32.2038 70.7785 32.5092C70.5952 32.8147 70.4338 33.1376 70.2941 33.4779C70.1632 33.8096 70.0978 34.1281 70.0978 34.4336C70.0978 34.7478 70.1501 34.9572 70.2549 35.0619C70.3596 35.1667 70.521 35.219 70.7392 35.219C71.036 35.219 71.3501 35.0707 71.6818 34.7739C72.0221 34.4772 72.38 33.9579 72.7552 33.2161L72.873 33.347C72.62 34.0976 72.2534 34.6736 71.7734 35.075C71.3021 35.4765 70.809 35.6772 70.2941 35.6772ZM71.865 29.6816C71.7254 29.6816 71.5989 29.6467 71.4854 29.5768C71.3807 29.507 71.3283 29.3979 71.3283 29.2496C71.3283 29.0663 71.433 28.9092 71.6425 28.7783C71.8607 28.6387 72.0745 28.5688 72.284 28.5688C72.4149 28.5688 72.5196 28.5994 72.5981 28.6605C72.6767 28.7216 72.716 28.8263 72.716 28.9747C72.716 29.1405 72.6243 29.3019 72.441 29.459C72.2665 29.6074 72.0745 29.6816 71.865 29.6816Z" fill="#899F87"/>
<path d="M67.3976 35.8346C67.1533 35.8346 66.9438 35.7517 66.7693 35.5859C66.5947 35.4201 66.4551 35.2106 66.3504 34.9575C66.2544 34.7044 66.1802 34.447 66.1278 34.1851C66.0842 33.9146 66.0624 33.679 66.0624 33.4782C66.1584 33.4782 66.298 33.4564 66.4813 33.4128C66.6646 33.3604 66.8522 33.2862 67.0442 33.1902C67.2362 33.0855 67.3976 32.9546 67.5286 32.7975C67.6682 32.6317 67.738 32.4397 67.738 32.2215C67.738 32.0382 67.6726 31.8942 67.5416 31.7895C67.4107 31.6848 67.258 31.6324 67.0835 31.6324C66.8129 31.6324 66.5598 31.7284 66.3242 31.9204C66.0886 32.1037 65.8747 32.3481 65.6827 32.6535C65.4995 32.9502 65.3336 33.2688 65.1853 33.6091C65.0369 33.9495 64.9104 34.2724 64.8056 34.5779C64.7009 34.8833 64.6136 35.1364 64.5438 35.3371C64.4915 35.4942 64.4173 35.599 64.3213 35.6513C64.2253 35.7124 64.1249 35.743 64.0202 35.743C63.8718 35.743 63.7627 35.6819 63.6929 35.5597C63.6318 35.4375 63.5926 35.2848 63.5751 35.1015C63.5664 34.9095 63.562 34.7131 63.562 34.5124C63.562 34.0586 63.6362 33.535 63.7846 32.9415C63.9329 32.3481 64.1293 31.7328 64.3736 31.0957C64.6267 30.4499 64.9016 29.8259 65.1984 29.2237C65.4951 28.6215 65.7918 28.0761 66.0886 27.5873C66.3853 27.0986 66.6602 26.7102 66.9133 26.4222C67.1664 26.1342 67.3715 25.9902 67.5286 25.9902C67.6507 25.9902 67.7467 26.0731 67.8166 26.239C67.8951 26.4048 67.9344 26.6055 67.9344 26.8411C67.9344 27.1379 67.8689 27.4739 67.738 27.8491C67.6071 28.2157 67.4195 28.5866 67.1751 28.9619C66.9395 29.3371 66.6558 29.6906 66.3242 30.0222C66.0013 30.3539 65.6478 30.6375 65.2638 30.8731C64.9758 31.5801 64.7577 32.2695 64.6093 32.9415C64.4697 33.6048 64.3998 34.1633 64.3998 34.6171C64.5395 34.2681 64.7053 33.8841 64.8973 33.4651C65.098 33.0462 65.3249 32.6448 65.578 32.2608C65.8311 31.8768 66.106 31.5626 66.4027 31.3182C66.6995 31.0739 67.0093 30.9517 67.3322 30.9517C67.6551 30.9517 67.93 31.0651 68.1569 31.2921C68.3838 31.519 68.4973 31.7939 68.4973 32.1168C68.4973 32.3961 68.4231 32.6361 68.2747 32.8368C68.1351 33.0288 67.9606 33.1859 67.7511 33.3081C67.5504 33.4215 67.3453 33.5088 67.1358 33.5699C66.9351 33.6222 66.7693 33.6484 66.6384 33.6484C66.6471 33.7182 66.6733 33.8448 66.7169 34.0281C66.7606 34.2113 66.8216 34.4033 66.9002 34.6041C66.9875 34.8048 67.0922 34.9793 67.2144 35.1277C67.3366 35.2673 67.4849 35.3371 67.6595 35.3371C67.9126 35.3371 68.1526 35.2411 68.3795 35.0491C68.6064 34.8571 68.8202 34.6041 69.0209 34.2899C69.2304 33.967 69.4224 33.6048 69.5969 33.2033L69.7278 33.3342C69.6056 33.7619 69.418 34.1677 69.1649 34.5517C68.9118 34.927 68.6282 35.2324 68.314 35.4681C68.0086 35.7124 67.7031 35.8346 67.3976 35.8346ZM65.4864 30.3495C65.8878 30.0266 66.2369 29.6601 66.5336 29.2499C66.8391 28.8397 67.0747 28.447 67.2406 28.0717C67.4064 27.6877 67.4893 27.3866 67.4893 27.1684C67.4893 27.1248 67.4849 27.0942 67.4762 27.0768C67.4762 27.0593 67.4675 27.0506 67.45 27.0506C67.3627 27.0506 67.21 27.2033 66.9918 27.5088C66.7824 27.8142 66.5424 28.2201 66.2718 28.7262C66.0013 29.2237 65.7395 29.7648 65.4864 30.3495Z" fill="#899F87"/>
<path d="M60.3712 36.005C59.961 36.005 59.6338 35.9134 59.3894 35.7301C59.1538 35.5556 58.988 35.3374 58.892 35.0756C58.7872 34.8138 58.7349 34.552 58.7349 34.2901C58.7349 34.0283 58.7698 33.8276 58.8396 33.688C58.9094 33.5483 58.9923 33.4436 59.0883 33.3738C59.193 33.304 59.289 33.2516 59.3763 33.2167C59.4723 33.1818 59.5378 33.1469 59.5727 33.112C59.8345 32.824 60.0745 32.5229 60.2927 32.2087C60.5109 31.8945 60.7029 31.5629 60.8687 31.2138V31.0567C60.8687 30.7338 60.921 30.5069 61.0258 30.376C61.1392 30.2363 61.257 30.1665 61.3792 30.1665C61.449 30.1665 61.5014 30.184 61.5363 30.2189C61.5712 30.2538 61.5887 30.293 61.5887 30.3367C61.5887 30.3803 61.5756 30.4501 61.5494 30.5461C61.5232 30.6421 61.5101 30.7643 61.5101 30.9127C61.5101 31.2007 61.5669 31.5149 61.6803 31.8552C61.7938 32.1869 61.9072 32.5403 62.0207 32.9156C62.1341 33.2821 62.1909 33.6661 62.1909 34.0676C62.1909 34.181 62.1821 34.2945 62.1647 34.408C62.156 34.5127 62.1385 34.613 62.1123 34.709C62.4178 34.6567 62.7058 34.5214 62.9763 34.3032C63.2469 34.0763 63.5087 33.7185 63.7618 33.2298L63.8796 33.3607C63.7138 33.8407 63.465 34.2072 63.1334 34.4603C62.8018 34.7047 62.4396 34.8574 62.0469 34.9185C61.9072 35.2938 61.6847 35.5687 61.3792 35.7432C61.0825 35.9178 60.7465 36.005 60.3712 36.005ZM60.3974 35.5469C60.5021 35.5469 60.6418 35.512 60.8163 35.4421C60.9909 35.3723 61.1261 35.1934 61.2221 34.9054C60.8556 34.8356 60.5283 34.6916 60.2403 34.4734C59.961 34.2552 59.7516 34.037 59.612 33.8189C59.42 33.8276 59.324 33.9803 59.324 34.277C59.324 34.5912 59.4156 34.8836 59.5989 35.1541C59.7909 35.416 60.057 35.5469 60.3974 35.5469ZM61.2876 34.696C61.305 34.6087 61.3181 34.517 61.3269 34.421C61.3356 34.325 61.34 34.2116 61.34 34.0807C61.34 33.6705 61.2876 33.2647 61.1829 32.8632C61.0869 32.453 61.004 32.069 60.9341 31.7112C60.7334 32.0429 60.5196 32.3614 60.2927 32.6669C60.0745 32.9636 59.865 33.2123 59.6643 33.413C59.7952 33.6923 59.996 33.9541 60.2665 34.1985C60.5458 34.4429 60.8861 34.6087 61.2876 34.696Z" fill="#899F87"/>
<path d="M50.043 36.4761C49.5193 36.4761 49.0655 36.367 48.6815 36.1488C48.2975 35.9306 48.0008 35.6426 47.7913 35.2848C47.5906 34.9183 47.4902 34.5212 47.4902 34.0935C47.4902 33.6921 47.5775 33.2994 47.7521 32.9153C47.9266 32.5314 48.1666 32.1823 48.4721 31.8681C48.7862 31.5452 49.1484 31.2833 49.5586 31.0826C49.9688 30.8732 50.4095 30.7466 50.8808 30.703C50.5404 30.4237 50.2873 30.1008 50.1215 29.7343C49.9644 29.3677 49.8859 29.0012 49.8859 28.6346C49.8859 28.1721 50.0037 27.7357 50.2393 27.3255C50.475 26.9066 50.7935 26.5706 51.195 26.3175C51.6051 26.0557 52.0721 25.9248 52.5957 25.9248C53.067 25.9248 53.4204 26.0426 53.6561 26.2783C53.9004 26.5139 54.0226 26.8586 54.0226 27.3124C54.0226 27.6354 53.9702 27.9539 53.8655 28.2681C53.7608 28.5735 53.6299 28.8266 53.4728 29.0274C53.3244 29.2194 53.1761 29.3153 53.0277 29.3153C52.9317 29.3153 52.8401 29.2761 52.7528 29.1975C52.6655 29.1103 52.5957 29.0099 52.5433 28.8964C52.8488 28.6259 53.1019 28.3466 53.3026 28.0586C53.5121 27.7619 53.6168 27.4434 53.6168 27.103C53.6168 26.8324 53.5426 26.6143 53.3942 26.4484C53.2546 26.2739 53.0321 26.1866 52.7266 26.1866C52.3164 26.1866 51.9717 26.3132 51.6924 26.5663C51.4131 26.8106 51.1993 27.1379 51.051 27.5481C50.9113 27.9495 50.8415 28.3859 50.8415 28.8572C50.8415 29.0666 50.859 29.2892 50.8939 29.5248C50.9375 29.7604 51.0117 29.9917 51.1164 30.2186C51.2299 30.4455 51.3913 30.6506 51.6008 30.8339C51.0161 30.9299 50.5055 31.1524 50.0691 31.5015C49.6415 31.8506 49.3055 32.2608 49.0611 32.7321C48.8255 33.2034 48.7077 33.6703 48.7077 34.1328C48.7077 34.4208 48.7601 34.7132 48.8648 35.0099C48.9782 35.2979 49.1571 35.5379 49.4015 35.7299C49.6459 35.9306 49.9731 36.031 50.3833 36.031C50.8459 36.031 51.291 35.9132 51.7186 35.6775C52.155 35.4419 52.5477 35.1277 52.8968 34.735C53.2546 34.3423 53.547 33.9015 53.7739 33.4128C54.0008 32.9153 54.1448 32.4048 54.2059 31.8812C54.0226 31.8899 53.8524 31.903 53.6953 31.9204C53.547 31.9379 53.3811 31.9641 53.1979 31.999C53.0146 32.0252 52.779 32.0688 52.491 32.1299C52.5084 31.7634 52.6481 31.519 52.9099 31.3968C53.1717 31.2746 53.4859 31.2135 53.8524 31.2135C54.1142 31.2135 54.363 31.231 54.5986 31.2659C54.8342 31.3008 55.0568 31.3357 55.2662 31.3706C55.4844 31.4055 55.6808 31.4274 55.8553 31.4361C55.7593 31.6368 55.6633 31.759 55.5673 31.8026C55.4801 31.8375 55.3928 31.855 55.3055 31.855C55.1571 31.855 55.0175 31.8594 54.8866 31.8681C54.7644 31.8681 54.651 31.8681 54.5462 31.8681C54.4851 32.4703 54.3193 33.0463 54.0488 33.5961C53.787 34.1459 53.4466 34.639 53.0277 35.0753C52.6175 35.503 52.155 35.8433 51.6401 36.0964C51.1339 36.3495 50.6015 36.4761 50.043 36.4761Z" fill="#899F87"/>
<path d="M42.122 35.7298C41.7467 35.7298 41.4762 35.5989 41.3103 35.3371C41.1533 35.084 41.0747 34.7654 41.0747 34.3814C41.0747 33.9625 41.1533 33.4651 41.3103 32.8891C41.4674 32.3131 41.6725 31.7065 41.9256 31.0694C42.1874 30.4323 42.4711 29.8127 42.7765 29.2105C43.082 28.5996 43.3874 28.0454 43.6929 27.548C43.9983 27.0505 44.2776 26.6534 44.5307 26.3567C44.7925 26.06 44.9976 25.9116 45.146 25.9116C45.242 25.9116 45.3205 25.9683 45.3816 26.0818C45.4427 26.1865 45.4907 26.3174 45.5256 26.4745C45.5605 26.6229 45.578 26.7582 45.578 26.8803C45.578 27.116 45.5169 27.4258 45.3947 27.8098C45.2813 28.1851 45.1154 28.6083 44.8973 29.0796C44.6878 29.5422 44.4347 30.0134 44.138 30.4934C43.85 30.9647 43.5314 31.4185 43.1823 31.8549C42.842 32.2913 42.4798 32.6665 42.0958 32.9807C42.0434 33.2163 41.9998 33.4476 41.9649 33.6745C41.9387 33.8927 41.9256 34.1022 41.9256 34.3029C41.9256 34.6433 41.9736 34.8963 42.0696 35.0622C42.1656 35.228 42.3096 35.3109 42.5016 35.3109C42.7373 35.3109 42.9685 35.2062 43.1954 34.9967C43.4311 34.7873 43.6493 34.5254 43.85 34.2113C44.0594 33.8883 44.2383 33.5567 44.3867 33.2163L44.5831 33.3211C44.234 34.0629 43.8543 34.652 43.4442 35.0883C43.034 35.516 42.5933 35.7298 42.122 35.7298ZM42.2136 32.5356C42.5191 32.2302 42.8158 31.8811 43.1038 31.4883C43.3918 31.0869 43.658 30.6723 43.9023 30.2447C44.1554 29.8171 44.378 29.4025 44.57 29.0011C44.762 28.5996 44.9103 28.2418 45.0151 27.9276C45.1198 27.6047 45.1722 27.356 45.1722 27.1814C45.1722 27.0942 45.1591 27.0374 45.1329 27.0113C45.1154 26.9851 45.098 26.972 45.0805 26.972C45.0107 26.972 44.8885 27.0854 44.714 27.3123C44.5482 27.5305 44.3518 27.8273 44.1249 28.2025C43.898 28.5778 43.6667 29.0054 43.4311 29.4854C43.1954 29.9654 42.9685 30.4673 42.7503 30.9909C42.5409 31.5145 42.362 32.0294 42.2136 32.5356Z" fill="#899F87"/>
<path d="M35.9619 35.9526C35.6913 35.9526 35.4644 35.861 35.2812 35.6777C35.0892 35.5032 34.9932 35.2326 34.9932 34.8661C34.9932 34.5519 35.063 34.2159 35.2026 33.8581C35.3423 33.4915 35.5343 33.1337 35.7786 32.7846C36.023 32.4268 36.2979 32.1039 36.6033 31.8159C36.9175 31.5192 37.2448 31.2835 37.5852 31.109C37.9343 30.9344 38.279 30.8472 38.6193 30.8472C38.9597 30.8472 39.2433 30.9388 39.4703 31.1221C39.6972 31.2966 39.8106 31.5323 39.8106 31.829C39.8106 32.0472 39.7495 32.1955 39.6273 32.2741C39.5139 32.3526 39.3612 32.3919 39.1692 32.3919C39.1866 32.3221 39.1997 32.2479 39.2084 32.1694C39.2259 32.0821 39.2346 32.0035 39.2346 31.9337C39.2346 31.733 39.1866 31.5628 39.0906 31.4232C38.9946 31.2748 38.8288 31.2006 38.5932 31.2006C38.3488 31.2006 38.1001 31.2879 37.847 31.4624C37.5939 31.6283 37.3495 31.8552 37.1139 32.1432C36.8783 32.4224 36.6688 32.7279 36.4855 33.0595C36.3023 33.3912 36.1583 33.7184 36.0535 34.0414C35.9488 34.3643 35.8964 34.6523 35.8964 34.9054C35.8964 35.2457 36.0143 35.4159 36.2499 35.4159C36.4506 35.4159 36.6688 35.3243 36.9044 35.141C37.1401 34.949 37.3801 34.709 37.6244 34.421C37.8775 34.1243 38.1175 33.8188 38.3444 33.5046C38.5713 33.1904 38.7721 32.9024 38.9466 32.6406C38.9815 32.5883 39.0033 32.5621 39.0121 32.5621C39.0644 32.5708 39.1299 32.5883 39.2084 32.6144C39.2957 32.6406 39.3699 32.6755 39.431 32.7192C39.4921 32.7628 39.5226 32.8195 39.5226 32.8893C39.5226 32.9679 39.4833 33.077 39.4048 33.2166C39.3263 33.3475 39.239 33.5003 39.143 33.6748C39.047 33.8494 38.9597 34.0283 38.8812 34.2115C38.8026 34.3861 38.7633 34.5519 38.7633 34.709C38.7633 34.8399 38.7983 34.9708 38.8681 35.1017C38.9379 35.2239 39.0513 35.285 39.2084 35.285C39.4441 35.285 39.7539 35.1148 40.1379 34.7744C40.5219 34.4254 40.9103 33.9061 41.303 33.2166L41.4339 33.3475C41.2506 33.8188 41.015 34.2334 40.727 34.5912C40.439 34.949 40.1292 35.2283 39.7975 35.429C39.4746 35.6297 39.1561 35.7301 38.8419 35.7301C38.519 35.7301 38.279 35.6341 38.1219 35.4421C37.9735 35.2501 37.8993 35.0406 37.8993 34.8137C37.8993 34.7613 37.9037 34.7046 37.9124 34.6435C37.9212 34.5737 37.9299 34.5039 37.9386 34.4341C37.5633 34.9403 37.2186 35.3199 36.9044 35.573C36.599 35.8261 36.2848 35.9526 35.9619 35.9526Z" fill="#899F87"/>
<path d="M33.1184 35.6772C32.778 35.6772 32.5249 35.5681 32.3591 35.3499C32.1933 35.1405 32.1104 34.883 32.1104 34.5776C32.1104 34.3768 32.1453 34.1238 32.2151 33.8183C32.2936 33.5128 32.394 33.1943 32.5162 32.8627C32.6384 32.5223 32.778 32.2038 32.9351 31.907C33.1009 31.6103 33.2754 31.3703 33.4587 31.187C33.642 30.995 33.8209 30.899 33.9954 30.899C34.074 30.899 34.1394 30.9252 34.1918 30.9776C34.2529 31.0212 34.2834 31.091 34.2834 31.187C34.2834 31.2918 34.2136 31.4619 34.074 31.6976C33.9431 31.9332 33.786 32.2038 33.6027 32.5092C33.4194 32.8147 33.258 33.1376 33.1184 33.4779C32.9874 33.8096 32.922 34.1281 32.922 34.4336C32.922 34.7478 32.9744 34.9572 33.0791 35.0619C33.1838 35.1667 33.3453 35.219 33.5634 35.219C33.8602 35.219 34.1744 35.0707 34.506 34.7739C34.8464 34.4772 35.2042 33.9579 35.5794 33.2161L35.6973 33.347C35.4442 34.0976 35.0776 34.6736 34.5976 35.075C34.1264 35.4765 33.6333 35.6772 33.1184 35.6772ZM34.6893 29.6816C34.5496 29.6816 34.4231 29.6467 34.3096 29.5768C34.2049 29.507 34.1525 29.3979 34.1525 29.2496C34.1525 29.0663 34.2573 28.9092 34.4667 28.7783C34.6849 28.6387 34.8987 28.5688 35.1082 28.5688C35.2391 28.5688 35.3438 28.5994 35.4224 28.6605C35.5009 28.7216 35.5402 28.8263 35.5402 28.9747C35.5402 29.1405 35.4485 29.3019 35.2653 29.459C35.0907 29.6074 34.8987 29.6816 34.6893 29.6816Z" fill="#899F87"/>
<path d="M29.3446 36.0699C28.9257 36.0699 28.5766 35.9303 28.2973 35.651C28.0181 35.3717 27.8784 34.9528 27.8784 34.3943C27.8784 33.9579 27.9613 33.5347 28.1271 33.1245C28.3017 32.7056 28.5286 32.3303 28.8079 31.9987C29.0871 31.667 29.397 31.4052 29.7373 31.2132C30.0777 31.0125 30.4137 30.9121 30.7453 30.9121C31.1031 30.9121 31.3475 31.0168 31.4784 31.2263C31.6093 31.4357 31.6748 31.6539 31.6748 31.8808C31.6748 32.1339 31.6137 32.3565 31.4915 32.5485C31.3781 32.7405 31.221 32.8365 31.0202 32.8365C30.8719 32.8365 30.7453 32.771 30.6406 32.6401C30.7715 32.5703 30.885 32.4307 30.981 32.2212C31.077 32.003 31.125 31.7979 31.125 31.6059C31.125 31.5012 31.1031 31.4227 31.0595 31.3703C31.0246 31.3092 30.9504 31.2787 30.837 31.2787C30.6013 31.2787 30.357 31.3834 30.1039 31.5928C29.8595 31.8023 29.6282 32.0728 29.4101 32.4045C29.2006 32.7361 29.0261 33.0852 28.8864 33.4517C28.7555 33.8183 28.6901 34.163 28.6901 34.4859C28.6901 34.7565 28.7555 35.0052 28.8864 35.2321C29.0173 35.459 29.2704 35.5725 29.6457 35.5725C29.9948 35.5725 30.3439 35.4765 30.693 35.2845C31.0508 35.0925 31.3824 34.8176 31.6879 34.4597C31.9933 34.1019 32.2377 33.683 32.421 33.203L32.5911 33.3339C32.3904 33.8576 32.1155 34.3288 31.7664 34.7477C31.4173 35.1579 31.0333 35.4808 30.6144 35.7165C30.1955 35.9521 29.7722 36.0699 29.3446 36.0699Z" fill="#899F87"/>
<path d="M22.8706 35.9526C22.6 35.9526 22.3731 35.861 22.1899 35.6777C21.9979 35.5032 21.9019 35.2326 21.9019 34.8661C21.9019 34.5519 21.9717 34.2159 22.1113 33.8581C22.2509 33.4915 22.4429 33.1337 22.6873 32.7846C22.9317 32.4268 23.2066 32.1039 23.512 31.8159C23.8262 31.5192 24.1535 31.2835 24.4939 31.109C24.8429 30.9344 25.1877 30.8472 25.528 30.8472C25.8684 30.8472 26.152 30.9388 26.3789 31.1221C26.6059 31.2966 26.7193 31.5323 26.7193 31.829C26.7193 32.0472 26.6582 32.1955 26.536 32.2741C26.4226 32.3526 26.2699 32.3919 26.0779 32.3919C26.0953 32.3221 26.1084 32.2479 26.1171 32.1694C26.1346 32.0821 26.1433 32.0035 26.1433 31.9337C26.1433 31.733 26.0953 31.5628 25.9993 31.4232C25.9033 31.2748 25.7375 31.2006 25.5019 31.2006C25.2575 31.2006 25.0088 31.2879 24.7557 31.4624C24.5026 31.6283 24.2582 31.8552 24.0226 32.1432C23.7869 32.4224 23.5775 32.7279 23.3942 33.0595C23.2109 33.3912 23.0669 33.7184 22.9622 34.0414C22.8575 34.3643 22.8051 34.6523 22.8051 34.9054C22.8051 35.2457 22.9229 35.4159 23.1586 35.4159C23.3593 35.4159 23.5775 35.3243 23.8131 35.141C24.0488 34.949 24.2888 34.709 24.5331 34.421C24.7862 34.1243 25.0262 33.8188 25.2531 33.5046C25.48 33.1904 25.6808 32.9024 25.8553 32.6406C25.8902 32.5883 25.912 32.5621 25.9208 32.5621C25.9731 32.5708 26.0386 32.5883 26.1171 32.6144C26.2044 32.6406 26.2786 32.6755 26.3397 32.7192C26.4008 32.7628 26.4313 32.8195 26.4313 32.8893C26.4313 32.9679 26.392 33.077 26.3135 33.2166C26.2349 33.3475 26.1477 33.5003 26.0517 33.6748C25.9557 33.8494 25.8684 34.0283 25.7899 34.2115C25.7113 34.3861 25.672 34.5519 25.672 34.709C25.672 34.8399 25.7069 34.9708 25.7768 35.1017C25.8466 35.2239 25.96 35.285 26.1171 35.285C26.3528 35.285 26.6626 35.1148 27.0466 34.7744C27.4306 34.4254 27.8189 33.9061 28.2117 33.2166L28.3426 33.3475C28.1593 33.8188 27.9237 34.2334 27.6357 34.5912C27.3477 34.949 27.0379 35.2283 26.7062 35.429C26.3833 35.6297 26.0648 35.7301 25.7506 35.7301C25.4277 35.7301 25.1877 35.6341 25.0306 35.4421C24.8822 35.2501 24.808 35.0406 24.808 34.8137C24.808 34.7613 24.8124 34.7046 24.8211 34.6435C24.8299 34.5737 24.8386 34.5039 24.8473 34.4341C24.472 34.9403 24.1273 35.3199 23.8131 35.573C23.5077 35.8261 23.1935 35.9526 22.8706 35.9526Z" fill="#899F87"/>
<path d="M18.4666 36.476C18.0652 36.4411 17.8165 36.332 17.7205 36.1487C17.6245 35.9654 17.5765 35.7298 17.5765 35.4418C17.5765 35.1276 17.6419 34.7436 17.7728 34.2898C17.9037 33.8272 18.0652 33.3254 18.2572 32.7843C18.4579 32.2432 18.6586 31.7021 18.8594 31.1611C18.7546 31.1698 18.6412 31.1829 18.519 31.2003C18.4055 31.2091 18.2615 31.2265 18.087 31.2527C17.9125 31.2701 17.6855 31.3007 17.4063 31.3443C17.4237 31.1174 17.5066 30.9429 17.655 30.8207C17.8121 30.6898 18.0172 30.5938 18.2703 30.5327C18.5234 30.4716 18.807 30.4367 19.1212 30.428C19.3655 29.756 19.6143 29.1014 19.8674 28.4643C20.1292 27.8185 20.3866 27.2294 20.6397 26.6971C20.5525 26.6883 20.4652 26.684 20.3779 26.684C20.2994 26.6752 20.2165 26.6709 20.1292 26.6709C19.5706 26.6709 19.1386 26.7276 18.8332 26.8411C18.5277 26.9545 18.3183 27.1291 18.2048 27.3647C18.0914 27.6003 18.0346 27.9014 18.0346 28.268C18.0346 28.46 18.0477 28.6389 18.0739 28.8047C18.1001 28.9618 18.1437 29.1276 18.2048 29.3021C17.9081 29.2498 17.6899 29.1363 17.5503 28.9618C17.4106 28.7785 17.3408 28.5516 17.3408 28.2811C17.3408 27.8272 17.5023 27.4301 17.8252 27.0898C18.1481 26.7407 18.5801 26.4701 19.1212 26.2781C19.671 26.0774 20.2775 25.9771 20.9408 25.9771C21.4034 25.9771 21.8485 26.012 22.2761 26.0818C22.7125 26.1429 23.1357 26.1734 23.5459 26.1734C23.7292 26.1734 23.895 26.1647 24.0434 26.1472C24.2005 26.1211 24.3575 26.0861 24.5146 26.0425C24.1917 26.4091 23.9212 26.6534 23.703 26.7756C23.4848 26.8978 23.2623 26.9589 23.0354 26.9589C22.8346 26.9589 22.5728 26.9327 22.2499 26.8803C21.9357 26.8192 21.5779 26.7712 21.1765 26.7363C21.063 27.0243 20.9365 27.3734 20.7968 27.7836C20.6572 28.1851 20.5132 28.6171 20.3648 29.0796C20.2165 29.5334 20.0681 29.9872 19.9197 30.4411C20.3561 30.4672 20.7663 30.5065 21.1503 30.5589C21.543 30.6112 21.8965 30.6418 22.2106 30.6505C22.1408 30.7552 22.0579 30.8381 21.9619 30.8992C21.8746 30.9516 21.7481 30.9909 21.5823 31.0171C21.4165 31.0432 21.1852 31.0651 20.8885 31.0825C20.6005 31.0912 20.2121 31.1 19.7234 31.1087C19.671 31.292 19.6055 31.5101 19.527 31.7632C19.4485 32.0163 19.3786 32.2563 19.3175 32.4832C19.2565 32.7101 19.2085 32.876 19.1735 32.9807C18.9815 33.6527 18.8157 34.2811 18.6761 34.8658C18.5452 35.4505 18.4754 35.9872 18.4666 36.476Z" fill="#899F87"/>
</svg>
