<svg width="74" height="75" viewBox="0 0 74 75" fill="none" xmlns="http://www.w3.org/2000/svg">
<path fill-rule="evenodd" clip-rule="evenodd" d="M33.2572 6.60876L28.1398 10.3268H21.8145C19.0898 10.3268 16.675 12.0812 15.8332 14.6725L13.8784 20.6883L8.76117 24.4064C6.55676 26.0078 5.63446 28.8466 6.47652 31.4378L8.43108 37.4537L6.47652 43.4695C5.63446 46.0607 6.55676 48.8993 8.76117 50.5009L13.8784 54.2188L15.8332 60.2346C16.675 62.8259 19.0898 64.5805 21.8145 64.5805H28.1398L33.2572 68.2984C35.4615 69.9 38.4462 69.9 40.6506 68.2984L45.7678 64.5805H52.0934C54.8179 64.5805 57.2326 62.8259 58.0747 60.2346L60.0292 54.2188L65.1467 50.5009C67.3509 48.8993 68.2732 46.0607 67.4313 43.4695L65.4766 37.4537L67.4313 31.4378C68.2732 28.8466 67.3509 26.0078 65.1467 24.4064L60.0292 20.6883L58.0747 14.6725C57.2326 12.0812 54.8179 10.3268 52.0934 10.3268H45.7678L40.6506 6.60876C38.4462 5.00737 35.4615 5.00737 33.2572 6.60876ZM34.2754 8.01019C35.8726 6.84988 38.0352 6.84988 39.6323 8.01019C42.0562 9.77122 44.9773 11.8937 44.9773 11.8937C45.1253 12.0012 45.3037 12.059 45.4866 12.059H52.0934C54.0675 12.059 55.8171 13.3303 56.4271 15.2077C57.353 18.0574 58.4688 21.4913 58.4688 21.4913C58.5253 21.6653 58.6355 21.8168 58.7835 21.9243C58.7835 21.9243 61.7046 24.0466 64.1286 25.8078C65.7256 26.9681 66.3939 29.0249 65.7838 30.9026C64.858 33.752 63.7423 37.1859 63.7423 37.1859C63.6858 37.3599 63.6858 37.5474 63.7423 37.7212C63.7423 37.7212 64.858 41.1553 65.7838 44.0047C66.3939 45.8824 65.7256 47.9392 64.1286 49.0995C61.7046 50.8606 58.7835 52.9829 58.7835 52.9829C58.6355 53.0903 58.5253 53.2421 58.4688 53.416C58.4688 53.416 57.353 56.85 56.4271 59.6994C55.8171 61.577 54.0675 62.8481 52.0934 62.8481C49.0972 62.8481 45.4866 62.8481 45.4866 62.8481C45.3037 62.8481 45.1253 62.9061 44.9773 63.0136C44.9773 63.0136 42.0562 65.1359 39.6323 66.8969C38.0352 68.0574 35.8726 68.0574 34.2754 66.8969C31.8515 65.1359 28.9303 63.0136 28.9303 63.0136C28.7823 62.9061 28.6042 62.8481 28.4213 62.8481C28.4213 62.8481 24.8106 62.8481 21.8145 62.8481C19.8402 62.8481 18.0906 61.577 17.4805 59.6994C16.5547 56.85 15.4388 53.416 15.4388 53.416C15.3825 53.2421 15.2723 53.0903 15.1243 52.9829C15.1243 52.9829 12.2032 50.8606 9.77929 49.0995C8.18206 47.9392 7.51377 45.8824 8.12385 44.0047C9.04969 41.1553 10.1655 37.7212 10.1655 37.7212C10.222 37.5474 10.222 37.3599 10.1655 37.1859C10.1655 37.1859 9.04969 33.752 8.12385 30.9026C7.51377 29.0249 8.18206 26.9681 9.77929 25.8078C12.2032 24.0466 15.1243 21.9243 15.1243 21.9243C15.2723 21.8168 15.3825 21.6653 15.4388 21.4913C15.4388 21.4913 16.5547 18.0574 17.4805 15.2077C18.0906 13.3303 19.8402 12.059 21.8145 12.059H28.4213C28.6042 12.059 28.7823 12.0012 28.9303 11.8937L34.2754 8.01019Z" fill="#899F87"/>
<path fill-rule="evenodd" clip-rule="evenodd" d="M28.2719 29.5886C29.7045 33.9155 33.9083 36.8335 38.9534 35.5402C42.7414 34.5692 45.237 31.9035 46.849 29.0311C49.1966 24.8478 49.6473 20.2546 49.6473 20.2546C49.6784 19.9384 49.534 19.6306 49.2708 19.4526C49.0077 19.2745 48.6682 19.2547 48.3861 19.4011C45.3688 20.968 42.8295 20.6294 40.3538 20.2831C38.5107 20.0249 36.6968 19.7615 34.7745 20.0744C31.6382 20.5847 29.5723 22.8304 28.6323 25.1673C27.9858 26.7745 27.885 28.4204 28.2717 29.5886H28.2719ZM29.9161 29.0442C29.6332 28.189 29.7662 26.9898 30.2393 25.8137C30.9789 23.9754 32.5853 22.1854 35.0526 21.784C37.2633 21.4242 39.3157 21.9312 41.4626 22.1734C43.4155 22.3937 45.4365 22.422 47.6817 21.6024C47.3713 23.1807 46.7002 25.7566 45.3384 28.1834C43.9409 30.6734 41.8072 33.0204 38.5234 33.8623C34.4536 34.9055 31.0718 32.5344 29.9163 29.0442H29.9161Z" fill="#899F87"/>
<path fill-rule="evenodd" clip-rule="evenodd" d="M21.4974 28.4383C24.3378 29.537 26.9509 30.0554 29.321 30.1779C35.1639 30.4803 39.5434 28.3809 42.244 26.5346C42.6385 26.2648 42.7399 25.7254 42.4701 25.3309C42.2003 24.9361 41.6609 24.8349 41.2664 25.1047C38.7886 26.7986 34.771 28.7253 29.4104 28.448C27.2024 28.3339 24.7688 27.8463 22.1222 26.8227C21.6766 26.6502 21.1746 26.8722 21.002 27.3181C20.8297 27.7639 21.0515 28.2659 21.4974 28.4383Z" fill="#899F87"/>
<path fill-rule="evenodd" clip-rule="evenodd" d="M17.6827 44.9318L20.1824 43.6294V52.9889C20.1824 53.467 20.5705 53.8551 21.0484 53.8551C21.5265 53.8551 21.9146 53.467 21.9146 52.9889V42.2015C21.9146 41.8989 21.7566 41.6181 21.4976 41.4611C21.2388 41.304 20.9168 41.2936 20.6483 41.4335L16.8822 43.3955C16.4583 43.6165 16.2935 44.1399 16.5142 44.5637C16.7352 44.9878 17.2586 45.1526 17.6827 44.9318Z" fill="#899F87"/>
<path fill-rule="evenodd" clip-rule="evenodd" d="M54.5254 42.1383L46.685 51.9818C46.3873 52.3557 46.449 52.9012 46.823 53.199C47.1967 53.4967 47.7422 53.435 48.04 53.061L55.8803 43.2176C56.1782 42.8436 56.1164 42.2984 55.7425 42.0005C55.3685 41.7026 54.8231 41.7646 54.5254 42.1383Z" fill="#899F87"/>
<path fill-rule="evenodd" clip-rule="evenodd" d="M47.949 41.2808C46.8575 41.2808 45.9712 42.1671 45.9712 43.2586C45.9712 44.3501 46.8575 45.2364 47.949 45.2364C49.0405 45.2364 49.9269 44.3501 49.9269 43.2586C49.9269 42.1671 49.0405 41.2808 47.949 41.2808ZM47.949 43.0131C48.0846 43.0131 48.1945 43.1231 48.1945 43.2586C48.1945 43.3941 48.0846 43.5041 47.949 43.5041C47.8135 43.5041 47.7035 43.3941 47.7035 43.2586C47.7035 43.1231 47.8135 43.0131 47.949 43.0131Z" fill="#899F87"/>
<path fill-rule="evenodd" clip-rule="evenodd" d="M54.4288 49.7837C53.3373 49.7837 52.4509 50.6698 52.4509 51.7613C52.4509 52.853 53.3373 53.7392 54.4288 53.7392C55.5203 53.7392 56.4066 52.853 56.4066 51.7613C56.4066 50.6698 55.5203 49.7837 54.4288 49.7837ZM54.4288 51.5158C54.5643 51.5158 54.6743 51.6258 54.6743 51.7613C54.6743 51.8968 54.5643 52.007 54.4288 52.007C54.2932 52.007 54.1833 51.8968 54.1833 51.7613C54.1833 51.6258 54.2932 51.5158 54.4288 51.5158Z" fill="#899F87"/>
<path fill-rule="evenodd" clip-rule="evenodd" d="M32.4302 49.8193V45.3714C32.4302 43.1424 30.6232 41.3354 28.3943 41.3354C28.3943 41.3354 28.3943 41.3354 28.3941 41.3354C26.1654 41.3354 24.3584 43.1424 24.3584 45.3714V49.8193C24.3584 52.0482 26.1654 53.8552 28.3941 53.8552H28.3943C30.6232 53.8552 32.4302 52.0482 32.4302 49.8193ZM30.6979 45.3714V49.8193C30.6979 51.0916 29.6667 52.123 28.3943 52.123H28.3941C27.122 52.123 26.0905 51.0916 26.0905 49.8195C26.0905 49.8193 26.0905 45.3714 26.0905 45.3714C26.0905 44.099 27.122 43.0678 28.3941 43.0678H28.3943C29.6667 43.0678 30.6979 44.099 30.6979 45.3714Z" fill="#899F87"/>
<path fill-rule="evenodd" clip-rule="evenodd" d="M42.9454 49.8193V45.3714C42.9454 43.1424 41.1386 41.3354 38.9097 41.3354H38.9094C36.6805 41.3354 34.8737 43.1424 34.8735 45.3714V49.8193C34.8737 52.0482 36.6805 53.8552 38.9094 53.8552H38.9097C41.1386 53.8552 42.9454 52.0482 42.9454 49.8193ZM41.2132 45.3714V49.8193C41.2132 51.0916 40.1818 52.123 38.9097 52.123H38.9094C37.6373 52.123 36.6059 51.0916 36.6059 49.8195C36.6059 49.8193 36.6059 45.3714 36.6059 45.3714C36.6059 44.099 37.6373 43.0678 38.9094 43.0678H38.9097C40.1818 43.0678 41.2132 44.099 41.2132 45.3714Z" fill="#899F87"/>
</svg>
