<svg width="74" height="75" viewBox="0 0 74 75" fill="none" xmlns="http://www.w3.org/2000/svg">
<path d="M73.1328 43.0825H0.867188C0.637195 43.0825 0.416623 42.9912 0.253993 42.8285C0.0913641 42.6659 0 42.4453 0 42.2153C0 41.9853 0.0913641 41.7648 0.253993 41.6021C0.416623 41.4395 0.637195 41.3481 0.867188 41.3481H73.1328C73.3628 41.3481 73.5834 41.4395 73.746 41.6021C73.9086 41.7648 74 41.9853 74 42.2153C74 42.4453 73.9086 42.6659 73.746 42.8285C73.5834 42.9912 73.3628 43.0825 73.1328 43.0825Z" fill="#899F87"/>
<path d="M73.1328 52.3325H0.867188C0.637195 52.3325 0.416623 52.2412 0.253993 52.0785C0.0913641 51.9159 0 51.6953 0 51.4653C0 51.2353 0.0913641 51.0148 0.253993 50.8521C0.416623 50.6895 0.637195 50.5981 0.867188 50.5981H73.1328C73.3628 50.5981 73.5834 50.6895 73.746 50.8521C73.9086 51.0148 74 51.2353 74 51.4653C74 51.6953 73.9086 51.9159 73.746 52.0785C73.5834 52.2412 73.3628 52.3325 73.1328 52.3325Z" fill="#899F87"/>
<path d="M9.23609 64.6382C8.55003 64.6382 7.87938 64.4347 7.30895 64.0536C6.73852 63.6724 6.29392 63.1307 6.03138 62.4969C5.76884 61.863 5.70014 61.1656 5.83399 60.4927C5.96783 59.8198 6.2982 59.2018 6.78331 58.7167C7.26842 58.2315 7.88649 57.9012 8.55937 57.7673C9.23224 57.6335 9.92969 57.7022 10.5635 57.9647C11.1973 58.2273 11.7391 58.6719 12.1202 59.2423C12.5014 59.8127 12.7048 60.4834 12.7048 61.1694C12.704 62.0891 12.3383 62.9709 11.6879 63.6213C11.0376 64.2716 10.1558 64.6373 9.23609 64.6382ZM9.23609 59.4368C8.89306 59.4368 8.55773 59.5385 8.27252 59.7291C7.9873 59.9197 7.765 60.1905 7.63373 60.5075C7.50246 60.8244 7.46811 61.1731 7.53504 61.5095C7.60196 61.846 7.76714 62.155 8.0097 62.3976C8.25225 62.6401 8.56129 62.8053 8.89773 62.8722C9.23416 62.9391 9.58289 62.9048 9.8998 62.7735C10.2167 62.6423 10.4876 62.42 10.6782 62.1347C10.8687 61.8495 10.9705 61.5142 10.9705 61.1712C10.9705 60.7112 10.7877 60.27 10.4625 59.9448C10.1372 59.6195 9.69607 59.4368 9.23609 59.4368Z" fill="#899F87"/>
<path d="M18.5 73.4336C17.8139 73.4336 17.1433 73.2302 16.5729 72.849C16.0024 72.4679 15.5578 71.9261 15.2953 71.2923C15.0328 70.6584 14.9641 69.961 15.0979 69.2881C15.2317 68.6153 15.5621 67.9972 16.0472 67.5121C16.5323 67.027 17.1504 66.6966 17.8233 66.5627C18.4962 66.4289 19.1936 66.4976 19.8274 66.7601C20.4613 67.0227 21.003 67.4673 21.3842 68.0377C21.7653 68.6081 21.9688 69.2788 21.9688 69.9648C21.9679 70.8846 21.6022 71.7664 20.9518 72.4167C20.3015 73.067 19.4197 73.4328 18.5 73.4336ZM18.5 68.2305C18.157 68.2305 17.8217 68.3322 17.5364 68.5228C17.2512 68.7133 17.0289 68.9842 16.8976 69.3011C16.7664 69.618 16.732 69.9668 16.799 70.3032C16.8659 70.6396 17.0311 70.9487 17.2736 71.1912C17.5162 71.4338 17.8252 71.599 18.1616 71.6659C18.4981 71.7328 18.8468 71.6985 19.1637 71.5672C19.4806 71.4359 19.7515 71.2136 19.9421 70.9284C20.1327 70.6432 20.2344 70.3079 20.2344 69.9648C20.234 69.5051 20.0511 69.0643 19.7259 68.7394C19.4007 68.4144 18.9597 68.2319 18.5 68.2319V68.2305Z" fill="#899F87"/>
<path d="M37 73.4336C36.3139 73.4336 35.6433 73.2302 35.0729 72.849C34.5024 72.4679 34.0578 71.9261 33.7953 71.2923C33.5328 70.6584 33.4641 69.961 33.5979 69.2881C33.7317 68.6153 34.0621 67.9972 34.5472 67.5121C35.0323 67.027 35.6504 66.6966 36.3233 66.5627C36.9962 66.4289 37.6936 66.4976 38.3274 66.7601C38.9613 67.0227 39.503 67.4673 39.8842 68.0377C40.2653 68.6081 40.4688 69.2788 40.4688 69.9648C40.4679 70.8846 40.1022 71.7664 39.4519 72.4167C38.8015 73.067 37.9197 73.4328 37 73.4336ZM37 68.2305C36.657 68.2305 36.3217 68.3322 36.0364 68.5228C35.7512 68.7133 35.5289 68.9842 35.3976 69.3011C35.2664 69.618 35.232 69.9668 35.299 70.3032C35.3659 70.6396 35.5311 70.9487 35.7736 71.1912C36.0162 71.4338 36.3252 71.599 36.6616 71.6659C36.9981 71.7328 37.3468 71.6985 37.6637 71.5672C37.9806 71.4359 38.2515 71.2136 38.4421 70.9284C38.6327 70.6432 38.7344 70.3079 38.7344 69.9648C38.734 69.5051 38.5511 69.0643 38.2259 68.7394C37.9007 68.4144 37.4597 68.2319 37 68.2319V68.2305Z" fill="#899F87"/>
<path d="M55.5 73.4336C54.8139 73.4336 54.1433 73.2302 53.5729 72.849C53.0024 72.4679 52.5578 71.9261 52.2953 71.2923C52.0328 70.6584 51.9641 69.961 52.0979 69.2881C52.2317 68.6153 52.5621 67.9972 53.0472 67.5121C53.5323 67.027 54.1504 66.6966 54.8233 66.5627C55.4962 66.4289 56.1936 66.4976 56.8274 66.7601C57.4613 67.0227 58.003 67.4673 58.3842 68.0377C58.7653 68.6081 58.9688 69.2788 58.9688 69.9648C58.9679 70.8846 58.6022 71.7664 57.9518 72.4167C57.3015 73.067 56.4197 73.4328 55.5 73.4336ZM55.5 68.2305C55.157 68.2305 54.8217 68.3322 54.5364 68.5228C54.2512 68.7133 54.0289 68.9842 53.8976 69.3011C53.7664 69.618 53.732 69.9668 53.799 70.3032C53.8659 70.6396 54.0311 70.9487 54.2736 71.1912C54.5162 71.4338 54.8252 71.599 55.1616 71.6659C55.4981 71.7328 55.8468 71.6985 56.1637 71.5672C56.4806 71.4359 56.7515 71.2136 56.9421 70.9284C57.1327 70.6432 57.2344 70.3079 57.2344 69.9648C57.234 69.5051 57.0511 69.0643 56.7259 68.7394C56.4007 68.4144 55.9597 68.2319 55.5 68.2319V68.2305Z" fill="#899F87"/>
<path d="M27.75 64.6382C27.0639 64.6382 26.3933 64.4347 25.8229 64.0536C25.2524 63.6724 24.8078 63.1307 24.5453 62.4969C24.2828 61.863 24.2141 61.1656 24.3479 60.4927C24.4817 59.8198 24.8121 59.2018 25.2972 58.7167C25.7823 58.2315 26.4004 57.9012 27.0733 57.7673C27.7462 57.6335 28.4436 57.7022 29.0774 57.9647C29.7113 58.2273 30.253 58.6719 30.6342 59.2423C31.0153 59.8127 31.2188 60.4834 31.2188 61.1694C31.2179 62.0891 30.8522 62.9709 30.2018 63.6213C29.5515 64.2716 28.6697 64.6373 27.75 64.6382ZM27.75 59.4368C27.407 59.4368 27.0717 59.5385 26.7864 59.7291C26.5012 59.9197 26.2789 60.1905 26.1476 60.5075C26.0164 60.8244 25.982 61.1731 26.049 61.5095C26.1159 61.846 26.2811 62.155 26.5236 62.3976C26.7662 62.6401 27.0752 62.8053 27.4116 62.8722C27.7481 62.9391 28.0968 62.9048 28.4137 62.7735C28.7306 62.6423 29.0015 62.42 29.1921 62.1347C29.3827 61.8495 29.4844 61.5142 29.4844 61.1712C29.4844 60.7112 29.3016 60.27 28.9764 59.9448C28.6511 59.6195 28.21 59.4368 27.75 59.4368Z" fill="#899F87"/>
<path d="M46.2639 64.6382C45.5779 64.6382 44.9072 64.4347 44.3368 64.0536C43.7664 63.6724 43.3218 63.1307 43.0592 62.4969C42.7967 61.863 42.728 61.1656 42.8618 60.4927C42.9957 59.8198 43.326 59.2018 43.8111 58.7167C44.2963 58.2315 44.9143 57.9012 45.5872 57.7673C46.2601 57.6335 46.9575 57.7022 47.5913 57.9647C48.2252 58.2273 48.7669 58.6719 49.1481 59.2423C49.5292 59.8127 49.7327 60.4834 49.7327 61.1694C49.7318 62.0891 49.3661 62.9709 48.7158 63.6213C48.0654 64.2716 47.1836 64.6373 46.2639 64.6382ZM46.2639 59.4368C45.9209 59.4368 45.5856 59.5385 45.3004 59.7291C45.0151 59.9197 44.7928 60.1905 44.6616 60.5075C44.5303 60.8244 44.4959 61.1731 44.5629 61.5095C44.6298 61.846 44.795 62.155 45.0375 62.3976C45.2801 62.6401 45.5891 62.8053 45.9256 62.8722C46.262 62.9391 46.6107 62.9048 46.9276 62.7735C47.2445 62.6423 47.5154 62.42 47.706 62.1347C47.8966 61.8495 47.9983 61.5142 47.9983 61.1712C47.9983 60.7112 47.8156 60.27 47.4903 59.9448C47.165 59.6195 46.7239 59.4368 46.2639 59.4368Z" fill="#899F87"/>
<path d="M64.7788 64.6382C64.0928 64.6382 63.4221 64.4347 62.8517 64.0536C62.2812 63.6724 61.8366 63.1307 61.5741 62.4969C61.3116 61.863 61.2429 61.1656 61.3767 60.4927C61.5106 59.8198 61.8409 59.2018 62.326 58.7167C62.8111 58.2315 63.4292 57.9012 64.1021 57.7673C64.775 57.6335 65.4724 57.7022 66.1062 57.9647C66.7401 58.2273 67.2818 58.6719 67.663 59.2423C68.0441 59.8127 68.2476 60.4834 68.2476 61.1694C68.2467 62.0891 67.881 62.9709 67.2307 63.6213C66.5803 64.2716 65.6985 64.6373 64.7788 64.6382ZM64.7788 59.4368C64.4358 59.4368 64.1005 59.5385 63.8152 59.7291C63.53 59.9197 63.3077 60.1905 63.1765 60.5075C63.0452 60.8244 63.0108 61.1731 63.0778 61.5095C63.1447 61.846 63.3099 62.155 63.5524 62.3976C63.795 62.6401 64.104 62.8053 64.4404 62.8722C64.7769 62.9391 65.1256 62.9048 65.4425 62.7735C65.7594 62.6423 66.0303 62.42 66.2209 62.1347C66.4115 61.8495 66.5132 61.5142 66.5132 61.1712C66.5132 60.7112 66.3305 60.27 66.0052 59.9448C65.6799 59.6195 65.2388 59.4368 64.7788 59.4368Z" fill="#899F87"/>
<path d="M14.2538 36.4725C14.064 36.4726 13.8794 36.4104 13.7284 36.2955C13.5773 36.1807 13.4681 36.0194 13.4175 35.8365L13.4146 35.8261C13.4117 35.818 13.4091 35.8085 13.4059 35.7972C13.3019 35.4656 12.4841 33.0566 10.3881 31.9145C9.04658 31.1835 7.41627 31.1051 5.54256 31.6769C5.43296 31.7129 5.31729 31.7267 5.2023 31.7174C5.08731 31.7081 4.97533 31.676 4.87291 31.6229C4.7705 31.5698 4.6797 31.4969 4.60584 31.4082C4.53198 31.3196 4.47654 31.2172 4.44277 31.1069C4.409 30.9966 4.39758 30.8806 4.40918 30.7658C4.42077 30.6511 4.45515 30.5398 4.5103 30.4384C4.56545 30.3371 4.64026 30.2478 4.73035 30.1758C4.82044 30.1037 4.924 30.0504 5.03497 30.0188C6.90867 29.4453 8.21466 28.4666 8.91708 27.1097C10.0918 24.8412 9.24054 22.1893 9.23187 22.1627C9.19706 22.0533 9.18435 21.938 9.19446 21.8236C9.20456 21.7092 9.2373 21.5979 9.29076 21.4963C9.34421 21.3946 9.41733 21.3046 9.50586 21.2314C9.5944 21.1583 9.69658 21.1034 9.80648 21.0701C9.91638 21.0367 10.0318 21.0255 10.1461 21.0372C10.2603 21.0488 10.3711 21.083 10.4721 21.1378C10.573 21.1926 10.6621 21.2669 10.734 21.3564C10.806 21.4459 10.8595 21.5488 10.8914 21.6592C10.8983 21.684 11.6773 24.3578 13.9208 25.5803C15.262 26.3105 16.8923 26.3897 18.7657 25.8173C18.8752 25.7816 18.9908 25.7681 19.1055 25.7776C19.2203 25.7871 19.3321 25.8193 19.4343 25.8724C19.5364 25.9255 19.627 25.9984 19.7007 26.087C19.7744 26.1755 19.8298 26.2778 19.8635 26.3879C19.8972 26.498 19.9087 26.6137 19.8972 26.7283C19.8857 26.8429 19.8515 26.9541 19.7966 27.0553C19.7417 27.1566 19.6672 27.2459 19.5774 27.318C19.4876 27.3901 19.3843 27.4436 19.2736 27.4754C17.3999 28.0492 16.0939 29.0279 15.3915 30.3848C14.2853 32.5213 14.9758 34.9977 15.0675 35.3012L15.0709 35.3127L15.077 35.3318C15.1203 35.4622 15.132 35.6009 15.1112 35.7367C15.0904 35.8725 15.0376 36.0014 14.9572 36.1128C14.8768 36.2242 14.7711 36.3148 14.6488 36.3774C14.5265 36.4399 14.3911 36.4725 14.2538 36.4725ZM9.1411 29.6708C9.87459 29.7968 10.582 30.044 11.2342 30.4024C11.9423 30.7953 12.58 31.3033 13.1212 31.9056C13.2325 31.1035 13.4767 30.3255 13.8439 29.6037C14.1839 28.9417 14.6315 28.3407 15.1686 27.8254C14.4348 27.6993 13.727 27.452 13.0744 27.0935C12.3661 26.7008 11.7281 26.1928 11.1868 25.5904C11.0755 26.3926 10.8312 27.1706 10.4641 27.8925C10.1245 28.5544 9.67746 29.1553 9.1411 29.6708Z" fill="#899F87"/>
<path d="M52.5663 36.692C52.4396 36.6921 52.3144 36.6645 52.1995 36.611C52.0846 36.5575 51.9828 36.4795 51.9013 36.3824C51.8199 36.2854 51.7606 36.1716 51.7278 36.0492C51.695 35.9268 51.6895 35.7987 51.7115 35.6739C51.7138 35.6595 52.0006 33.8696 51.0369 32.5408C50.4639 31.7516 49.5355 31.2562 48.2775 31.0683C48.0721 31.0376 47.8846 30.9343 47.749 30.7772C47.6134 30.62 47.5386 30.4194 47.5383 30.2118C47.5384 30.1686 47.5416 30.1254 47.5479 30.0826C47.5647 29.9699 47.6035 29.8617 47.6622 29.7641C47.7208 29.6664 47.7982 29.5813 47.8897 29.5135C47.9813 29.4458 48.0853 29.3967 48.1958 29.3692C48.3063 29.3416 48.4212 29.3361 48.5339 29.353C49.7971 29.5409 50.8334 29.3365 51.613 28.7434C52.9103 27.7562 53.1615 25.9684 53.1635 25.9519C53.1803 25.8392 53.2192 25.731 53.2779 25.6334C53.3366 25.5358 53.4139 25.4507 53.5055 25.3829C53.5971 25.3152 53.7011 25.2662 53.8116 25.2386C53.9221 25.2111 54.037 25.2056 54.1496 25.2224C54.2623 25.2393 54.3705 25.2782 54.4681 25.3369C54.5657 25.3955 54.6508 25.4729 54.7186 25.5644C54.7863 25.656 54.8354 25.76 54.8629 25.8705C54.8904 25.9811 54.8959 26.0959 54.8791 26.2086C54.8765 26.2227 54.59 28.0123 55.5537 29.3411C56.1264 30.1303 57.0548 30.6257 58.3128 30.8136C58.5182 30.8442 58.7058 30.9475 58.8415 31.1047C58.9772 31.2618 59.052 31.4625 59.0523 31.6701C59.0523 31.7134 59.049 31.7566 59.0424 31.7993C59.0085 32.0268 58.8855 32.2314 58.7007 32.3683C58.5158 32.5051 58.2842 32.5629 58.0567 32.5289C56.7932 32.3402 55.757 32.5454 54.9774 33.1386C53.6803 34.1257 53.4291 35.9136 53.4271 35.93C53.4014 36.1403 53.2997 36.3338 53.1411 36.4742C52.9825 36.6145 52.7781 36.692 52.5663 36.692ZM51.6893 30.7009C51.9751 30.9499 52.231 31.2312 52.4521 31.5392C52.6924 31.8744 52.8913 32.2375 53.0444 32.6206C53.303 32.2991 53.5994 32.01 53.9272 31.7594C54.2283 31.5295 54.5552 31.3355 54.9013 31.1813C54.6155 30.9323 54.3596 30.651 54.1385 30.343C53.8981 30.0078 53.6991 29.6447 53.5459 29.2617C53.2875 29.5832 52.9912 29.8723 52.6634 30.1228C52.3622 30.3526 52.0353 30.5466 51.6893 30.7009Z" fill="#899F87"/>
<path d="M36.5086 17.0294C36.3875 17.0295 36.2677 17.0043 36.1569 16.9553C36.0461 16.9063 35.9468 16.8346 35.8654 16.7449C35.784 16.6552 35.7223 16.5495 35.6843 16.4345C35.6463 16.3195 35.6328 16.1978 35.6446 16.0772V16.0691C35.6446 16.0599 35.6446 16.0497 35.6469 16.0402C35.6683 15.7069 35.7669 13.2817 34.2953 11.547C33.3535 10.4367 31.9302 9.80599 30.0649 9.67273C29.8462 9.6571 29.6417 9.55927 29.4923 9.39892C29.3428 9.23858 29.2597 9.0276 29.2595 8.80844C29.2595 8.78762 29.2595 8.76681 29.2615 8.74571C29.2691 8.63194 29.2992 8.52079 29.35 8.4187C29.4007 8.31661 29.4713 8.2256 29.5574 8.15093C29.6436 8.07626 29.7437 8.01941 29.852 7.98367C29.9603 7.94793 30.0746 7.934 30.1883 7.94269C32.0545 8.07682 33.5527 7.65363 34.6433 6.68961C36.3592 5.17116 36.598 2.73321 36.6214 2.42594V2.41033V2.39414C36.6381 2.16472 36.7452 1.95134 36.9193 1.80094C37.0055 1.72646 37.1055 1.66969 37.2136 1.63387C37.3217 1.59804 37.4358 1.58386 37.5494 1.59214C37.663 1.60041 37.7738 1.63098 37.8756 1.6821C37.9774 1.73321 38.0681 1.80388 38.1426 1.89005C38.2171 1.97623 38.2738 2.07623 38.3097 2.18435C38.3455 2.29246 38.3597 2.40658 38.3514 2.52017V2.52827C38.3514 2.53752 38.3514 2.54763 38.3491 2.55862C38.3277 2.89219 38.2291 5.31714 39.7007 7.0518C40.6425 8.16209 42.0659 8.79283 43.9312 8.92637C44.1497 8.942 44.3543 9.03979 44.5037 9.20008C44.6531 9.36037 44.7363 9.57127 44.7365 9.79038C44.7365 9.8112 44.7365 9.83201 44.7345 9.85311C44.7266 9.96679 44.6964 10.0778 44.6455 10.1798C44.5947 10.2817 44.5241 10.3726 44.438 10.4472C44.3519 10.5219 44.2519 10.5787 44.1437 10.6146C44.0356 10.6504 43.9214 10.6645 43.8077 10.6561C41.9416 10.5232 40.4434 10.9452 39.3527 11.9092C37.6368 13.4277 37.3981 15.8656 37.3747 16.1729V16.1885V16.2047C37.3632 16.4268 37.267 16.6361 37.1059 16.7896C36.9448 16.943 36.7311 17.0288 36.5086 17.0294ZM34.06 9.08767C34.6528 9.45046 35.1832 9.90649 35.6307 10.4382C36.1158 11.0185 36.5035 11.6737 36.7789 12.3781C37.152 11.7201 37.6291 11.1269 38.1918 10.6214C38.7107 10.159 39.3006 9.78315 39.9389 9.50826C39.3461 9.14546 38.8158 8.68944 38.3682 8.15776C37.8832 7.57741 37.4954 6.92228 37.22 6.21786C36.8469 6.87583 36.3698 7.46905 35.8071 7.97449C35.2884 8.43686 34.6987 8.81273 34.0606 9.08767H34.06Z" fill="#899F87"/>
<path d="M14.6688 12.9556H12.915C12.685 12.9556 12.4645 12.8642 12.3018 12.7016C12.1392 12.5389 12.0479 12.3184 12.0479 12.0884C12.0479 11.8584 12.1392 11.6378 12.3018 11.4752C12.4645 11.3126 12.685 11.2212 12.915 11.2212H14.6688C14.8988 11.2212 15.1193 11.3126 15.282 11.4752C15.4446 11.6378 15.536 11.8584 15.536 12.0884C15.536 12.3184 15.4446 12.5389 15.282 12.7016C15.1193 12.8642 14.8988 12.9556 14.6688 12.9556Z" fill="#899F87"/>
<path d="M16.4478 16.4853C16.2178 16.4853 15.9972 16.3939 15.8346 16.2313C15.6719 16.0687 15.5806 15.8481 15.5806 15.6181V13.8652C15.5806 13.6352 15.6719 13.4147 15.8346 13.252C15.9972 13.0894 16.2178 12.998 16.4478 12.998C16.6777 12.998 16.8983 13.0894 17.0609 13.252C17.2236 13.4147 17.3149 13.6352 17.3149 13.8652V15.6181C17.3149 15.8481 17.2236 16.0687 17.0609 16.2313C16.8983 16.3939 16.6777 16.4853 16.4478 16.4853Z" fill="#899F87"/>
<path d="M19.9769 12.9551H18.2231C17.9932 12.9551 17.7726 12.8637 17.61 12.7011C17.4473 12.5385 17.356 12.3179 17.356 12.0879C17.356 11.8579 17.4473 11.6373 17.61 11.4747C17.7726 11.3121 17.9932 11.2207 18.2231 11.2207H19.9769C20.2069 11.2207 20.4275 11.3121 20.5901 11.4747C20.7527 11.6373 20.8441 11.8579 20.8441 12.0879C20.8441 12.3179 20.7527 12.5385 20.5901 12.7011C20.4275 12.8637 20.2069 12.9551 19.9769 12.9551Z" fill="#899F87"/>
<path d="M16.4456 11.1778C16.2156 11.1778 15.995 11.0864 15.8324 10.9238C15.6697 10.7611 15.5784 10.5406 15.5784 10.3106V8.55713C15.5784 8.32714 15.6697 8.10656 15.8324 7.94393C15.995 7.78131 16.2156 7.68994 16.4456 7.68994C16.6755 7.68994 16.8961 7.78131 17.0588 7.94393C17.2214 8.10656 17.3127 8.32714 17.3127 8.55713V10.3106C17.3127 10.5406 17.2214 10.7611 17.0588 10.9238C16.8961 11.0864 16.6755 11.1778 16.4456 11.1778Z" fill="#899F87"/>
<path d="M62.2665 18.9023H60.5801C60.3501 18.9023 60.1295 18.811 59.9669 18.6484C59.8043 18.4857 59.7129 18.2651 59.7129 18.0352C59.7129 17.8052 59.8043 17.5846 59.9669 17.422C60.1295 17.2593 60.3501 17.168 60.5801 17.168H62.2665C62.4965 17.168 62.717 17.2593 62.8797 17.422C63.0423 17.5846 63.1337 17.8052 63.1337 18.0352C63.1337 18.2651 63.0423 18.4857 62.8797 18.6484C62.717 18.811 62.4965 18.9023 62.2665 18.9023Z" fill="#899F87"/>
<path d="M63.9756 22.2975C63.7456 22.2975 63.525 22.2062 63.3624 22.0435C63.1998 21.8809 63.1084 21.6603 63.1084 21.4303V19.7437C63.1084 19.5137 63.1998 19.2931 63.3624 19.1305C63.525 18.9678 63.7456 18.8765 63.9756 18.8765C64.2056 18.8765 64.4262 18.9678 64.5888 19.1305C64.7514 19.2931 64.8428 19.5137 64.8428 19.7437V21.4303C64.8428 21.6603 64.7514 21.8809 64.5888 22.0435C64.4262 22.2062 64.2056 22.2975 63.9756 22.2975Z" fill="#899F87"/>
<path d="M67.3708 18.9019H65.6841C65.4541 18.9019 65.2335 18.8105 65.0709 18.6479C64.9083 18.4852 64.8169 18.2647 64.8169 18.0347C64.8169 17.8047 64.9083 17.5841 65.0709 17.4215C65.2335 17.2588 65.4541 17.1675 65.6841 17.1675H67.3708C67.6008 17.1675 67.8213 17.2588 67.984 17.4215C68.1466 17.5841 68.2379 17.8047 68.2379 18.0347C68.2379 18.2647 68.1466 18.4852 67.984 18.6479C67.8213 18.8105 67.6008 18.9019 67.3708 18.9019Z" fill="#899F87"/>
<path d="M63.9749 17.1932C63.7449 17.1932 63.5243 17.1019 63.3617 16.9392C63.199 16.7766 63.1077 16.556 63.1077 16.326V14.6396C63.1077 14.4097 63.199 14.1891 63.3617 14.0265C63.5243 13.8638 63.7449 13.7725 63.9749 13.7725C64.2048 13.7725 64.4254 13.8638 64.588 14.0265C64.7507 14.1891 64.842 14.4097 64.842 14.6396V16.326C64.842 16.556 64.7507 16.7766 64.588 16.9392C64.4254 17.1019 64.2048 17.1932 63.9749 17.1932Z" fill="#899F87"/>
</svg>
