<svg width="180" height="100" viewBox="0 0 180 100" fill="none" xmlns="http://www.w3.org/2000/svg">
<path d="M13.9333 42.3915H7.4837V6.58086H0.364258V0.632324H21.1093V6.58086H13.9271V42.3915H13.9333Z" fill="#C8D8C0"/>
<path d="M30.7397 24.4646V42.3919H24.2903V0.626465H30.7397V18.5099H39.9444V0.626465H46.394V42.3857H39.9444V24.4584H30.7397V24.4646Z" fill="#C8D8C0"/>
<path d="M73.9077 29.1169C73.9077 33.8132 73.219 36.631 71.5283 39.0103C69.6498 41.6403 66.5188 43.0179 62.5115 43.0179C58.5039 43.0179 55.3731 41.6403 53.4946 39.0103C51.804 36.631 51.115 33.8132 51.115 29.1169V13.901C51.115 9.2047 51.804 6.38694 53.4946 4.00757C55.3731 1.37766 58.5039 0 62.5115 0C66.5188 0 69.6498 1.37766 71.5283 4.00757C73.219 6.38694 73.9077 9.2047 73.9077 13.901V29.1169ZM57.5646 28.9918C57.5646 32.3104 57.7525 33.3748 58.3787 34.6898C59.1301 36.0674 60.6954 36.944 62.5115 36.944C64.3273 36.944 65.8928 36.0674 66.6442 34.6898C67.3329 33.3748 67.458 32.3731 67.458 28.9918V14.0261C67.458 10.6448 67.3329 9.64311 66.6442 8.32815C65.8928 6.95049 64.3273 6.07394 62.5115 6.07394C60.6954 6.07394 59.1301 6.95049 58.3787 8.32815C57.7525 9.58041 57.5646 10.7075 57.5646 14.0261V28.9918Z" fill="#C8D8C0"/>
<path d="M100.22 0.626465V28.9293C100.22 34.1891 99.5934 36.8817 97.8403 39.2611C96.0243 41.7032 92.9562 43.0181 89.1992 43.0181C85.4422 43.0181 82.3111 41.7032 80.4953 39.2611C78.742 36.8817 78.116 34.1891 78.116 28.9293V0.626465H84.5653V29.9875C84.5653 34.9343 85.8803 36.938 89.1992 36.938C92.5178 36.938 93.7701 34.9343 93.7701 29.9875V0.626465H100.22Z" fill="#C8D8C0"/>
<path d="M127.739 19.6179V42.3917H124.421L123.231 38.8225C121.102 41.8281 118.785 43.0179 115.404 43.0179C111.584 43.0179 108.391 41.2021 106.763 38.1338C105.385 35.4412 104.947 32.7488 104.947 26.9879V15.4665C104.947 8.829 105.448 6.44964 107.389 3.88217C109.205 1.37766 112.398 0 116.218 0C123.419 0 127.552 4.75898 127.552 12.9617V14.6962H121.102V13.3374C121.102 8.57845 119.412 6.07394 116.155 6.07394C114.465 6.07394 113.025 6.82534 112.336 8.20275C111.584 9.58041 111.396 10.7702 111.396 14.214V26.9879C111.396 30.4319 111.584 32.2477 112.085 33.8132C112.774 35.7544 114.402 36.944 116.468 36.944C119.85 36.944 121.29 34.5019 121.29 28.6785V24.9404H115.968V19.6179H127.739Z" fill="#C8D8C0"/>
<path d="M139.887 24.4646V42.3919H133.438V0.626465H139.887V18.5099H149.092V0.626465H155.541V42.3857H149.092V24.4584H139.887V24.4646Z" fill="#C8D8C0"/>
<path d="M172.381 42.3915H165.929V6.58086H158.81V0.632324H179.556V6.58086H172.373V42.3915H172.381Z" fill="#C8D8C0"/>
<path d="M22.1489 72.7112V70.3191C22.1489 65.4977 20.4582 63.0556 17.2647 63.0556C15.5114 63.0556 14.1337 63.807 13.445 65.122C12.6309 66.4996 12.443 67.7519 12.443 71.1332V85.0342C12.443 88.2277 12.6309 89.8559 13.132 91.2333C13.758 92.8615 15.3862 93.9259 17.2647 93.9259C20.646 93.9259 22.274 91.2333 22.274 85.7856V83.1119H28.7861V86.1613C28.7861 95.2409 24.8412 99.9998 17.3272 99.9998C13.132 99.9998 9.81313 98.3716 7.99732 95.366C6.43181 92.7988 5.99365 90.3567 5.99365 84.1577V72.4482C5.99365 65.8109 6.49451 63.494 8.43572 60.8641C10.2515 58.3593 13.3823 56.9817 17.2647 56.9817C24.4031 56.9817 28.5982 61.7407 28.5982 69.9437V72.7112H22.1489Z" fill="#C8D8C0"/>
<path d="M68.4101 99.3737H61.9605V63.563H54.8411V57.6143H75.5861V63.563H68.4101V99.3737Z" fill="#C8D8C0"/>
<path d="M110.364 93.4252H119.362V99.3737H103.914V57.6143H110.364V93.4252Z" fill="#C8D8C0"/>
<path d="M144.459 86.0986C144.459 90.7949 143.77 93.6127 142.08 95.9923C140.201 98.6222 137.07 99.9998 133.063 99.9998C129.055 99.9998 125.924 98.6222 124.046 95.9923C122.355 93.6127 121.667 90.7949 121.667 86.0986V70.8829C121.667 66.1866 122.355 63.3686 124.046 60.9893C125.924 58.3594 129.055 56.9817 133.063 56.9817C137.07 56.9817 140.201 58.3594 142.08 60.9893C143.77 63.3686 144.459 66.1866 144.459 70.8829V86.0986ZM128.116 85.9735C128.116 89.2921 128.304 90.3567 128.93 91.6717C129.681 93.0491 131.247 93.9259 133.063 93.9259C134.879 93.9259 136.444 93.0491 137.195 91.6717C137.884 90.3567 138.01 89.3548 138.01 85.9735V71.0081C138.01 67.6268 137.884 66.6248 137.195 65.3098C136.444 63.9322 134.879 63.0556 133.063 63.0556C131.247 63.0556 129.681 63.9322 128.93 65.3098C128.304 66.5621 128.116 67.6892 128.116 71.0081V85.9735Z" fill="#C8D8C0"/>
<path d="M171.02 76.5998V99.3736H167.703L166.511 95.8044C164.383 98.81 162.067 99.9998 158.685 99.9998C154.866 99.9998 151.672 98.1838 150.044 95.1155C148.666 92.4231 148.228 89.7305 148.228 83.9698V72.4482C148.228 65.8109 148.729 63.4313 150.67 60.8641C152.486 58.3593 155.68 56.9817 159.499 56.9817C166.7 56.9817 170.833 61.7407 170.833 69.9437V71.6781H164.383V70.3191C164.383 65.5604 162.693 63.0556 159.437 63.0556C157.746 63.0556 156.306 63.807 155.617 65.1847C154.866 66.5621 154.678 67.7519 154.678 71.1959V83.9698C154.678 87.4136 154.866 89.2296 155.367 90.7949C156.055 92.7361 157.683 93.9259 159.75 93.9259C163.131 93.9259 164.571 91.4839 164.571 85.6605V81.9221H159.249V76.5998H171.02Z" fill="#C8D8C0"/>
<path d="M49.243 99.3737H55.8805L47.4272 57.6143H38.5981L30.5833 99.3737H36.9075L38.1097 92.6924H48.0031L49.243 99.3737ZM39.2368 86.4306L42.9814 65.6294L46.8385 86.4306H39.2368Z" fill="#C8D8C0"/>
<path d="M93.4004 99.3737H100.038L91.5846 57.6143H82.7556L74.7405 99.3737H81.065L82.2672 92.6924H92.1606L93.4004 99.3737ZM83.3943 86.4306L87.1387 65.6294L90.996 86.4306H83.3943Z" fill="#C8D8C0"/>
</svg>
