<svg width="218" height="56" viewBox="0 0 218 56" fill="none" xmlns="http://www.w3.org/2000/svg">
<path fill-rule="evenodd" clip-rule="evenodd" d="M119.25 33.3571V32.1428H136.072V32.5V33.0357V33.3928H132.072V55.2857H131.321L131.25 55C130.786 52.8214 128.536 52.0714 127.393 52.0714H127.214H126.965C125.072 52.1403 123.378 52.9384 121.628 53.7631L121.429 53.8571C121.25 53.9286 121.08 54 120.911 54.0714C120.741 54.1428 120.572 54.2143 120.393 54.2857C118.535 55.1786 116.536 55.9643 114.107 55.9643C101.107 55.9643 91.607 44.75 91.607 28.9286C91.607 9.53574 104.321 0.142857 113.572 0.142857C115.607 0.142857 116.929 0.535714 118.714 1.10714L119.464 1.32143C119.635 1.3783 119.813 1.43879 119.997 1.50175L120 1.50248C120.395 1.637 120.824 1.78281 121.285 1.92857L122 2.10714C122.5 2.21428 123.143 2.32143 123.893 2.35714C125.429 2.39285 127.214 2 127.964 0.214286L128.071 0H128.678H128.857V19.6428H128.678H128.036L127.964 19.3572C124.678 6.28572 120.643 1.42857 113.607 1.39286H113.536C107.75 1.39286 105.821 5.10714 104.786 7.10714C102.036 12.4285 101.464 24.5714 101.464 28.2857C101.464 38.6786 102.393 43.1429 104.143 47.7857C105.929 52.5357 109.036 54.8215 113.714 54.75C118.036 54.6785 123.572 52.8214 123.572 44.5V33.3571H119.25ZM216.856 35.6429V35.3215H217.892V54.9643H179.285V53.6786H183.999V2.82145H178.75H174.321V41.1786C174.428 47.8929 169.964 56 160.214 56C145.678 56 140.714 48.4286 140.714 38.6429V2.82145H135.714V2.10716V1.57145H154.464V2.10716V2.82145H149.642V43.1072C149.642 43.5358 149.963 54.1786 160.535 54.5715C163.428 54.6786 166.607 53.5357 168.856 51.3928C170.714 49.6429 172.857 46.2857 172.964 40.8215V2.82145H168.821V2.10716V1.57145H178.75H179.821H180.178H215.714V19.5715H214.857L214.785 19.2857C211.48 2.55704 203.83 2.71437 195.991 2.87558C195.696 2.88164 195.402 2.8877 195.107 2.89287C194.535 2.92859 193.607 2.92859 193.035 2.92859V27.0715H193.428H193.472C197.785 27.0716 203.039 27.0717 204.178 16.6072L204.214 16.2857H205.071V39.3214H204.214L204.178 39C203.346 28.2573 198.446 28.3082 194.11 28.3534L194.027 28.3542C193.923 28.3553 193.818 28.3563 193.714 28.3572H193V53.7143H193.428C193.584 53.7143 193.768 53.7164 193.978 53.7189C196.997 53.7535 205.368 53.8496 211.178 48.6072C214.714 45.4286 216.606 41.0715 216.856 35.6429ZM64.0365 0.285742C53.0721 0.285742 41.0365 11.25 41.0365 28C41.0365 44.7501 53.465 55.8572 64.0365 55.8572C74.6079 55.8572 87.0366 44.7501 87.0366 28C87.0008 11.25 75.0011 0.285742 64.0365 0.285742ZM76.8222 25.9286V26.2858V26.5358V26.75V27.0715V27.1786V27.5001V27.5715V27.9286V28.2143C76.8222 31.3214 76.5363 43.2858 73.3936 49.2501C71.6079 52.7143 68.1436 54.5358 63.965 54.5358C59.7865 54.5358 56.2865 52.7143 54.5364 49.2501C51.3936 43.2858 51.1436 31.3214 51.1436 28.2143V27.9286V27.5715V27.5001V27.1786V27.0715V26.75V26.5358V26.2858V25.9286V25.7857C51.2507 21 51.8579 12.0357 54.5364 6.78574C56.6793 2.4286 61.0364 1.50003 63.965 1.50003C66.9293 1.50003 71.2508 2.4286 73.3936 6.78574C76.0718 12.0357 76.6438 21 76.7864 25.7857C76.8222 25.8215 76.8222 25.8929 76.8222 25.9286ZM35.4643 1.57145H45.2857H45.6429V2.78573H41.2857H40.8214L25.1429 55.25H24.8572L5.14286 2.78573H4.64286H0V2.07144V1.57145H17.75V2.07144V2.78573H14H13.75L27.8215 41.7857L39.4643 2.78573H35.1072V1.57145H35.4643Z" fill="#C8D8C0"/>
</svg>
