<svg width="20" height="21" viewBox="0 0 20 21" fill="none" xmlns="http://www.w3.org/2000/svg">
<path d="M10 4.575L11.725 8.0625L12.0125 8.6875L12.6375 8.78125L16.4875 9.3375L13.75 12.025L13.2813 12.4812L13.3938 13.1062L14.05 16.9375L10.6063 15.1313L10 14.875L9.4188 15.1812L5.97505 16.9625L6.60005 13.1312L6.71255 12.5062L6.25005 12.025L3.48755 9.30625L7.33755 8.75L7.96255 8.65625L8.25005 8.03125L10 4.575ZM10 1.75L7.1563 7.5125L0.800049 8.43125L5.40005 12.9188L4.31255 19.25L10 16.2625L15.6875 19.25L14.6 12.9188L19.2 8.4375L12.8438 7.5125L10 1.75Z" fill="#3C5E39"/>
</svg>
