<svg width="273" height="56" viewBox="0 0 273 56" fill="none" xmlns="http://www.w3.org/2000/svg">
<path d="M28.5192 54.814L33.2823 7.7174C33.5503 5.30249 34.0201 4.89945 34.8253 4.89945H35.2946V2.21648H27.5796V4.89945H28.0494C29.1226 4.89945 29.6592 5.6378 29.5252 7.7174L26.7745 35.8949L23.6217 7.7174C23.3527 5.50377 23.8893 4.89945 25.0979 4.89945H25.2315V2.21648H14.4972V4.89945H15.0348C16.0412 4.89945 16.0412 5.30249 16.2424 7.7174L17.0476 14.8968L14.5645 37.7065L11.7475 7.7174C11.4117 5.30249 11.8815 4.89945 12.9547 4.89945H13.0882V2.21648H2.21997V4.89945H2.75704C3.89748 4.89945 3.96426 5.30249 4.23279 7.7174L9.06308 54.814H16.0407L18.7914 30.5944L21.6089 54.814H28.5192ZM74.7449 23.9535C74.7449 20.6662 74.7449 19.5253 76.8245 19.5253C78.2335 19.5253 78.2335 20.0619 78.2335 22.8126V50.9229C78.2335 51.9297 77.8977 52.1305 77.3611 52.1305H77.0263V54.8135H87.8273V52.1305H87.3575C86.6201 52.1305 86.4188 51.8615 86.4188 50.7883V21.3373C86.4188 16.5061 85.4124 14.6273 80.6489 14.6273C77.8977 14.6273 75.8858 15.4997 74.6109 18.5179C74.0733 15.835 72.6648 14.6273 68.9755 14.6273C65.9562 14.6273 64.346 15.5669 63.1388 18.5179V14.6273L53.8803 15.3656V18.0486H54.2823C54.8862 18.0486 55.3555 18.5179 55.3555 19.9951V50.5866C55.3555 51.7943 55.0875 52.1305 54.2823 52.1305H53.8803V54.8135H64.2119V52.1305H63.8098C63.2728 52.1305 63.1388 51.9293 63.1388 51.1237V23.9535C63.1388 20.6662 63.071 19.5253 65.1506 19.5253C66.5596 19.5253 66.5596 20.0619 66.5596 22.8126V50.9229C66.5596 51.9297 66.2243 52.1305 65.7545 52.1305H65.2851V54.8135H75.8858V52.1305H75.7513C75.0139 52.1305 74.7449 51.8615 74.7449 50.7883V23.9535ZM150.222 54.814H163.171V52.131H162.298C161.158 52.131 160.822 51.6607 160.822 49.3131V29.0518H167.666V49.3126C167.666 51.6603 167.33 52.1305 166.257 52.1305H165.25V54.8135H178.131V52.1305H177.059C175.917 52.1305 175.716 51.6603 175.716 49.3126V7.7174C175.716 5.30249 175.917 4.89945 177.059 4.89945H178.131V2.21648H165.25V4.89945H166.257C167.33 4.89945 167.666 5.30249 167.666 7.7174V25.8976H160.822V7.7174C160.822 5.30249 161.158 4.89945 162.298 4.89945H163.171V2.21648H150.222V4.89945H151.363C152.436 4.89945 152.772 5.30249 152.772 7.7174V50.6538C152.772 51.7948 152.436 52.131 151.363 52.131H150.222V54.814ZM248.041 54.814H258.305V52.131H257.97C257.299 52.131 257.232 51.9297 257.232 51.1241V23.9535C257.232 20.6662 257.3 19.5253 259.379 19.5253C260.921 19.5253 260.921 20.0619 260.921 22.8126V50.9229C260.921 51.9297 260.654 52.1305 260.185 52.1305H259.714V54.8135H270.583V52.1305H270.114C269.375 52.1305 269.241 51.8615 269.241 50.7883V21.3373C269.241 16.5061 268.034 14.6273 263.337 14.6273C260.251 14.6273 258.507 15.5669 257.232 18.5179V1.41089L247.37 2.21648V4.89945H248.377C249.047 4.89945 249.45 5.30249 249.45 6.77871V50.5866C249.45 51.7943 249.248 52.1305 248.377 52.1305H248.041V54.814ZM43.0106 55.2833C51.5989 55.2833 52.8061 48.1049 52.8061 34.9553C52.8061 21.7394 51.5312 14.6273 43.0106 14.6273C34.4909 14.6273 33.2164 21.7394 33.2164 34.9553C33.216 48.1049 34.4236 55.2833 43.0106 55.2833ZM108.022 54.814H118.353V52.131H117.883C117.281 52.131 117.281 51.9297 117.281 51.1241V23.9535C117.281 20.6662 117.281 19.5253 119.426 19.5253C120.902 19.5253 120.97 20.0619 120.97 22.8126V50.9229C120.97 51.9297 120.568 52.1305 120.165 52.1305H119.694V54.8135H130.563V52.1305H130.094C129.356 52.1305 129.155 51.8615 129.155 50.7883V21.3373C129.155 16.5061 128.014 14.6273 123.25 14.6273C120.233 14.6273 118.42 15.5669 117.281 18.5179V14.6273L107.351 15.3656V18.0486H108.424C109.029 18.0486 109.497 18.5179 109.497 19.9951V50.5866C109.497 51.7943 109.23 52.1305 108.424 52.1305H108.022V54.814H108.022ZM203.223 55.2833C206.779 55.2833 208.121 53.54 208.858 51.4594C209.529 54.5454 210.267 55.2833 214.292 55.2833C218.989 55.2833 219.593 52.4663 219.526 46.9645H217.312C217.312 50.9233 217.244 51.3254 216.506 51.3254C215.835 51.3254 215.835 50.9901 215.835 48.7755V22.6785C215.835 17.3784 214.092 14.6277 207.92 14.6277C203.022 14.6277 198.191 16.104 198.459 21.4036C198.594 23.8194 199.533 26.3684 202.082 26.2339C204.43 26.0999 205.504 24.8259 205.504 22.8794C205.504 21.5381 204.497 19.3235 202.888 18.1158C203.491 17.8478 204.43 17.5783 205.974 17.5783C207.719 17.5783 208.053 18.9205 208.053 21.4699V28.7824C199.13 31.8016 197.252 33.0093 197.252 44.2133C197.252 52.265 199.199 55.2833 203.223 55.2833ZM187.86 55.2833C194.501 55.2833 196.044 53.271 195.709 42.2687H192.958C192.958 50.9901 192.689 51.6607 189.604 51.6607C185.914 51.6607 185.914 50.0505 185.914 35.0907V33.8821H196.647C196.647 18.7879 194.971 14.6282 187.859 14.6282C181.419 14.6282 178.064 18.5871 178.064 35.2243C178.065 51.0569 180.614 55.351 187.86 55.2833ZM98.6956 55.2833C105.204 55.2833 107.015 53.271 106.746 42.2687H103.997C103.997 50.9901 103.595 51.6607 100.441 51.6607C96.4824 51.6607 96.6837 50.0505 96.6837 35.0907V33.8821H107.083C107.083 18.7879 105.674 14.6282 98.696 14.6282C92.1896 14.6282 88.8346 18.5871 88.8346 35.2243C88.8342 51.0569 91.3831 55.351 98.6956 55.2833ZM221.003 54.814H231.738V52.131H230.933C230.261 52.131 229.993 51.7948 229.993 50.722V1.41089L219.997 2.21648V4.89945H221.137C221.808 4.89945 222.076 5.16752 222.076 6.24165V50.8561C222.076 51.862 222.009 52.131 221.54 52.131H221.003V54.814H221.003ZM142.64 55.2833C147.539 55.2833 150.089 52.0628 150.089 47.2335C150.089 35.8954 139.823 29.3204 139.823 21.2023C139.823 18.7197 140.696 17.9818 142.44 17.9818C144.989 17.9818 145.392 19.0555 145.861 22.8794L146.263 26.636H149.215V14.9626H146.868C146.733 16.4398 146.399 16.9759 146.263 16.7741C145.526 15.9022 143.781 14.6277 140.897 14.6277C136.603 14.6277 132.846 16.5733 132.846 22.9466C132.846 32.8757 143.044 40.4572 143.044 48.0381C143.044 51.3254 142.306 51.862 139.958 51.862C137.61 51.862 137.007 50.7893 136.537 45.8245L136.201 42.5363H133.115V54.814H135.798C136 53.4718 136.471 52.6004 136.872 53.0024C137.744 54.0093 138.682 55.2833 142.64 55.2833ZM233.75 46.4956C233.75 52.8684 234.69 55.2833 240.995 55.2833C245.423 55.2833 246.43 53.54 246.43 48.6424V41.9997H243.746V48.9778C243.746 51.3254 243.545 51.5935 242.674 51.5935C241.801 51.5935 241.6 51.3254 241.6 49.2458V17.9818H246.498V14.9626H241.667V4.89945H238.917C236.971 13.8231 235.294 14.9626 232.677 14.9626H231.94V17.9146H233.75L233.75 46.4956ZM43.0106 51.8615C41.1332 51.8615 41.1332 50.7888 41.1332 34.9553C41.1332 19.0555 41.1332 17.9818 43.0106 17.9818C44.8894 17.9818 44.8894 19.0555 44.8894 34.9553C44.8894 50.8561 44.8894 51.8615 43.0106 51.8615ZM131.504 16.641C138.212 11.6753 139.555 7.91868 137.34 4.49736C136.133 2.61905 133.381 1.41136 131.369 3.08839C128.953 5.10074 129.558 8.59024 134.053 10.6031C133.247 11.5417 131.369 13.3542 129.826 14.8972L131.504 16.641ZM206.444 50.5866C204.834 50.5866 204.834 48.9105 204.834 43.6104C204.834 33.9494 204.834 32.6744 208.053 30.9301V47.5011C208.053 49.9832 207.719 50.5866 206.444 50.5866ZM96.6832 31.0646C96.8172 18.5184 97.019 17.915 98.7633 17.915C100.44 17.915 100.307 18.5866 100.307 31.0646H96.6832ZM185.915 31.0646C186.116 18.5184 186.25 17.915 187.995 17.915C189.739 17.915 189.47 18.5866 189.47 31.0646H185.915Z" fill="#C8D8C0"/>
</svg>
