<svg width="193" height="88" viewBox="0 0 193 88" fill="none" xmlns="http://www.w3.org/2000/svg">
<path fill-rule="evenodd" clip-rule="evenodd" d="M73.8906 0L65.4837 88H42.3617L37.0368 42.0389L31.8517 88H9.29225L0.603516 0H18.5394L22.6035 60.6751C23.3039 45.2618 25.1251 24.9422 27.6477 0H46.8454L50.7687 62.6362C51.7497 42.3186 53.4311 21.4395 55.673 0H73.8906Z" fill="#C8D8C0"/>
<path fill-rule="evenodd" clip-rule="evenodd" d="M146.757 0L138.349 88H115.508C113.407 74.9685 111.586 59.5552 109.904 42.0389L104.718 88H81.878L73.7507 0H91.6866L95.6099 60.6751C96.1703 46.5205 97.7119 26.3439 100.514 0H119.432L123.636 62.6362C124.898 39.2366 126.719 18.4974 128.82 0H146.757ZM150.26 0V88H173.382L183.471 87.1609C185.572 86.5983 187.393 85.7592 188.796 84.0778C190.477 82.6761 191.458 80.5751 192.159 78.0525L193 61.9379V31.2492L192.299 14.4343C192.158 11.6309 190.897 9.10933 189.357 6.72659C187.675 4.48474 185.293 2.80335 182.069 1.68139L171.561 0.280749L150.26 0ZM171.561 15.4143L172.96 15.8349L174.362 18.4974L174.64 26.205V60.2565L173.66 71.0442L171.559 72.5867L168.755 72.8654V15.1335L171.561 15.4143Z" fill="#C8D8C0"/>
</svg>
